<svg version="1.1" xmlns="http://www.w3.org/2000/svg" viewBox="0 0 1263.746616908482 984.3101719447545" width="2527.493233816964" height="1968.620343889509">
  <!-- svg-source:excalidraw -->
  
  <defs>
    <style class="style-fonts">
      @font-face {
        font-family: "Virgil";
        src: url("https://excalidraw.com/Virgil.woff2");
      }
      @font-face {
        font-family: "Cascadia";
        src: url("https://excalidraw.com/Cascadia.woff2");
      }
    </style>
    
  </defs>
  <g stroke-linecap="round" transform="translate(60.1823817661832 56.43465750558033) rotate(0 76.41241455078125 79.64028930664062)"><path d="M32 0 C55.44 1.02, 78.11 -0.41, 120.82 0 M32 0 C58.2 -0.9, 84.42 -0.12, 120.82 0 M120.82 0 C141.42 0.72, 151.81 10.11, 152.82 32 M120.82 0 C141.66 -1.56, 154.96 12.15, 152.82 32 M152.82 32 C152.33 56.43, 151.19 76.99, 152.82 127.28 M152.82 32 C153.25 63.85, 153.33 94.89, 152.82 127.28 M152.82 127.28 C151.68 147.66, 142.16 159.85, 120.82 159.28 M152.82 127.28 C152.62 146.91, 141.64 157.69, 120.82 159.28 M120.82 159.28 C92.98 159.15, 64.24 157.62, 32 159.28 M120.82 159.28 C100.6 160.29, 82.7 159.2, 32 159.28 M32 159.28 C9.34 160.2, 1.03 149.49, 0 127.28 M32 159.28 C8.75 160.59, 1.68 149.67, 0 127.28 M0 127.28 C0.71 94.97, -0.68 62.79, 0 32 M0 127.28 C1.03 101.19, 1.13 73.35, 0 32 M0 32 C1.93 10.1, 11.77 -0.22, 32 0 M0 32 C-0.34 8.9, 10.09 -1.21, 32 0" stroke="#1e1e1e" stroke-width="1" fill="none"></path></g><g transform="translate(102.38482775006992 123.57494681222096) rotate(0 34.20996856689453 12.5)"><text x="34.20996856689453" y="0" font-family="Virgil, Segoe UI Emoji" font-size="20px" fill="#1e1e1e" text-anchor="middle" style="white-space: pre;" direction="ltr" dominant-baseline="text-before-edge">nginx-v1</text></g><g stroke-linecap="round" transform="translate(61.26899065290206 252.04667881556918) rotate(0 76.41241455078125 79.64028930664062)"><path d="M32 0 C49.18 1.67, 70.53 0.24, 120.82 0 M32 0 C49.5 -1.61, 67.43 -1.36, 120.82 0 M120.82 0 C140.17 0.23, 154.66 12.02, 152.82 32 M120.82 0 C140.6 0.76, 152.71 10.46, 152.82 32 M152.82 32 C152.85 54.42, 151.04 79.79, 152.82 127.28 M152.82 32 C152.25 58.3, 152.91 84.39, 152.82 127.28 M152.82 127.28 C150.95 146.94, 143.05 158.35, 120.82 159.28 M152.82 127.28 C154.93 148.34, 140.54 160.68, 120.82 159.28 M120.82 159.28 C89 159.83, 55.29 159.13, 32 159.28 M120.82 159.28 C90.45 158.7, 60.83 158.92, 32 159.28 M32 159.28 C9.47 158.6, 1.14 150.4, 0 127.28 M32 159.28 C12.29 159.11, 1.77 150.15, 0 127.28 M0 127.28 C-1.14 107.94, -0.54 85.09, 0 32 M0 127.28 C-0.84 104.88, -0.61 82.42, 0 32 M0 32 C-1.66 11.76, 12.57 1.18, 32 0 M0 32 C1.24 11.83, 10.92 -0.79, 32 0" stroke="#1e1e1e" stroke-width="1" fill="none"></path></g><g transform="translate(103.47143663678878 319.1869681222098) rotate(0 34.20996856689453 12.5)"><text x="34.20996856689453" y="0" font-family="Virgil, Segoe UI Emoji" font-size="20px" fill="#1e1e1e" text-anchor="middle" style="white-space: pre;" direction="ltr" dominant-baseline="text-before-edge">nginx-v1</text></g><g stroke-linecap="round" transform="translate(65.22956194196422 448.83030046735485) rotate(0 76.41241455078125 79.64028930664062)"><path d="M32 0 C48.94 -2.53, 66.74 -2.04, 120.82 0 M32 0 C50.48 -1.49, 67.95 -0.86, 120.82 0 M120.82 0 C141.98 -0.9, 151.24 9.54, 152.82 32 M120.82 0 C143.06 -2.14, 151.65 9.76, 152.82 32 M152.82 32 C152.17 58.25, 153.5 84.09, 152.82 127.28 M152.82 32 C151.56 52.56, 151.91 70.58, 152.82 127.28 M152.82 127.28 C154.04 149.81, 143.92 158.51, 120.82 159.28 M152.82 127.28 C153 149.64, 140.34 159.5, 120.82 159.28 M120.82 159.28 C90.1 157.94, 60.89 158.38, 32 159.28 M120.82 159.28 C100.39 160.49, 78.09 160.56, 32 159.28 M32 159.28 C12 157.53, -0.79 146.76, 0 127.28 M32 159.28 C8.92 160.3, -1.06 146.61, 0 127.28 M0 127.28 C-1.04 104.9, -0.59 82.4, 0 32 M0 127.28 C0.07 107.14, -0.01 86.04, 0 32 M0 32 C-0.69 11.52, 10.21 0.76, 32 0 M0 32 C1 11.98, 11.77 1.97, 32 0" stroke="#1e1e1e" stroke-width="1" fill="none"></path></g><g transform="translate(107.43200792585094 515.9705897739955) rotate(0 34.20996856689453 12.5)"><text x="34.20996856689453" y="0" font-family="Virgil, Segoe UI Emoji" font-size="20px" fill="#1e1e1e" text-anchor="middle" style="white-space: pre;" direction="ltr" dominant-baseline="text-before-edge">nginx-v1</text></g><g stroke-linecap="round" transform="translate(1068.8683907645088 60.37143816266749) rotate(0 76.41241455078125 79.64028930664061)"><path d="M32 0 C57.78 -2, 82.38 -2.05, 120.82 0 M32 0 C58.35 -0.17, 84.33 -0.48, 120.82 0 M120.82 0 C143.15 -1.46, 153.42 10.26, 152.82 32 M120.82 0 C144.06 -2.04, 150.99 9.06, 152.82 32 M152.82 32 C151.69 64.59, 154.4 92.83, 152.82 127.28 M152.82 32 C151.75 52.12, 152.83 72.87, 152.82 127.28 M152.82 127.28 C153.09 149.14, 140.84 160.93, 120.82 159.28 M152.82 127.28 C154.18 147.02, 144.03 158.85, 120.82 159.28 M120.82 159.28 C89.86 160.47, 57.31 159.39, 32 159.28 M120.82 159.28 C89.6 159.91, 58.66 159.56, 32 159.28 M32 159.28 C9.98 158.82, -0.4 148.84, 0 127.28 M32 159.28 C12.93 157.2, -0.21 148.4, 0 127.28 M0 127.28 C0.8 94.32, -0.61 58.08, 0 32 M0 127.28 C-0.88 106.54, -1.44 84.3, 0 32 M0 32 C1 10.33, 11.17 -0.71, 32 0 M0 32 C-2.18 10.88, 9.03 1.22, 32 0" stroke="#1e1e1e" stroke-width="1" fill="none"></path></g><g transform="translate(1119.6508309500557 127.51172746930811) rotate(0 25.629974365234375 12.499999999999986)"><text x="25.629974365234375" y="0" font-family="Virgil, Segoe UI Emoji" font-size="20px" fill="#1e1e1e" text-anchor="middle" style="white-space: pre;" direction="ltr" dominant-baseline="text-before-edge">client</text></g><g stroke-linecap="round" transform="translate(1079.5167585100448 246.81500680106024) rotate(0 76.41241455078125 79.64028930664062)"><path d="M32 0 C56.41 0.83, 83.97 -1.48, 120.82 0 M32 0 C59.93 1, 88.3 -0.56, 120.82 0 M120.82 0 C141.47 -1.54, 153.14 12.54, 152.82 32 M120.82 0 C141.87 -0.66, 151.04 10.5, 152.82 32 M152.82 32 C153.85 67.27, 153.26 102.2, 152.82 127.28 M152.82 32 C152.8 54.49, 152.1 77.88, 152.82 127.28 M152.82 127.28 C152.51 147.24, 142.79 158.36, 120.82 159.28 M152.82 127.28 C154.75 150.86, 140.03 158.31, 120.82 159.28 M120.82 159.28 C89.68 157.35, 59.52 157.56, 32 159.28 M120.82 159.28 C101.79 159.26, 82.43 158.66, 32 159.28 M32 159.28 C12.26 160.81, 1.05 149.29, 0 127.28 M32 159.28 C12.12 159.38, -0.02 149.73, 0 127.28 M0 127.28 C0.87 106.28, -1.1 85.17, 0 32 M0 127.28 C-0.19 100.64, -0.5 74.55, 0 32 M0 32 C1.89 12.45, 11.27 -0.69, 32 0 M0 32 C-1.88 10.51, 9.72 0.13, 32 0" stroke="#1e1e1e" stroke-width="1" fill="none"></path></g><g transform="translate(1130.2991986955917 313.95529610770086) rotate(0 25.629974365234375 12.5)"><text x="25.629974365234375" y="0" font-family="Virgil, Segoe UI Emoji" font-size="20px" fill="#1e1e1e" text-anchor="middle" style="white-space: pre;" direction="ltr" dominant-baseline="text-before-edge">client</text></g><g stroke-linecap="round" transform="translate(1087.2851388113838 454.9556579589845) rotate(0 76.41241455078125 79.64028930664062)"><path d="M32 0 C66.73 -0.17, 99.88 2.05, 120.82 0 M32 0 C63.8 -0.45, 94.43 1.13, 120.82 0 M120.82 0 C143.33 -1.71, 153.63 12.27, 152.82 32 M120.82 0 C143.5 1.19, 151.18 10.69, 152.82 32 M152.82 32 C151.49 61.6, 151.75 89.77, 152.82 127.28 M152.82 32 C154.51 67.34, 152.74 101.83, 152.82 127.28 M152.82 127.28 C153.7 148.3, 141.33 160.91, 120.82 159.28 M152.82 127.28 C155.12 148.28, 142.27 159.58, 120.82 159.28 M120.82 159.28 C89.01 161.58, 56.47 162.07, 32 159.28 M120.82 159.28 C88.34 159.3, 55.13 160.89, 32 159.28 M32 159.28 C9.87 159.28, -0.67 150.37, 0 127.28 M32 159.28 C11.93 157.91, -0.22 148.9, 0 127.28 M0 127.28 C1.76 105.04, 1.35 85.45, 0 32 M0 127.28 C-1.15 106.56, 0.55 85.58, 0 32 M0 32 C1.64 10.46, 8.69 -1.9, 32 0 M0 32 C2.14 11.37, 9.65 -1.09, 32 0" stroke="#1e1e1e" stroke-width="1" fill="none"></path></g><g transform="translate(1138.0675789969307 522.0959472656251) rotate(0 25.629974365234375 12.5)"><text x="25.629974365234375" y="0" font-family="Virgil, Segoe UI Emoji" font-size="20px" fill="#1e1e1e" text-anchor="middle" style="white-space: pre;" direction="ltr" dominant-baseline="text-before-edge">client</text></g><g stroke-linecap="round"><g transform="translate(665.1038033621644 136.52175279851917) rotate(0 -219.91106305803532 0.8219232802966872)"><path d="M0 0 C-139.09 0.41, -278.35 0.72, -439.82 1.64" stroke="#1e1e1e" stroke-width="1.5" fill="none" stroke-dasharray="8 9"></path></g><g transform="translate(665.1038033621644 136.52175279851917) rotate(0 -219.91106305803532 0.8219232802966872)"><path d="M-411.68 -8.75 C-420.53 -5.23, -429.72 -2.36, -439.82 1.64" stroke="#1e1e1e" stroke-width="1.5" fill="none"></path></g><g transform="translate(665.1038033621644 136.52175279851917) rotate(0 -219.91106305803532 0.8219232802966872)"><path d="M-411.58 11.77 C-420.45 8.8, -429.68 5.18, -439.82 1.64" stroke="#1e1e1e" stroke-width="1.5" fill="none"></path></g></g><mask></mask><g stroke-linecap="round"><g transform="translate(659.7043110637794 143.18363356944417) rotate(0 -215.4423740931921 90.36292650473274)"><path d="M0 0 C-127.48 53.2, -255.08 105.41, -430.88 180.73" stroke="#1e1e1e" stroke-width="1.5" fill="none" stroke-dasharray="8 9"></path></g><g transform="translate(659.7043110637794 143.18363356944417) rotate(0 -215.4423740931921 90.36292650473274)"><path d="M-408.95 160.26 C-415.34 167.42, -422.73 170.97, -430.88 180.73" stroke="#1e1e1e" stroke-width="1.5" fill="none"></path></g><g transform="translate(659.7043110637794 143.18363356944417) rotate(0 -215.4423740931921 90.36292650473274)"><path d="M-400.93 179.15 C-409.6 180.7, -419.36 178.68, -430.88 180.73" stroke="#1e1e1e" stroke-width="1.5" fill="none"></path></g></g><mask></mask><g stroke-linecap="round"><g transform="translate(681.8875386028419 536.8749990613535) rotate(0 -224.90125383649558 -0.15126171800585553)"><path d="M0 0 C-164.71 0.19, -329.19 0.06, -449.8 -0.39" stroke="#1e1e1e" stroke-width="1.5" fill="none" stroke-dasharray="8 9"></path></g><g transform="translate(681.8875386028419 536.8749990613535) rotate(0 -224.90125383649558 -0.15126171800585553)"><path d="M-421.58 -10.57 C-432.13 -6.75, -442.2 -3, -449.8 -0.39" stroke="#1e1e1e" stroke-width="1.5" fill="none"></path></g><g transform="translate(681.8875386028419 536.8749990613535) rotate(0 -224.90125383649558 -0.15126171800585553)"><path d="M-421.64 9.95 C-432.16 6.26, -442.22 2.51, -449.8 -0.39" stroke="#1e1e1e" stroke-width="1.5" fill="none"></path></g></g><mask></mask><g stroke-linecap="round" transform="translate(57.094011579241396 737.7858581542971) rotate(0 76.41241455078125 79.64028930664062)"><path d="M32 0 C57.8 1.35, 77.88 -1.58, 120.82 0 M32 0 C63.57 1.65, 94.16 -0.01, 120.82 0 M120.82 0 C143.75 1.07, 153.31 10.06, 152.82 32 M120.82 0 C141.48 -1.59, 152.18 8.99, 152.82 32 M152.82 32 C154.68 62.9, 152.05 88.86, 152.82 127.28 M152.82 32 C152.94 55.75, 152.81 80.55, 152.82 127.28 M152.82 127.28 C154.28 150.46, 141.94 160.17, 120.82 159.28 M152.82 127.28 C153.45 147.04, 142.7 159.9, 120.82 159.28 M120.82 159.28 C87.43 158.5, 55.15 159.48, 32 159.28 M120.82 159.28 C97.48 159.9, 74.51 160.23, 32 159.28 M32 159.28 C11.65 159.91, -0.88 149.1, 0 127.28 M32 159.28 C11.97 157.29, 1.8 149.65, 0 127.28 M0 127.28 C-1.24 105.83, -1.29 85.62, 0 32 M0 127.28 C-0.6 105.82, -1.74 82.02, 0 32 M0 32 C-0.95 12.6, 10.54 -0.95, 32 0 M0 32 C0.53 12.12, 9.83 1.07, 32 0" stroke="#1e1e1e" stroke-width="1" fill="none"></path></g><g transform="translate(94.88646153041327 804.9261474609377) rotate(0 38.619964599609375 12.5)"><text x="38.619964599609375" y="0" font-family="Virgil, Segoe UI Emoji" font-size="20px" fill="#1e1e1e" text-anchor="middle" style="white-space: pre;" direction="ltr" dominant-baseline="text-before-edge">nginx-v2</text></g><g stroke-linecap="round" transform="translate(11.110534667968864 10) rotate(0 134.7922624860492 315.13711111886164)"><path d="M0 0 C90.07 1.32, 182.44 1.23, 269.58 0 M269.58 0 C271.19 176.72, 270.9 352.99, 269.58 630.27 M269.58 630.27 C165.39 632, 58.09 632.21, 0 630.27 M0 630.27 C1.43 485.81, 2.34 339.97, 0 0" stroke="#1971c2" stroke-width="1.5" fill="none" stroke-dasharray="8 9"></path></g><g stroke-linecap="round" transform="translate(10 680.9823608398438) rotate(0 134.79226248604914 146.6639055524554)"><path d="M0 0 C75.72 1.85, 155.13 1.9, 269.58 0 M269.58 0 C271.37 70.4, 270.44 138.75, 269.58 293.33 M269.58 293.33 C178.52 295.51, 88.94 294.12, 0 293.33 M0 293.33 C-1.61 212.03, 1.1 133.45, 0 0" stroke="#2f9e44" stroke-width="1.5" fill="none" stroke-dasharray="8 9"></path></g><g stroke-linecap="round" transform="translate(1100.9217878069196 729.0292314801901) rotate(0 76.41241455078125 79.64028930664062)"><path d="M32 0 C53.76 -0.38, 72.66 0.95, 120.82 0 M32 0 C51.34 -0.79, 70.95 -1.4, 120.82 0 M120.82 0 C141.03 -0.53, 150.83 11.18, 152.82 32 M120.82 0 C140 1.73, 151.18 10.57, 152.82 32 M152.82 32 C152.67 61.18, 153.35 90.62, 152.82 127.28 M152.82 32 C154.39 57.9, 152.9 83.39, 152.82 127.28 M152.82 127.28 C153.57 149.17, 140.83 160.82, 120.82 159.28 M152.82 127.28 C153.86 149.39, 143.11 160.07, 120.82 159.28 M120.82 159.28 C95.38 158.64, 69.75 158.77, 32 159.28 M120.82 159.28 C87.98 158.86, 54.84 159.51, 32 159.28 M32 159.28 C12.65 157.85, -0.13 147.85, 0 127.28 M32 159.28 C9.02 161.03, -0.41 150.07, 0 127.28 M0 127.28 C0.3 102.79, -2.6 79.89, 0 32 M0 127.28 C0.81 96.09, 1.47 66.21, 0 32 M0 32 C-0.8 9.75, 10.79 -1.89, 32 0 M0 32 C-1.25 8.46, 10.03 -0.15, 32 0" stroke="#1e1e1e" stroke-width="1" fill="none"></path></g><g transform="translate(1151.7042279924665 796.1695207868307) rotate(0 25.629974365234375 12.5)"><text x="25.629974365234375" y="0" font-family="Virgil, Segoe UI Emoji" font-size="20px" fill="#1e1e1e" text-anchor="middle" style="white-space: pre;" direction="ltr" dominant-baseline="text-before-edge">client</text></g><g stroke-linecap="round"><g transform="translate(694.9687190015838 809.6765772299291) rotate(0 -233.55377197265636 1.195695177409732)"><path d="M0 0 C-168.04 0.91, -336.27 1.73, -467.11 2.39" stroke="#1e1e1e" stroke-width="1.5" fill="none" stroke-dasharray="8 9"></path></g><g transform="translate(694.9687190015838 809.6765772299291) rotate(0 -233.55377197265636 1.195695177409732)"><path d="M-438.97 -8.01 C-448.94 -4.08, -459.3 -0.44, -467.11 2.39" stroke="#1e1e1e" stroke-width="1.5" fill="none"></path></g><g transform="translate(694.9687190015838 809.6765772299291) rotate(0 -233.55377197265636 1.195695177409732)"><path d="M-438.87 12.51 C-448.86 9.05, -459.26 5.31, -467.11 2.39" stroke="#1e1e1e" stroke-width="1.5" fill="none"></path></g></g><mask></mask><g stroke-linecap="round" transform="translate(886.5204293387276 89.02675083705392) rotate(0 13.22592599051336 13.080575125558028)"><path d="M14 0 C18.06 4.63, 22.02 9.14, 26.45 14 M14 0 C18.3 4.92, 22.74 9.91, 26.45 14 M26.45 14 C21.19 18.68, 16.73 23.79, 14 26.16 M26.45 14 C23.81 16.58, 21.15 19.13, 14 26.16 M14 26.16 C9.17 22.16, 3.93 17.44, 0 14 M14 26.16 C8.74 21.67, 3.36 16.93, 0 14 M0 14 C4.37 10.33, 8.27 5.65, 14 0 M0 14 C4.52 9.84, 8.58 5.43, 14 0" stroke="#1971c2" stroke-width="1" fill="none"></path></g><g stroke-linecap="round" transform="translate(936.0862513950892 88.30069405691992) rotate(0 13.22592599051336 13.080575125558028)"><path d="M14 0 C17.96 5.24, 22.35 9.83, 26.45 14 M14 0 C18.77 5.44, 23.59 10.84, 26.45 14 M26.45 14 C21.41 18.36, 16.81 23.46, 14 26.16 M26.45 14 C22.3 17.83, 18.53 21.92, 14 26.16 M14 26.16 C10.5 23.71, 7.97 20.38, 0 14 M14 26.16 C9.02 21.66, 3.96 17.37, 0 14 M0 14 C5.29 9.33, 10 4.66, 14 0 M0 14 C3.22 10.71, 6.43 7.8, 14 0" stroke="#1971c2" stroke-width="1" fill="none"></path></g><g stroke-linecap="round" transform="translate(980.6801932198662 87.79375348772362) rotate(0 13.22592599051336 13.080575125558028)"><path d="M14 0 C17.29 3.12, 20.4 7.28, 26.45 14 M14 0 C18.19 4.64, 22.52 9.7, 26.45 14 M26.45 14 C23.7 16.89, 20.77 20.29, 14 26.16 M26.45 14 C22.78 17.68, 19.31 21.05, 14 26.16 M14 26.16 C10.21 23.31, 6.49 19.99, 0 14 M14 26.16 C9.56 22.03, 4.98 17.95, 0 14 M0 14 C4.96 8.94, 10.53 3.82, 14 0 M0 14 C4.07 9.8, 7.96 5.69, 14 0" stroke="#1971c2" stroke-width="1" fill="none"></path></g><g stroke-linecap="round" transform="translate(874.7731018066409 749.789428710938) rotate(0 13.22592599051336 13.080575125558028)"><path d="M14 0 C17.5 3.89, 20.72 7.26, 26.45 14 M14 0 C18.06 4.78, 22.34 9.14, 26.45 14 M26.45 14 C23.94 16.58, 20.52 19.66, 14 26.16 M26.45 14 C23.73 16.68, 20.68 19.5, 14 26.16 M14 26.16 C8.68 21.64, 3.7 17.83, 0 14 M14 26.16 C8.61 21.75, 3.45 17.33, 0 14 M0 14 C4.96 8.93, 10.76 3.58, 14 0 M0 14 C4 9.8, 8.07 5.8, 14 0" stroke="#f08c00" stroke-width="1" fill="none"></path></g><g stroke-linecap="round" transform="translate(924.3389238630023 749.3540300641746) rotate(0 13.22592599051336 13.080575125558028)"><path d="M14 0 C19.06 5.42, 24.03 10.89, 26.45 14 M14 0 C18.53 4.85, 22.78 10.05, 26.45 14 M26.45 14 C22.85 17.4, 19.28 20.39, 14 26.16 M26.45 14 C22.32 17.92, 18.37 21.92, 14 26.16 M14 26.16 C8.12 21.61, 3.23 16.85, 0 14 M14 26.16 C8.42 21.59, 3.31 16.78, 0 14 M0 14 C5.33 9.04, 9.8 4.57, 14 0 M0 14 C2.85 11.05, 5.77 8.37, 14 0" stroke="#f08c00" stroke-width="1" fill="none"></path></g><g stroke-linecap="round" transform="translate(968.6422511509488 749.7191510881701) rotate(0 13.22592599051336 13.080575125558028)"><path d="M14 0 C18.53 4.73, 23.01 9.71, 26.45 14 M14 0 C18.4 5.13, 23.03 10.41, 26.45 14 M26.45 14 C23.13 16.62, 20.49 20.24, 14 26.16 M26.45 14 C23.54 16.85, 20.6 19.72, 14 26.16 M14 26.16 C10.88 23.54, 7.52 19.82, 0 14 M14 26.16 C9.55 22.21, 4.89 18.06, 0 14 M0 14 C4.53 9.8, 8.74 4.73, 14 0 M0 14 C3.23 10.9, 6.63 7.48, 14 0" stroke="#f08c00" stroke-width="1" fill="none"></path></g><g stroke-linecap="round" transform="translate(1013.6074175153462 751.0236467633933) rotate(0 13.22592599051336 13.080575125558028)"><path d="M14 0 C17.05 3.45, 20.73 7.4, 26.45 14 M14 0 C18.88 5.34, 23.54 11.04, 26.45 14 M26.45 14 C21.58 18.81, 16.84 23.58, 14 26.16 M26.45 14 C23.89 16.73, 21.24 19.39, 14 26.16 M14 26.16 C11.34 23.9, 8.24 21.28, 0 14 M14 26.16 C10.42 23.09, 7.08 19.83, 0 14 M0 14 C3.79 10.05, 8.15 6.44, 14 0 M0 14 C3.64 10.41, 7.57 6.42, 14 0" stroke="#f08c00" stroke-width="1" fill="none"></path></g><g stroke-linecap="round" transform="translate(1059.3943786621094 753.2043021065851) rotate(0 13.22592599051336 13.080575125558028)"><path d="M14 0 C18.13 4.56, 22.62 9.05, 26.45 14 M14 0 C17.02 3.69, 20.58 7.11, 26.45 14 M26.45 14 C22.84 17.75, 19.24 20.5, 14 26.16 M26.45 14 C23.95 16.81, 20.93 19.31, 14 26.16 M14 26.16 C11 23.73, 7.64 20.97, 0 14 M14 26.16 C8.73 21.22, 3.05 16.53, 0 14 M0 14 C4.2 10.37, 7.79 5.8, 14 0 M0 14 C3.57 10.38, 7.04 7.01, 14 0" stroke="#f08c00" stroke-width="1" fill="none"></path></g><g stroke-linecap="round" transform="translate(948.0803571428573 277.2378976004467) rotate(0 13.22592599051336 13.080575125558028)"><path d="M14 0 C17.15 3.65, 20.38 7.33, 26.45 14 M14 0 C18.85 5.74, 23.89 11.2, 26.45 14 M26.45 14 C23.91 16.47, 21.26 19.42, 14 26.16 M26.45 14 C22.62 17.52, 18.77 21.43, 14 26.16 M14 26.16 C10.94 23.67, 7.4 20.6, 0 14 M14 26.16 C11.02 23.49, 7.84 21.06, 0 14 M0 14 C3.5 10.49, 7.52 6.52, 14 0 M0 14 C3.32 10.8, 6.53 7.52, 14 0" stroke="#1971c2" stroke-width="1" fill="none"></path></g><g stroke-linecap="round" transform="translate(995.7815987723216 477.1529279436387) rotate(0 13.22592599051336 13.080575125558028)"><path d="M14 0 C18.59 4.88, 22.64 10.39, 26.45 14 M14 0 C16.96 3.56, 20.23 7, 26.45 14 M26.45 14 C21.6 18.11, 17.23 22.65, 14 26.16 M26.45 14 C22.59 17.79, 18.96 21.69, 14 26.16 M14 26.16 C10.13 22.48, 5.16 18.69, 0 14 M14 26.16 C10.87 23.33, 7.49 20.82, 0 14 M0 14 C4.66 8.89, 10.12 4.32, 14 0 M0 14 C4.78 9.49, 9.27 4.43, 14 0" stroke="#1971c2" stroke-width="1" fill="none"></path></g><g stroke-linecap="round" transform="translate(936.4679827008927 476.84269496372815) rotate(0 13.22592599051336 13.080575125558028)"><path d="M14 0 C16.95 3.72, 20.41 6.93, 26.45 14 M14 0 C18.47 4.67, 22.47 9.57, 26.45 14 M26.45 14 C23.97 16.48, 21.31 18.86, 14 26.16 M26.45 14 C22.5 17.75, 18.45 22.02, 14 26.16 M14 26.16 C9.28 22.72, 5.55 18.62, 0 14 M14 26.16 C10.57 23.06, 7.07 19.86, 0 14 M0 14 C3.98 10.25, 7.62 6.49, 14 0 M0 14 C5.35 8.93, 10.71 3.26, 14 0" stroke="#1971c2" stroke-width="1" fill="none"></path></g><g stroke-linecap="round" transform="translate(667.5882829938614 89.56189836774598) rotate(0 76.71351841517856 41.70536586216514)"><path d="M0 0 C46.21 2.44, 90.55 1.25, 153.43 0 M0 0 C50.31 -0.28, 100.53 0.89, 153.43 0 M153.43 0 C154.63 21.46, 151.21 41.85, 153.43 83.41 M153.43 0 C154.46 24.95, 153.03 50.55, 153.43 83.41 M153.43 83.41 C108.64 84.75, 64.23 85.87, 0 83.41 M153.43 83.41 C115.93 83.78, 78.74 82.78, 0 83.41 M0 83.41 C-1.44 67.44, -1.56 46.69, 0 0 M0 83.41 C-0.33 57.57, 0.08 30.68, 0 0" stroke="#1e1e1e" stroke-width="1" fill="none"></path></g><g transform="translate(694.1118676321846 118.76726422991112) rotate(0 50.18993377685547 12.5)"><text x="50.18993377685547" y="0" font-family="Virgil, Segoe UI Emoji" font-size="20px" fill="#1e1e1e" text-anchor="middle" style="white-space: pre;" direction="ltr" dominant-baseline="text-before-edge">istio-proxy</text></g><g stroke-linecap="round"><g transform="translate(1063.9109148297996 136.21129456126096) rotate(0 -120.05065917968761 -0.04862190123719756)"><path d="M0 0 C-51.85 0.12, -103.79 0.04, -240.1 -0.15" stroke="#1e1e1e" stroke-width="1.5" fill="none" stroke-dasharray="8 9"></path></g><g transform="translate(1063.9109148297996 136.21129456126096) rotate(0 -120.05065917968761 -0.04862190123719756)"><path d="M-211.9 -10.38 C-217.83 -8.08, -223.86 -5.93, -240.1 -0.15" stroke="#1e1e1e" stroke-width="1.5" fill="none"></path></g><g transform="translate(1063.9109148297996 136.21129456126096) rotate(0 -120.05065917968761 -0.04862190123719756)"><path d="M-211.92 10.15 C-217.85 7.99, -223.88 5.7, -240.1 -0.15" stroke="#1e1e1e" stroke-width="1.5" fill="none"></path></g></g><mask></mask><g stroke-linecap="round" transform="translate(672.856140136719 282.27508544921915) rotate(0 76.71351841517856 41.70536586216514)"><path d="M0 0 C57.86 -1.72, 111.42 -0.51, 153.43 0 M0 0 C39.49 -0.79, 78.2 -1.01, 153.43 0 M153.43 0 C154.13 33.55, 153.52 64.71, 153.43 83.41 M153.43 0 C152.29 18.39, 152.67 37.98, 153.43 83.41 M153.43 83.41 C120.21 85.93, 91.5 83.78, 0 83.41 M153.43 83.41 C92.18 82.35, 33.7 82.57, 0 83.41 M0 83.41 C-1.16 50.73, -1.87 22.03, 0 0 M0 83.41 C0.57 58.3, 1.08 32.71, 0 0" stroke="#1e1e1e" stroke-width="1" fill="none"></path></g><g transform="translate(699.3797247750422 311.4804513113843) rotate(0 50.18993377685547 12.5)"><text x="50.18993377685547" y="0" font-family="Virgil, Segoe UI Emoji" font-size="20px" fill="#1e1e1e" text-anchor="middle" style="white-space: pre;" direction="ltr" dominant-baseline="text-before-edge">istio-proxy</text></g><g stroke-linecap="round"><g transform="translate(1068.7853567940847 319.88343461050107) rotate(0 -115.63860212053567 1.7089822580292378)"><path d="M0 0 C-90.93 1.43, -181.85 2.68, -231.28 3.42" stroke="#1e1e1e" stroke-width="1.5" fill="none" stroke-dasharray="8 9"></path></g><g transform="translate(1068.7853567940847 319.88343461050107) rotate(0 -115.63860212053567 1.7089822580292378)"><path d="M-203.24 -7.25 C-214.34 -3.04, -225.44 1.03, -231.28 3.42" stroke="#1e1e1e" stroke-width="1.5" fill="none"></path></g><g transform="translate(1068.7853567940847 319.88343461050107) rotate(0 -115.63860212053567 1.7089822580292378)"><path d="M-202.94 13.27 C-214.15 9.42, -225.36 5.43, -231.28 3.42" stroke="#1e1e1e" stroke-width="1.5" fill="none"></path></g></g><mask></mask><g stroke-linecap="round" transform="translate(686.6654314313612 486.05664934430854) rotate(0 76.71351841517856 41.70536586216514)"><path d="M0 0 C41.26 -1.02, 82.02 -1.31, 153.43 0 M0 0 C57.46 0.21, 116.78 0.98, 153.43 0 M153.43 0 C153.02 21.65, 151.88 47.23, 153.43 83.41 M153.43 0 C153.09 22.51, 151.62 45.43, 153.43 83.41 M153.43 83.41 C106.28 83.14, 57.62 85.2, 0 83.41 M153.43 83.41 C113.22 83.94, 73.09 84.64, 0 83.41 M0 83.41 C-0.09 51.19, 0.7 18.94, 0 0 M0 83.41 C0.28 61.48, 0.72 39.48, 0 0" stroke="#1e1e1e" stroke-width="1" fill="none"></path></g><g transform="translate(713.1890160696844 515.2620152064736) rotate(0 50.18993377685547 12.5)"><text x="50.18993377685547" y="0" font-family="Virgil, Segoe UI Emoji" font-size="20px" fill="#1e1e1e" text-anchor="middle" style="white-space: pre;" direction="ltr" dominant-baseline="text-before-edge">istio-proxy</text></g><g stroke-linecap="round"><g transform="translate(1070.4871913364955 527.4104330251743) rotate(0 -108.08497837611594 1.4849396380515714)"><path d="M0 0 C-66.92 0.82, -134.43 1.57, -216.17 2.97" stroke="#1e1e1e" stroke-width="1.5" fill="none" stroke-dasharray="8 9"></path></g><g transform="translate(1070.4871913364955 527.4104330251743) rotate(0 -108.08497837611594 1.4849396380515714)"><path d="M-188.14 -7.73 C-196.56 -4.41, -205.65 -1.29, -216.17 2.97" stroke="#1e1e1e" stroke-width="1.5" fill="none"></path></g><g transform="translate(1070.4871913364955 527.4104330251743) rotate(0 -108.08497837611594 1.4849396380515714)"><path d="M-187.82 12.79 C-196.35 9.73, -205.54 6.48, -216.17 2.97" stroke="#1e1e1e" stroke-width="1.5" fill="none"></path></g></g><mask></mask><g stroke-linecap="round" transform="translate(705.9389386858261 766.751578194755) rotate(0 76.71351841517856 41.70536586216514)"><path d="M0 0 C38.29 3.12, 76.15 0.48, 153.43 0 M0 0 C35.07 0.59, 72.04 0.95, 153.43 0 M153.43 0 C152.81 20.47, 153.39 38.87, 153.43 83.41 M153.43 0 C153.63 32.46, 153.7 62.34, 153.43 83.41 M153.43 83.41 C102.32 86.12, 50.23 83.85, 0 83.41 M153.43 83.41 C121.27 85.4, 89.72 84.7, 0 83.41 M0 83.41 C-1.68 53.92, 1.68 28.46, 0 0 M0 83.41 C0.17 58.48, 0.16 32.94, 0 0" stroke="#1e1e1e" stroke-width="1" fill="none"></path></g><g transform="translate(732.4625233241493 795.9569440569202) rotate(0 50.18993377685547 12.5)"><text x="50.18993377685547" y="0" font-family="Virgil, Segoe UI Emoji" font-size="20px" fill="#1e1e1e" text-anchor="middle" style="white-space: pre;" direction="ltr" dominant-baseline="text-before-edge">istio-proxy</text></g><g stroke-linecap="round"><g transform="translate(1089.2757306780131 801.9195157008558) rotate(0 -110.71437290736583 0.15780711183549556)"><path d="M0 0 C-46.96 0.36, -93.46 0.11, -221.43 0.32" stroke="#1e1e1e" stroke-width="1.5" fill="none" stroke-dasharray="8 9"></path></g><g transform="translate(1089.2757306780131 801.9195157008558) rotate(0 -110.71437290736583 0.15780711183549556)"><path d="M-193.25 -9.97 C-199.43 -7.58, -205.07 -5.77, -221.43 0.32" stroke="#1e1e1e" stroke-width="1.5" fill="none"></path></g><g transform="translate(1089.2757306780131 801.9195157008558) rotate(0 -110.71437290736583 0.15780711183549556)"><path d="M-193.23 10.55 C-199.41 8.61, -205.05 6.08, -221.43 0.32" stroke="#1e1e1e" stroke-width="1.5" fill="none"></path></g></g><mask></mask><g stroke-linecap="round"><g transform="translate(654.7138323102681 151.12753021262256) rotate(0 -211.87443324497787 326.5730465696044)"><path d="M0 0 C-106.88 165.74, -216.18 332.41, -423.75 653.15" stroke="#1e1e1e" stroke-width="1.5" fill="none" stroke-dasharray="8 9"></path></g><g transform="translate(654.7138323102681 151.12753021262256) rotate(0 -211.87443324497787 326.5730465696044)"><path d="M-417.02 623.91 C-416.77 632.43, -421.19 639.56, -423.75 653.15" stroke="#1e1e1e" stroke-width="1.5" fill="none"></path></g><g transform="translate(654.7138323102681 151.12753021262256) rotate(0 -211.87443324497787 326.5730465696044)"><path d="M-399.8 635.07 C-403.98 640.59, -412.79 644.87, -423.75 653.15" stroke="#1e1e1e" stroke-width="1.5" fill="none"></path></g></g><mask></mask><g stroke-linecap="round"><g transform="translate(695.8902413504466 806.095390202055) rotate(0 -231.30767822265636 -132.96258642136257)"><path d="M0 0 C-163.46 -95.47, -327.58 -189.17, -462.62 -265.93" stroke="#1e1e1e" stroke-width="1.5" fill="none" stroke-dasharray="8 9"></path></g><g transform="translate(695.8902413504466 806.095390202055) rotate(0 -231.30767822265636 -132.96258642136257)"><path d="M-433.04 -260.89 C-443.47 -263.99, -453.73 -264.05, -462.62 -265.93" stroke="#1e1e1e" stroke-width="1.5" fill="none"></path></g><g transform="translate(695.8902413504466 806.095390202055) rotate(0 -231.30767822265636 -132.96258642136257)"><path d="M-443.2 -243.06 C-449.9 -252.46, -456.56 -258.84, -462.62 -265.93" stroke="#1e1e1e" stroke-width="1.5" fill="none"></path></g></g><mask></mask><g stroke-linecap="round"><g transform="translate(693.3429827008933 795.0577489492649) rotate(0 -226.23125348772328 -232.38002765322642)"><path d="M0 0 C-125.94 -129.02, -252.2 -259.45, -452.46 -464.76" stroke="#1e1e1e" stroke-width="1.5" fill="none" stroke-dasharray="8 9"></path></g><g transform="translate(693.3429827008933 795.0577489492649) rotate(0 -226.23125348772328 -232.38002765322642)"><path d="M-425.44 -451.73 C-433.57 -453.36, -440.55 -458.26, -452.46 -464.76" stroke="#1e1e1e" stroke-width="1.5" fill="none"></path></g><g transform="translate(693.3429827008933 795.0577489492649) rotate(0 -226.23125348772328 -232.38002765322642)"><path d="M-440.14 -437.41 C-444.1 -443.06, -446.97 -451.96, -452.46 -464.76" stroke="#1e1e1e" stroke-width="1.5" fill="none"></path></g></g><mask></mask><g stroke-linecap="round" transform="translate(548.3755929129466 589.6466936383931) rotate(0 13.22592599051336 13.080575125558028)"><path d="M14 0 C16.87 2.83, 18.84 5.58, 26.45 14 M14 0 C17.21 3.51, 20.11 6.72, 26.45 14 M26.45 14 C23.19 16.7, 20.1 19.88, 14 26.16 M26.45 14 C23.22 17.38, 19.87 20.78, 14 26.16 M14 26.16 C10.86 23.31, 7.5 20.29, 0 14 M14 26.16 C10.69 23.51, 7.45 20.68, 0 14 M0 14 C5.47 9.09, 10.84 3.52, 14 0 M0 14 C3.94 9.83, 7.92 5.96, 14 0" stroke="#f08c00" stroke-width="1" fill="none"></path></g><g stroke-linecap="round" transform="translate(534.5844377790183 484.305637904576) rotate(0 13.22592599051336 13.080575125558028)"><path d="M14 0 C17.79 4.27, 20.98 8.11, 26.45 14 M14 0 C18.93 5.28, 23.78 10.96, 26.45 14 M26.45 14 C24.06 17.03, 20.71 19.01, 14 26.16 M26.45 14 C23.86 16.62, 21.08 19.32, 14 26.16 M14 26.16 C10.05 22.44, 6.02 18.55, 0 14 M14 26.16 C8.51 21.58, 3.14 16.77, 0 14 M0 14 C3.94 9.6, 7.97 6.12, 14 0 M0 14 C2.92 10.95, 5.93 8.21, 14 0" stroke="#1971c2" stroke-width="1" fill="none"></path></g><g stroke-linecap="round" transform="translate(475.27082170758945 483.99540492466565) rotate(0 13.22592599051336 13.080575125558028)"><path d="M14 0 C16.53 3.04, 19.9 6.55, 26.45 14 M14 0 C16.7 3.02, 19.11 6.14, 26.45 14 M26.45 14 C23.44 16.38, 20.6 19.29, 14 26.16 M26.45 14 C23.38 17.11, 20.02 20.41, 14 26.16 M14 26.16 C10.72 22.64, 7.24 19.95, 0 14 M14 26.16 C9.46 22.27, 4.8 18.32, 0 14 M0 14 C4.8 9.35, 9.82 3.64, 14 0 M0 14 C5.2 8.97, 10.67 3.32, 14 0" stroke="#1971c2" stroke-width="1" fill="none"></path></g><g stroke-linecap="round"><g transform="translate(668.2052176339284 327.3618027607531) rotate(0 -217.92384556361634 -88.63081085227054)"><path d="M0 0 C-117.6 -48.17, -234.97 -94.67, -435.85 -177.26" stroke="#1e1e1e" stroke-width="1.5" fill="none" stroke-dasharray="8 9"></path></g><g transform="translate(668.2052176339284 327.3618027607531) rotate(0 -217.92384556361634 -88.63081085227054)"><path d="M-405.87 -176.09 C-414.91 -177.17, -423.87 -175.12, -435.85 -177.26" stroke="#1e1e1e" stroke-width="1.5" fill="none"></path></g><g transform="translate(668.2052176339284 327.3618027607531) rotate(0 -217.92384556361634 -88.63081085227054)"><path d="M-413.64 -157.1 C-420.64 -163.26, -427.52 -166.31, -435.85 -177.26" stroke="#1e1e1e" stroke-width="1.5" fill="none"></path></g></g><mask></mask><g stroke-linecap="round" transform="translate(515.0397600446429 230.35701206752276) rotate(0 13.22592599051336 13.080575125558028)"><path d="M14 0 C17.41 4.06, 21.37 8.12, 26.45 14 M14 0 C18.17 4.85, 22.24 9.1, 26.45 14 M26.45 14 C23.81 16.35, 21.24 19.39, 14 26.16 M26.45 14 C22.57 17.63, 18.74 21.54, 14 26.16 M14 26.16 C10.99 23.3, 7.11 20.64, 0 14 M14 26.16 C9.33 22.35, 4.88 18.24, 0 14 M0 14 C5.04 8.7, 11.01 3.66, 14 0 M0 14 C4.92 9.2, 9.51 4.18, 14 0" stroke="#1971c2" stroke-width="1" fill="none"></path></g><g stroke-linecap="round" transform="translate(476.91162109375 333.53628976004495) rotate(0 13.22592599051336 13.080575125558028)"><path d="M14 0 C18.33 4.84, 22.88 9.94, 26.45 14 M14 0 C17.93 4.56, 21.94 9.22, 26.45 14 M26.45 14 C23.29 17.55, 19.7 20.36, 14 26.16 M26.45 14 C23.43 16.97, 20.68 19.82, 14 26.16 M14 26.16 C9.85 23.01, 6.2 19.09, 0 14 M14 26.16 C8.99 21.53, 3.55 16.88, 0 14 M0 14 C3.72 10.44, 7.31 6.95, 14 0 M0 14 C4.37 9.76, 8.66 5.45, 14 0" stroke="#1971c2" stroke-width="1" fill="none"></path></g><g stroke-linecap="round" transform="translate(444.1974748883929 180.52843366350487) rotate(0 13.22592599051336 13.080575125558028)"><path d="M14 0 C16.92 3.48, 20.72 7.51, 26.45 14 M14 0 C17.01 3.48, 20.27 7.12, 26.45 14 M26.45 14 C23.54 16.57, 20.43 19.35, 14 26.16 M26.45 14 C23.23 17.04, 19.72 20.36, 14 26.16 M14 26.16 C9.56 22.63, 5.57 18.93, 0 14 M14 26.16 C11.12 23.74, 8.2 21.08, 0 14 M0 14 C5.48 8.24, 11.32 3.01, 14 0 M0 14 C3.25 10.76, 6.26 7.81, 14 0" stroke="#1971c2" stroke-width="1" fill="none"></path></g><g stroke-linecap="round" transform="translate(453.848876953125 91.16197858537987) rotate(0 13.22592599051336 13.080575125558028)"><path d="M14 0 C17.92 4.97, 22.61 9.4, 26.45 14 M14 0 C18.76 5.03, 23.26 10.45, 26.45 14 M26.45 14 C21.83 18.73, 17.3 23.54, 14 26.16 M26.45 14 C22.11 18.18, 17.73 22.71, 14 26.16 M14 26.16 C8.28 21.71, 3.47 16.53, 0 14 M14 26.16 C8.79 21.79, 3.82 17.4, 0 14 M0 14 C4.32 9.02, 9.29 4.87, 14 0 M0 14 C4.55 9.74, 9.07 5.09, 14 0" stroke="#1971c2" stroke-width="1" fill="none"></path></g><g stroke-linecap="round" transform="translate(592.800903320313 641.2379237583709) rotate(0 13.22592599051336 13.080575125558028)"><path d="M14 0 C18.47 5.16, 22.24 9.67, 26.45 14 M14 0 C16.65 3.04, 19.19 6.28, 26.45 14 M26.45 14 C22.4 18.07, 18.59 21.67, 14 26.16 M26.45 14 C23.71 16.81, 20.86 19.47, 14 26.16 M14 26.16 C8.91 21.81, 4.25 17.52, 0 14 M14 26.16 C8.44 21.49, 3.14 16.82, 0 14 M0 14 C4.8 8.61, 10.23 3.49, 14 0 M0 14 C4.56 9.66, 8.88 5.18, 14 0" stroke="#f08c00" stroke-width="1" fill="none"></path></g><g stroke-linecap="round" transform="translate(401.1205182756696 598.7583269391744) rotate(0 13.22592599051336 13.080575125558028)"><path d="M14 0 C17.8 3.79, 21.73 8.04, 26.45 14 M14 0 C18.95 5.77, 23.86 11.28, 26.45 14 M26.45 14 C22.98 17.06, 19.42 20.39, 14 26.16 M26.45 14 C22.82 17.51, 19.01 21.23, 14 26.16 M14 26.16 C8.23 21.58, 3.29 16.93, 0 14 M14 26.16 C10.55 22.8, 6.55 19.87, 0 14 M0 14 C3.68 10.43, 7.19 6.38, 14 0 M0 14 C3.52 10.41, 6.78 7.28, 14 0" stroke="#f08c00" stroke-width="1" fill="none"></path></g><g stroke-linecap="round" transform="translate(456.3728550502233 635.7341221400673) rotate(0 13.22592599051336 13.080575125558028)"><path d="M14 0 C16.52 3.45, 19.69 6.75, 26.45 14 M14 0 C18.63 5.05, 23.44 10.55, 26.45 14 M26.45 14 C22.91 17.55, 19.43 21.24, 14 26.16 M26.45 14 C23.89 16.41, 21.43 18.89, 14 26.16 M14 26.16 C9.04 21.98, 3.44 17.14, 0 14 M14 26.16 C9.83 22.46, 5.5 18.7, 0 14 M0 14 C5.72 8.74, 10.38 3.52, 14 0 M0 14 C4.39 9.91, 8.16 5.5, 14 0" stroke="#f08c00" stroke-width="1" fill="none"></path></g><g stroke-linecap="round" transform="translate(427.61404854910757 774.4258771623888) rotate(0 13.22592599051336 13.080575125558028)"><path d="M14 0 C18.46 4.74, 22.86 9.92, 26.45 14 M14 0 C17.06 3.3, 19.94 6.46, 26.45 14 M26.45 14 C21.3 19.19, 16.78 23.91, 14 26.16 M26.45 14 C23.52 17.15, 20.4 19.85, 14 26.16 M14 26.16 C10.07 22.42, 5.77 18.7, 0 14 M14 26.16 C9.05 21.77, 4.16 17.54, 0 14 M0 14 C4.08 9.73, 8.13 6.66, 14 0 M0 14 C4.97 8.88, 9.68 4.07, 14 0" stroke="#f08c00" stroke-width="1" fill="none"></path></g></svg>