<svg version="1.1" xmlns="http://www.w3.org/2000/svg" viewBox="0 0 815.752694266183 597.1569039481026" width="1631.505388532366" height="1194.3138078962052">
  <!-- svg-source:excalidraw -->
  
  <defs>
    <style class="style-fonts">
      @font-face {
        font-family: "Virgil";
        src: url("https://excalidraw.com/Virgil.woff2");
      }
      @font-face {
        font-family: "Cascadia";
        src: url("https://excalidraw.com/Cascadia.woff2");
      }
    </style>
    
  </defs>
  <g stroke-linecap="round" transform="translate(10 24.40768432617176) rotate(0 76.41241455078125 79.64028930664062)"><path d="M32 0 M32 0 C55.44 1.02, 78.11 -0.41, 120.82 0 M32 0 C58.2 -0.9, 84.42 -0.12, 120.82 0 M120.82 0 C141.42 0.72, 151.81 10.11, 152.82 32 M120.82 0 C141.66 -1.56, 154.96 12.15, 152.82 32 M152.82 32 C152.33 56.43, 151.19 76.99, 152.82 127.28 M152.82 32 C153.25 63.85, 153.33 94.89, 152.82 127.28 M152.82 127.28 C151.68 147.66, 142.16 159.85, 120.82 159.28 M152.82 127.28 C152.62 146.91, 141.64 157.69, 120.82 159.28 M120.82 159.28 C92.98 159.15, 64.24 157.62, 32 159.28 M120.82 159.28 C100.6 160.29, 82.7 159.2, 32 159.28 M32 159.28 C9.34 160.2, 1.03 149.49, 0 127.28 M32 159.28 C8.75 160.59, 1.68 149.67, 0 127.28 M0 127.28 C0.71 94.97, -0.68 62.79, 0 32 M0 127.28 C1.03 101.19, 1.13 73.35, 0 32 M0 32 C1.93 10.1, 11.77 -0.22, 32 0 M0 32 C-0.34 8.9, 10.09 -1.21, 32 0" stroke="#1e1e1e" stroke-width="1" fill="none"></path></g><g transform="translate(64.25243377685547 91.54797363281239) rotate(0 22.15998077392578 12.5)"><text x="22.15998077392578" y="0" font-family="Virgil, Segoe UI Emoji" font-size="20px" fill="#1e1e1e" text-anchor="middle" style="white-space: pre;" direction="ltr" dominant-baseline="text-before-edge">nginx</text></g><g stroke-linecap="round" transform="translate(12.253513881138588 225.60154506138394) rotate(0 76.41241455078125 79.64028930664062)"><path d="M32 0 M32 0 C49.18 1.67, 70.53 0.24, 120.82 0 M32 0 C49.5 -1.61, 67.43 -1.36, 120.82 0 M120.82 0 C140.17 0.23, 154.66 12.02, 152.82 32 M120.82 0 C140.6 0.76, 152.71 10.46, 152.82 32 M152.82 32 C152.85 54.42, 151.04 79.79, 152.82 127.28 M152.82 32 C152.25 58.3, 152.91 84.39, 152.82 127.28 M152.82 127.28 C150.95 146.94, 143.05 158.35, 120.82 159.28 M152.82 127.28 C154.93 148.34, 140.54 160.68, 120.82 159.28 M120.82 159.28 C89 159.83, 55.29 159.13, 32 159.28 M120.82 159.28 C90.45 158.7, 60.83 158.92, 32 159.28 M32 159.28 C9.47 158.6, 1.14 150.4, 0 127.28 M32 159.28 C12.29 159.11, 1.77 150.15, 0 127.28 M0 127.28 C-1.14 107.94, -0.54 85.09, 0 32 M0 127.28 C-0.84 104.88, -0.61 82.42, 0 32 M0 32 C-1.66 11.76, 12.57 1.18, 32 0 M0 32 C1.24 11.83, 10.92 -0.79, 32 0" stroke="#1e1e1e" stroke-width="1" fill="none"></path></g><g transform="translate(66.50594765799406 292.74183436802457) rotate(0 22.15998077392578 12.5)"><text x="22.15998077392578" y="0" font-family="Virgil, Segoe UI Emoji" font-size="20px" fill="#1e1e1e" text-anchor="middle" style="white-space: pre;" direction="ltr" dominant-baseline="text-before-edge">nginx</text></g><g stroke-linecap="round" transform="translate(12.891156877790081 427.87632533482133) rotate(0 76.41241455078125 79.64028930664062)"><path d="M32 0 M32 0 C48.94 -2.53, 66.74 -2.04, 120.82 0 M32 0 C50.48 -1.49, 67.95 -0.86, 120.82 0 M120.82 0 C141.98 -0.9, 151.24 9.54, 152.82 32 M120.82 0 C143.06 -2.14, 151.65 9.76, 152.82 32 M152.82 32 C152.17 58.25, 153.5 84.09, 152.82 127.28 M152.82 32 C151.56 52.56, 151.91 70.58, 152.82 127.28 M152.82 127.28 C154.04 149.81, 143.92 158.51, 120.82 159.28 M152.82 127.28 C153 149.64, 140.34 159.5, 120.82 159.28 M120.82 159.28 C90.1 157.94, 60.89 158.38, 32 159.28 M120.82 159.28 C100.39 160.49, 78.09 160.56, 32 159.28 M32 159.28 C12 157.53, -0.79 146.76, 0 127.28 M32 159.28 C8.92 160.3, -1.06 146.61, 0 127.28 M0 127.28 C-1.04 104.9, -0.59 82.4, 0 32 M0 127.28 C0.07 107.14, -0.01 86.04, 0 32 M0 32 C-0.69 11.52, 10.21 0.76, 32 0 M0 32 C1 11.98, 11.77 1.97, 32 0" stroke="#1e1e1e" stroke-width="1" fill="none"></path></g><g transform="translate(67.14359065464555 495.01661464146196) rotate(0 22.15998077392578 12.5)"><text x="22.15998077392578" y="0" font-family="Virgil, Segoe UI Emoji" font-size="20px" fill="#1e1e1e" text-anchor="middle" style="white-space: pre;" direction="ltr" dominant-baseline="text-before-edge">nginx</text></g><g stroke-linecap="round" transform="translate(631.0586199079239 10) rotate(0 76.41241455078125 79.64028930664062)"><path d="M32 0 M32 0 C57.78 -2, 82.38 -2.05, 120.82 0 M32 0 C58.35 -0.17, 84.33 -0.48, 120.82 0 M120.82 0 C143.15 -1.46, 153.42 10.26, 152.82 32 M120.82 0 C144.06 -2.04, 150.99 9.06, 152.82 32 M152.82 32 C151.69 64.59, 154.4 92.83, 152.82 127.28 M152.82 32 C151.75 52.12, 152.83 72.87, 152.82 127.28 M152.82 127.28 C153.09 149.14, 140.84 160.93, 120.82 159.28 M152.82 127.28 C154.18 147.02, 144.03 158.85, 120.82 159.28 M120.82 159.28 C89.86 160.47, 57.31 159.39, 32 159.28 M120.82 159.28 C89.6 159.91, 58.66 159.56, 32 159.28 M32 159.28 C9.98 158.82, -0.4 148.84, 0 127.28 M32 159.28 C12.93 157.2, -0.21 148.4, 0 127.28 M0 127.28 C0.8 94.32, -0.61 58.08, 0 32 M0 127.28 C-0.88 106.54, -1.44 84.3, 0 32 M0 32 C1 10.33, 11.17 -0.71, 32 0 M0 32 C-2.18 10.88, 9.03 1.22, 32 0" stroke="#1e1e1e" stroke-width="1" fill="none"></path></g><g transform="translate(681.8410600934708 77.14028930664062) rotate(0 25.629974365234375 12.5)"><text x="25.629974365234375" y="0" font-family="Virgil, Segoe UI Emoji" font-size="20px" fill="#1e1e1e" text-anchor="middle" style="white-space: pre;" direction="ltr" dominant-baseline="text-before-edge">client</text></g><g stroke-linecap="round"><g transform="translate(623.7794538225446 90.75411380357167) rotate(0 -223.32636180856605 1.4624531249351094)"><path d="M0.58 0.29 C-167.04 1.81, -335.08 2.97, -447.23 2.54" stroke="#1e1e1e" stroke-width="1.5" fill="none" stroke-dasharray="8 9"></path></g><g transform="translate(623.7794538225446 90.75411380357167) rotate(0 -223.32636180856605 1.4624531249351094)"><path d="M-417.85 -7.12 C-428.92 -3.62, -440.87 0.27, -445.3 1.53" stroke="#1e1e1e" stroke-width="1.5" fill="none"></path></g><g transform="translate(623.7794538225446 90.75411380357167) rotate(0 -223.32636180856605 1.4624531249351094)"><path d="M-417.85 13.4 C-428.97 9.24, -440.93 5.47, -445.3 1.53" stroke="#1e1e1e" stroke-width="1.5" fill="none"></path></g></g><mask></mask><g stroke-linecap="round" transform="translate(640.5933576311384 213.84364536830356) rotate(0 76.41241455078125 79.64028930664062)"><path d="M32 0 M32 0 C56.41 0.83, 83.97 -1.48, 120.82 0 M32 0 C59.93 1, 88.3 -0.56, 120.82 0 M120.82 0 C141.47 -1.54, 153.14 12.54, 152.82 32 M120.82 0 C141.87 -0.66, 151.04 10.5, 152.82 32 M152.82 32 C153.85 67.27, 153.26 102.2, 152.82 127.28 M152.82 32 C152.8 54.49, 152.1 77.88, 152.82 127.28 M152.82 127.28 C152.51 147.24, 142.79 158.36, 120.82 159.28 M152.82 127.28 C154.75 150.86, 140.03 158.31, 120.82 159.28 M120.82 159.28 C89.68 157.35, 59.52 157.56, 32 159.28 M120.82 159.28 C101.79 159.26, 82.43 158.66, 32 159.28 M32 159.28 C12.26 160.81, 1.05 149.29, 0 127.28 M32 159.28 C12.12 159.38, -0.02 149.73, 0 127.28 M0 127.28 C0.87 106.28, -1.1 85.17, 0 32 M0 127.28 C-0.19 100.64, -0.5 74.55, 0 32 M0 32 C1.89 12.45, 11.27 -0.69, 32 0 M0 32 C-1.88 10.51, 9.72 0.13, 32 0" stroke="#1e1e1e" stroke-width="1" fill="none"></path></g><g transform="translate(691.3757978166852 280.9839346749442) rotate(0 25.629974365234375 12.5)"><text x="25.629974365234375" y="0" font-family="Virgil, Segoe UI Emoji" font-size="20px" fill="#1e1e1e" text-anchor="middle" style="white-space: pre;" direction="ltr" dominant-baseline="text-before-edge">client</text></g><g stroke-linecap="round"><g transform="translate(625.7672816685267 300.84254429683244) rotate(0 -228.4436457322273 0.1042876849141976)"><path d="M-0.12 -0.55 C-92.9 -0.86, -186.54 -1.92, -456.77 1.18" stroke="#1e1e1e" stroke-width="1.5" fill="none" stroke-dasharray="8 9"></path></g><g transform="translate(625.7672816685267 300.84254429683244) rotate(0 -228.4436457322273 0.1042876849141976)"><path d="M-428.92 -10.49 C-433.55 -5.76, -439.94 -6.27, -455.27 1.69" stroke="#1e1e1e" stroke-width="1.5" fill="none"></path></g><g transform="translate(625.7672816685267 300.84254429683244) rotate(0 -228.4436457322273 0.1042876849141976)"><path d="M-428.74 10.03 C-433.27 10.58, -439.69 5.88, -455.27 1.69" stroke="#1e1e1e" stroke-width="1.5" fill="none"></path></g></g><mask></mask><g stroke-linecap="round" transform="translate(652.9278651646205 417.97681535993297) rotate(0 76.41241455078125 79.64028930664062)"><path d="M32 0 M32 0 C66.73 -0.17, 99.88 2.05, 120.82 0 M32 0 C63.8 -0.45, 94.43 1.13, 120.82 0 M120.82 0 C143.33 -1.71, 153.63 12.27, 152.82 32 M120.82 0 C143.5 1.19, 151.18 10.69, 152.82 32 M152.82 32 C151.49 61.6, 151.75 89.77, 152.82 127.28 M152.82 32 C154.51 67.34, 152.74 101.83, 152.82 127.28 M152.82 127.28 C153.7 148.3, 141.33 160.91, 120.82 159.28 M152.82 127.28 C155.12 148.28, 142.27 159.58, 120.82 159.28 M120.82 159.28 C89.01 161.58, 56.47 162.07, 32 159.28 M120.82 159.28 C88.34 159.3, 55.13 160.89, 32 159.28 M32 159.28 C9.87 159.28, -0.67 150.37, 0 127.28 M32 159.28 C11.93 157.91, -0.22 148.9, 0 127.28 M0 127.28 C1.76 105.04, 1.35 85.45, 0 32 M0 127.28 C-1.15 106.56, 0.55 85.58, 0 32 M0 32 C1.64 10.46, 8.69 -1.9, 32 0 M0 32 C2.14 11.37, 9.65 -1.09, 32 0" stroke="#1e1e1e" stroke-width="1" fill="none"></path></g><g transform="translate(703.7103053501673 485.1171046665736) rotate(0 25.629974365234375 12.5)"><text x="25.629974365234375" y="0" font-family="Virgil, Segoe UI Emoji" font-size="20px" fill="#1e1e1e" text-anchor="middle" style="white-space: pre;" direction="ltr" dominant-baseline="text-before-edge">client</text></g><g stroke-linecap="round"><g transform="translate(646.7299682259008 500.4068541518725) rotate(0 -233.93126371875877 -0.32699079592134694)"><path d="M0.18 -0.01 C-127.97 -1.1, -254.51 -0.49, -468.04 -0.34" stroke="#1e1e1e" stroke-width="1.5" fill="none" stroke-dasharray="8 9"></path></g><g transform="translate(646.7299682259008 500.4068541518725) rotate(0 -233.93126371875877 -0.32699079592134694)"><path d="M-439.47 -10.65 C-449.34 -9.67, -455.66 -5.44, -468.27 -0.68" stroke="#1e1e1e" stroke-width="1.5" fill="none"></path></g><g transform="translate(646.7299682259008 500.4068541518725) rotate(0 -233.93126371875877 -0.32699079592134694)"><path d="M-439.44 9.87 C-449.3 5.27, -455.62 3.93, -468.27 -0.68" stroke="#1e1e1e" stroke-width="1.5" fill="none"></path></g></g><mask></mask><g stroke-linecap="round" transform="translate(240.8180280412946 43.90115356445301) rotate(0 9.88311767578125 9.3017578125)"><path d="M9.78 0.86 C13.5 4.79, 16.99 7.91, 19.34 9.15 M10.14 -0.36 C12.81 3.05, 16.7 6.79, 20.17 9.54 M19.93 9.1 C16.01 11.93, 15.63 15.45, 9.67 19.29 M19.77 10.41 C17 12.25, 13.16 14.91, 9.75 18.14 M11.2 19.39 C7.23 16.57, 1.66 12.37, 1.31 11.03 M10.4 19.07 C7.15 15.71, 3.43 12.85, -0.58 9.48 M-0.54 9.05 C0.77 9.12, 3.76 6.48, 9.56 -0.69 M-0.42 10.42 C2.7 7.36, 4.88 4.78, 10.21 0.31" stroke="#1e1e1e" stroke-width="1" fill="none"></path></g><g stroke-linecap="round" transform="translate(348.4194771902901 48.81988961356018) rotate(0 9.88311767578125 9.3017578125)"><path d="M9.84 0.05 C11.41 4.14, 14.73 5.51, 21.15 9.76 M9.74 -0.52 C12.74 3.78, 15.89 6.32, 20.46 10.51 M19.72 11.13 C17 12.67, 13.57 15.33, 10.15 19.1 M20.25 9.56 C17.9 12.1, 15.6 14.48, 9.99 18.97 M10.53 19.12 C7.22 15.6, 4.35 12.17, -1.18 9.04 M10.3 18.5 C6.29 14.85, 2.05 11.61, -0.05 10.53 M0.4 9.26 C4.33 7.69, 7.16 2.84, 9.16 -0.98 M-0.51 10.31 C3.06 7.22, 5.75 3.28, 10.38 -0.63" stroke="#1e1e1e" stroke-width="1" fill="none"></path></g><g stroke-linecap="round" transform="translate(543.6305716378349 45.09068516322532) rotate(0 9.88311767578125 9.3017578125)"><path d="M11.07 0.37 C11.62 3.26, 14.66 5.34, 18.81 9.18 M10.2 -0.21 C12.05 2.44, 14.16 5.06, 20.24 10.27 M19.81 9.2 C17.32 11.2, 15.26 14.29, 10.48 17.92 M19.78 9.84 C18.17 12.03, 15.9 13.81, 9.9 18.56 M10.22 17.49 C5.97 15.06, 1.57 13.04, -0.31 11.09 M10.05 18.65 C7.09 16.18, 3.6 13.2, -0.64 10.29 M0.9 9.35 C3.41 7.41, 5.81 2.39, 9.58 1.34 M-0.44 9.59 C2.18 7.08, 5.28 5.61, 10.01 -0.69" stroke="#1e1e1e" stroke-width="1" fill="none"></path></g><g stroke-linecap="round" transform="translate(222.7745753696986 255.00567190987715) rotate(0 9.88311767578125 9.3017578125)"><path d="M10.44 -0.18 C10.8 2.45, 15.16 5.61, 19.8 10.31 M9.42 0.57 C12.67 3.99, 16.48 7.31, 19.58 10.6 M18.54 10.65 C16.9 10.91, 15.26 13.22, 8.9 19.81 M19.25 10.5 C16.36 13.22, 14.48 15.09, 10.1 18.12 M9.55 18.63 C6.6 17.55, 6.64 14.13, -1.29 10.61 M9.61 18.35 C7.66 15.54, 4.01 13.41, -0.26 10.43 M-0.15 9 C4.59 6.71, 7.83 3.66, 9.46 0.98 M0.62 10.52 C2.76 6.95, 4.59 4.81, 9.89 -0.7" stroke="#1e1e1e" stroke-width="1" fill="none"></path></g><g stroke-linecap="round" transform="translate(272.5558515276225 255.75557599748868) rotate(0 9.88311767578125 9.3017578125)"><path d="M8.61 0.16 C13.99 4.35, 16.59 6.99, 20.36 9.29 M9.37 0.53 C12.44 3.11, 15.11 6.03, 19.13 10.69 M18.85 9.03 C15.39 12.92, 11.03 17.91, 9.93 19.2 M19.2 10.65 C16.84 12.96, 13.21 15.41, 9.5 19.03 M8.88 19.44 C7.87 15.09, 2.12 13.52, -0.25 9.16 M10.42 18.06 C7.6 16.56, 5.72 15.49, 0.33 9.6 M1.02 10.2 C3.59 7.9, 5.11 5.41, 9.23 -1.37 M0.21 9.44 C2.79 6.38, 6.41 2.62, 10.16 0.54" stroke="#1e1e1e" stroke-width="1" fill="none"></path></g><g stroke-linecap="round" transform="translate(315.31368146623845 255.56418718610485) rotate(0 9.88311767578125 9.3017578125)"><path d="M10.7 1 C12.74 3.16, 16.1 5.02, 19.42 8.84 M9.84 0.43 C13.45 4.35, 16.73 8.25, 20.37 9.34 M19.25 9.54 C15.19 14.15, 12.8 16.55, 10.49 17.56 M20.21 9.98 C16.11 12.86, 11.82 17.01, 10.2 18.38 M11.15 17.93 C5.76 16.67, 3.79 12.63, -1.27 9.21 M9.58 18.35 C7.07 16.7, 5.06 13.63, -0.12 9.93 M0.76 10.65 C1.68 8.67, 3.74 4.03, 10.43 1.25 M-0.42 9.76 C3.59 5.65, 7.59 3.16, 9.68 0.4" stroke="#1e1e1e" stroke-width="1" fill="none"></path></g><g stroke-linecap="round" transform="translate(357.0329546247208 253.86976405552446) rotate(0 9.88311767578125 9.3017578125)"><path d="M10.04 0.31 C13.69 2.33, 15.79 5, 20.91 8.74 M9.81 0.6 C13.02 4.39, 17.94 6.81, 20.12 9.51 M18.67 11.2 C17.47 12.5, 15.82 12.8, 11.01 17.47 M19.87 9.52 C15.42 13.86, 12.22 16.65, 10.01 18.05 M8.71 19.21 C6.05 14.58, 1.39 11.52, -0.51 10.84 M9.74 19.03 C8.21 16.29, 5.59 14.75, -0.47 10.48 M-0.54 10.98 C2.32 5.44, 6.65 4.92, 11.03 0.42 M-0.11 9.3 C2.43 8.36, 4.16 6.02, 10.43 -0.16" stroke="#1e1e1e" stroke-width="1" fill="none"></path></g><g stroke-linecap="round" transform="translate(398.3753356933596 254.05273873465393) rotate(0 9.88311767578125 9.3017578125)"><path d="M8.85 0.69 C11.88 2.21, 14.21 5.79, 18.91 9.25 M10.08 -0.41 C12.06 2.15, 14.45 5.25, 19.71 9.38 M18.8 11.11 C16.88 11.75, 16.7 13.84, 11.03 18.19 M19.17 10.5 C17.26 11.84, 15.11 14.84, 9.83 18.75 M10.27 17.36 C5.47 14.3, 3.55 11.14, 0.83 9.99 M10.23 18.2 C7.06 16.4, 5.17 15.37, -0.63 9.6 M1.4 9.68 C3.71 8.45, 5.55 6.46, 10.13 0.11 M0.6 9.91 C2.16 8.05, 3.94 5.54, 9.58 -0.15" stroke="#1e1e1e" stroke-width="1" fill="none"></path></g><g stroke-linecap="round" transform="translate(448.1566118512835 254.80264282226545) rotate(0 9.88311767578125 9.3017578125)"><path d="M9.14 -0.64 C11.81 3.32, 15.55 5.85, 18.88 9.49 M9.79 -0.31 C11.91 2.57, 14.03 3.6, 19.13 10.43 M18.86 10.03 C18.44 12.35, 16.28 13.59, 9.37 19.47 M19.66 9.74 C17.57 12.69, 14.88 14.3, 10.48 18.26 M9.17 17.46 C7.32 14.27, 3.49 12.2, -0.96 10.44 M9.36 18.3 C6.18 16.14, 2.28 12.07, -0.38 10.02 M1.29 10.82 C3.04 8.84, 4.92 5.25, 8.95 -1.01 M-0.16 10.34 C2.58 6.8, 6.1 3.26, 10.19 -0.67" stroke="#1e1e1e" stroke-width="1" fill="none"></path></g><g stroke-linecap="round" transform="translate(490.91444178989946 254.61125401088162) rotate(0 9.88311767578125 9.3017578125)"><path d="M8.64 0.05 C12.5 2.79, 15.88 6.52, 18.49 10.16 M9.86 0.43 C12.27 1.83, 14.05 5.3, 19.26 9.48 M20.73 10.31 C16.97 12.9, 11.55 17.5, 9.19 17.4 M19.96 10.57 C15.91 13.34, 12.88 16.09, 10.43 18.74 M11 17.52 C8.83 16.74, 4.98 15.42, 0.7 10.46 M9.74 19.23 C7.06 16.1, 4.93 14.47, -0.37 10.65 M0.7 11.26 C2.82 7.28, 4.41 3.38, 10.43 1.21 M-0.64 10.09 C2.48 6.94, 5.95 3.54, 9.71 -0.27" stroke="#1e1e1e" stroke-width="1" fill="none"></path></g><g stroke-linecap="round" transform="translate(532.6337149483818 252.91683088030123) rotate(0 9.88311767578125 9.3017578125)"><path d="M9.14 -0.75 C11.5 2.02, 13.58 5.24, 18.95 9.58 M9.95 -0.62 C11.84 2.93, 14.47 4.54, 20.36 9.52 M20.79 9.58 C16.25 13.48, 13.12 14.02, 10.99 18.39 M19.6 10.14 C17.74 11.98, 15.14 14.7, 9.39 18.19 M10.83 18.59 C6.84 17.13, 6.37 15.31, -0.81 8.71 M9.37 18.2 C7.11 16.53, 4.58 14.97, -0.15 10.6 M0.13 10.11 C2.48 5.32, 7.54 3.96, 9.81 -0.33 M-0.42 9.85 C3.76 5.83, 6.76 2.75, 9.38 0.63" stroke="#1e1e1e" stroke-width="1" fill="none"></path></g><g stroke-linecap="round" transform="translate(236.76679774693025 444.094707696516) rotate(0 10.023338939552389 9.433730766637552)"><path d="M11.17 -1.29 C12.72 3.93, 15.77 4.54, 19.25 9.04 M11.2 -0.23 C14.26 3.77, 17.66 7.66, 19.81 10.21 M19.29 10.11 C18.8 11.32, 17.4 13.67, 10.27 18.87 M19.87 9.8 C17.56 13.3, 13.93 15.4, 11.58 19.1 M9.97 19.66 C7.02 13.96, 1.34 11.17, -0.47 9.1 M10.32 18.53 C7.42 17.1, 5.35 14.29, -0.11 10.08 M0.73 9.8 C2.66 6.32, 5.76 5.08, 9.75 1.17 M0.09 10.2 C3.88 5.78, 7.87 2.82, 10.75 0.37" stroke="#1e1e1e" stroke-width="1" fill="none"></path></g><g stroke-linecap="round" transform="translate(434.70126800081744 47.48992110483886) rotate(0 10.023338939552332 9.433730766637524)"><path d="M10.1 1.08 C13.96 2.66, 17.1 6.73, 20.87 10.99 M10.92 0.18 C14 3.71, 16.62 6.68, 19.45 10.54 M20.64 9.42 C18.07 12.87, 13.21 15.94, 11.42 18.52 M20.6 10.28 C16.66 12.63, 13.99 16.68, 11.61 18.25 M11.3 17.51 C7.15 15.97, 4.81 13.36, -0.29 10.04 M10.5 19.5 C7.52 15.83, 2.82 12.32, -0.5 9.84 M0.11 8.55 C3.31 7.19, 4.06 6.32, 12.07 0.68 M-0.17 9.52 C3.16 7.11, 6.62 4.08, 10.38 0.42" stroke="#1e1e1e" stroke-width="1" fill="none"></path></g><g stroke-linecap="round" transform="translate(588.8507010551627 452.20912824358265) rotate(0 10.023338939552332 9.433730766637552)"><path d="M10.2 -0.96 C15.23 4.88, 18.14 8.08, 19.6 9.84 M10.76 0.21 C13.36 3.74, 17.15 6.07, 20.11 10.32 M19.31 10.01 C18.25 11.9, 16.35 14.15, 10.6 19.97 M20.62 10.23 C17.53 12.35, 13.57 15.56, 11.36 19 M10.53 17.97 C8.53 17.05, 7.57 13.83, -0.67 8.99 M10.89 18.95 C6.15 15.29, 1.96 12.34, -0.1 10.05 M-1.25 11.17 C3.25 8.69, 4.6 6.16, 11.4 -0.33 M-0.25 10.37 C2 8.03, 5.44 5.62, 10.82 0.52" stroke="#1e1e1e" stroke-width="1" fill="none"></path></g></svg>