<svg version="1.1" xmlns="http://www.w3.org/2000/svg" viewBox="0 0 847.0840279715404 658.5579223632814" width="847.0840279715404" height="658.5579223632814">
  <!-- svg-source:excalidraw -->
  
  <defs>
    <style class="style-fonts">
      @font-face {
        font-family: "Virgil";
        src: url("https://excalidraw.com/Virgil.woff2");
      }
      @font-face {
        font-family: "Cascadia";
        src: url("https://excalidraw.com/Cascadia.woff2");
      }
      @font-face {
        font-family: "Assistant";
        src: url("https://excalidraw.com/Assistant-Regular.woff2");
      }
    </style>
    
  </defs>
  <g stroke-linecap="round" transform="translate(10 235.61000714983254) rotate(0 76.41241455078125 79.64028930664062)"><path d="M32 0 C49.18 1.67, 70.53 0.24, 120.82 0 M32 0 C49.5 -1.61, 67.43 -1.36, 120.82 0 M120.82 0 C140.17 0.23, 154.66 12.02, 152.82 32 M120.82 0 C140.6 0.76, 152.71 10.46, 152.82 32 M152.82 32 C152.85 54.42, 151.04 79.79, 152.82 127.28 M152.82 32 C152.25 58.3, 152.91 84.39, 152.82 127.28 M152.82 127.28 C150.95 146.94, 143.05 158.35, 120.82 159.28 M152.82 127.28 C154.93 148.34, 140.54 160.68, 120.82 159.28 M120.82 159.28 C89 159.83, 55.29 159.13, 32 159.28 M120.82 159.28 C90.45 158.7, 60.83 158.92, 32 159.28 M32 159.28 C9.47 158.6, 1.14 150.4, 0 127.28 M32 159.28 C12.29 159.11, 1.77 150.15, 0 127.28 M0 127.28 C-1.14 107.94, -0.54 85.09, 0 32 M0 127.28 C-0.84 104.88, -0.61 82.42, 0 32 M0 32 C-1.66 11.76, 12.57 1.18, 32 0 M0 32 C1.24 11.83, 10.92 -0.79, 32 0" stroke="#1e1e1e" stroke-width="1" fill="none"></path></g><g transform="translate(64.25243377685547 302.75029645647317) rotate(0 22.15998077392578 12.5)"><text x="22.15998077392578" y="0" font-family="Virgil, Segoe UI Emoji" font-size="20px" fill="#1e1e1e" text-anchor="middle" style="white-space: pre;" direction="ltr" dominant-baseline="text-before-edge">server</text></g><g stroke-linecap="round" transform="translate(680.7314801897322 239.3430568150111) rotate(0 76.41241455078125 79.64028930664062)"><path d="M32 0 C56.41 0.83, 83.97 -1.48, 120.82 0 M32 0 C59.93 1, 88.3 -0.56, 120.82 0 M120.82 0 C141.47 -1.54, 153.14 12.54, 152.82 32 M120.82 0 C141.87 -0.66, 151.04 10.5, 152.82 32 M152.82 32 C153.85 67.27, 153.26 102.2, 152.82 127.28 M152.82 32 C152.8 54.49, 152.1 77.88, 152.82 127.28 M152.82 127.28 C152.51 147.24, 142.79 158.36, 120.82 159.28 M152.82 127.28 C154.75 150.86, 140.03 158.31, 120.82 159.28 M120.82 159.28 C89.68 157.35, 59.52 157.56, 32 159.28 M120.82 159.28 C101.79 159.26, 82.43 158.66, 32 159.28 M32 159.28 C12.26 160.81, 1.05 149.29, 0 127.28 M32 159.28 C12.12 159.38, -0.02 149.73, 0 127.28 M0 127.28 C0.87 106.28, -1.1 85.17, 0 32 M0 127.28 C-0.19 100.64, -0.5 74.55, 0 32 M0 32 C1.89 12.45, 11.27 -0.69, 32 0 M0 32 C-1.88 10.51, 9.72 0.13, 32 0" stroke="#1e1e1e" stroke-width="1" fill="none"></path></g><g transform="translate(731.5139203752791 306.4833461216517) rotate(0 25.629974365234375 12.5)"><text x="25.629974365234375" y="0" font-family="Virgil, Segoe UI Emoji" font-size="20px" fill="#1e1e1e" text-anchor="middle" style="white-space: pre;" direction="ltr" dominant-baseline="text-before-edge">client</text></g><g stroke-linecap="round"><g transform="translate(516.7115480894485 324.7173293383745) rotate(0 -107.916277204241 -0.03741763716442392)"><path d="M0 0 C-63.56 0.35, -128.06 -1.85, -215.83 -0.07" stroke="#1e1e1e" stroke-width="1.5" fill="none" stroke-dasharray="8 9"></path></g><g transform="translate(516.7115480894485 324.7173293383745) rotate(0 -107.916277204241 -0.03741763716442392)"><path d="M-187.74 -10.6 C-195.91 -6.4, -205.11 -5.79, -215.83 -0.07" stroke="#1e1e1e" stroke-width="1.5" fill="none"></path></g><g transform="translate(516.7115480894485 324.7173293383745) rotate(0 -107.916277204241 -0.03741763716442392)"><path d="M-187.55 9.92 C-195.68 8.06, -204.94 2.62, -215.83 -0.07" stroke="#1e1e1e" stroke-width="1.5" fill="none"></path></g></g><mask></mask><g stroke-linecap="round" transform="translate(215.17815290178555 283.6793518066406) rotate(0 36.83984375 33.654296875)"><path d="M16.83 0 C30.53 -1.42, 48.55 1.69, 56.85 0 M16.83 0 C25.06 -0.05, 34.37 -0.71, 56.85 0 M56.85 0 C67.11 -0.45, 73.44 4.5, 73.68 16.83 M56.85 0 C69.94 0.7, 73.57 6.47, 73.68 16.83 M73.68 16.83 C75.58 29.02, 73.47 44.89, 73.68 50.48 M73.68 16.83 C73.93 28.5, 73.09 38.31, 73.68 50.48 M73.68 50.48 C73.61 63.07, 66.79 67.56, 56.85 67.31 M73.68 50.48 C71.91 61.27, 65.88 69.34, 56.85 67.31 M56.85 67.31 C48.4 67.77, 38.23 67.46, 16.83 67.31 M56.85 67.31 C49.52 67.71, 41.5 66.87, 16.83 67.31 M16.83 67.31 C4.19 66.52, -1.05 60.29, 0 50.48 M16.83 67.31 C5.96 68.48, -2.29 59.6, 0 50.48 M0 50.48 C-1.62 40.01, -0.93 30.84, 0 16.83 M0 50.48 C-0.73 39.7, 0.5 29.15, 0 16.83 M0 16.83 C1.81 7.54, 4.61 1.93, 16.83 0 M0 16.83 C1.94 5.2, 3.8 -0.6, 16.83 0" stroke="#1e1e1e" stroke-width="1" fill="none"></path></g><g transform="translate(226.90803418840665 292.3336486816406) rotate(0 25.109962463378906 25)"><text x="25.109962463378906" y="0" font-family="Virgil, Segoe UI Emoji" font-size="20px" fill="#1e1e1e" text-anchor="middle" style="white-space: pre;" direction="ltr" dominant-baseline="text-before-edge">istio-</text><text x="25.109962463378906" y="25" font-family="Virgil, Segoe UI Emoji" font-size="20px" fill="#1e1e1e" text-anchor="middle" style="white-space: pre;" direction="ltr" dominant-baseline="text-before-edge">proxy</text></g><g stroke-linecap="round" transform="translate(528.1820591517854 288.4195861816406) rotate(0 36.83984375 33.654296875)"><path d="M16.83 0 C25.13 -1.53, 33.84 -1.79, 56.85 0 M16.83 0 C30.79 -0.92, 45.74 0.39, 56.85 0 M56.85 0 C68.91 -1.56, 74.05 4.94, 73.68 16.83 M56.85 0 C65.98 1.79, 75.61 4.49, 73.68 16.83 M73.68 16.83 C73.91 26.78, 74.36 35.84, 73.68 50.48 M73.68 16.83 C74.03 25, 73.18 35.62, 73.68 50.48 M73.68 50.48 C73.59 59.99, 67.52 66.84, 56.85 67.31 M73.68 50.48 C74.27 59.93, 68.91 66.09, 56.85 67.31 M56.85 67.31 C42.6 65.28, 28.85 67.88, 16.83 67.31 M56.85 67.31 C46.39 66.82, 34.06 67.38, 16.83 67.31 M16.83 67.31 C7.6 66.06, -1.12 63.4, 0 50.48 M16.83 67.31 C6.71 66.93, -0.82 60.79, 0 50.48 M0 50.48 C0.63 42.05, -1.27 37.85, 0 16.83 M0 50.48 C0.53 39.5, 0.01 28.53, 0 16.83 M0 16.83 C0.08 5.83, 4.4 -1.77, 16.83 0 M0 16.83 C-1.73 7.71, 4.41 1.13, 16.83 0" stroke="#1e1e1e" stroke-width="1" fill="none"></path></g><g transform="translate(539.9119404384065 297.0738830566406) rotate(0 25.109962463378906 25)"><text x="25.109962463378906" y="0" font-family="Virgil, Segoe UI Emoji" font-size="20px" fill="#1e1e1e" text-anchor="middle" style="white-space: pre;" direction="ltr" dominant-baseline="text-before-edge">istio-</text><text x="25.109962463378906" y="25" font-family="Virgil, Segoe UI Emoji" font-size="20px" fill="#1e1e1e" text-anchor="middle" style="white-space: pre;" direction="ltr" dominant-baseline="text-before-edge">proxy</text></g><g stroke-linecap="round"><g transform="translate(208.0983363560266 315.01600654731715) rotate(0 -21.96705845424094 -0.16038673871133824)"><path d="M0 0 C-12.28 -0.14, -25.04 -0.85, -43.93 -0.32" stroke="#1e1e1e" stroke-width="1.5" fill="none" stroke-dasharray="8 9"></path></g><g transform="translate(208.0983363560266 315.01600654731715) rotate(0 -21.96705845424094 -0.16038673871133824)"><path d="M-23.39 -8.09 C-28.74 -5.88, -34.61 -4.21, -43.93 -0.32" stroke="#1e1e1e" stroke-width="1.5" fill="none"></path></g><g transform="translate(208.0983363560266 315.01600654731715) rotate(0 -21.96705845424094 -0.16038673871133824)"><path d="M-23.2 6.94 C-28.66 4.72, -34.58 1.95, -43.93 -0.32" stroke="#1e1e1e" stroke-width="1.5" fill="none"></path></g></g><mask></mask><g stroke-linecap="round"><g transform="translate(671.9362269810264 320.0917558300184) rotate(0 -30.57252720424094 1.5599650913979985)"><path d="M0 0 C-21 0.81, -43.79 1.15, -61.15 3.12" stroke="#1e1e1e" stroke-width="1.5" fill="none" stroke-dasharray="8 9"></path></g><g transform="translate(671.9362269810264 320.0917558300184) rotate(0 -30.57252720424094 1.5599650913979985)"><path d="M-33.89 -9.41 C-42.55 -5.16, -52.96 -1.38, -61.15 3.12" stroke="#1e1e1e" stroke-width="1.5" fill="none"></path></g><g transform="translate(671.9362269810264 320.0917558300184) rotate(0 -30.57252720424094 1.5599650913979985)"><path d="M-32.21 11.04 C-41.39 7.82, -52.42 4.13, -61.15 3.12" stroke="#1e1e1e" stroke-width="1.5" fill="none"></path></g></g><mask></mask><g stroke-linecap="round" transform="translate(684.2591988699779 10) rotate(0 76.41241455078125 79.64028930664062)"><path d="M32 0 C50.46 0.5, 69.48 -1.3, 120.82 0 M32 0 C54.97 -0.22, 76.1 -1.37, 120.82 0 M120.82 0 C143 -0.23, 152.14 11.76, 152.82 32 M120.82 0 C140.4 1.81, 154.29 9.32, 152.82 32 M152.82 32 C151.89 62.62, 152.21 91.48, 152.82 127.28 M152.82 32 C153.39 65.55, 153.01 98.85, 152.82 127.28 M152.82 127.28 C154.52 147.92, 142.52 157.77, 120.82 159.28 M152.82 127.28 C151.38 150.32, 142.15 158.82, 120.82 159.28 M120.82 159.28 C99.17 161.71, 76.58 158.96, 32 159.28 M120.82 159.28 C95.2 158.58, 68.69 158.64, 32 159.28 M32 159.28 C10.68 159.61, 1.44 147.13, 0 127.28 M32 159.28 C9.93 159.36, 2.13 150.03, 0 127.28 M0 127.28 C-2.31 103.91, -2.72 79.51, 0 32 M0 127.28 C1.07 104.48, 0.28 82.1, 0 32 M0 32 C-1.06 9.75, 12.63 0.06, 32 0 M0 32 C0.27 9.05, 10.08 -1, 32 0" stroke="#1e1e1e" stroke-width="1" fill="none"></path></g><g transform="translate(735.0416390555248 77.14028930664062) rotate(0 25.629974365234375 12.5)"><text x="25.629974365234375" y="0" font-family="Virgil, Segoe UI Emoji" font-size="20px" fill="#1e1e1e" text-anchor="middle" style="white-space: pre;" direction="ltr" dominant-baseline="text-before-edge">client</text></g><g stroke-linecap="round" transform="translate(536.3152465820309 56.12340436662953) rotate(0 36.83984375 33.654296875)"><path d="M16.83 0 C28.07 1.52, 43.05 1.61, 56.85 0 M16.83 0 C31.53 0.12, 45.04 0.77, 56.85 0 M56.85 0 C66.54 1.57, 74.96 4.43, 73.68 16.83 M56.85 0 C68.35 -1.67, 73.87 5.33, 73.68 16.83 M73.68 16.83 C74.64 28.09, 74.62 41.38, 73.68 50.48 M73.68 16.83 C74.64 28.03, 73.97 39.16, 73.68 50.48 M73.68 50.48 C72.42 63.18, 68.07 66.91, 56.85 67.31 M73.68 50.48 C72.6 63.96, 69.69 68.24, 56.85 67.31 M56.85 67.31 C41 65.87, 24.62 67.14, 16.83 67.31 M56.85 67.31 C45.89 67.39, 35.63 66.49, 16.83 67.31 M16.83 67.31 C4.97 67.38, 1.85 62.93, 0 50.48 M16.83 67.31 C4.5 69.43, 2.07 60.05, 0 50.48 M0 50.48 C-0.98 37.66, -0.8 28.76, 0 16.83 M0 50.48 C-0.35 41.22, 1.16 32.91, 0 16.83 M0 16.83 C0.23 4.2, 5.1 -0.87, 16.83 0 M0 16.83 C2.06 4.98, 5.86 -0.1, 16.83 0" stroke="#1e1e1e" stroke-width="1" fill="none"></path></g><g transform="translate(548.045127868652 64.77770124162953) rotate(0 25.109962463378906 25)"><text x="25.109962463378906" y="0" font-family="Virgil, Segoe UI Emoji" font-size="20px" fill="#1e1e1e" text-anchor="middle" style="white-space: pre;" direction="ltr" dominant-baseline="text-before-edge">istio-</text><text x="25.109962463378906" y="25" font-family="Virgil, Segoe UI Emoji" font-size="20px" fill="#1e1e1e" text-anchor="middle" style="white-space: pre;" direction="ltr" dominant-baseline="text-before-edge">proxy</text></g><g stroke-linecap="round"><g transform="translate(675.4639456612719 89.5497311667446) rotate(0 -28.26979282924094 1.0073826223445224)"><path d="M0 0 C-19.16 -0.05, -41.75 2.64, -56.54 2.01" stroke="#1e1e1e" stroke-width="1.5" fill="none" stroke-dasharray="8 9"></path></g><g transform="translate(675.4639456612719 89.5497311667446) rotate(0 -28.26979282924094 1.0073826223445224)"><path d="M-30.07 -7.95 C-38.35 -5.33, -50.15 0.21, -56.54 2.01" stroke="#1e1e1e" stroke-width="1.5" fill="none"></path></g><g transform="translate(675.4639456612719 89.5497311667446) rotate(0 -28.26979282924094 1.0073826223445224)"><path d="M-29.85 11.4 C-38.39 7.07, -50.26 5.66, -56.54 2.01" stroke="#1e1e1e" stroke-width="1.5" fill="none"></path></g></g><mask></mask><g stroke-linecap="round" transform="translate(679.4076363699779 476.74609375) rotate(0 76.41241455078125 79.64028930664062)"><path d="M32 0 C60.83 -0.96, 90.82 1.02, 120.82 0 M32 0 C57.29 -0.36, 84.44 0.23, 120.82 0 M120.82 0 C143.1 -0.88, 151.84 11.18, 152.82 32 M120.82 0 C143.49 2.27, 150.82 10.87, 152.82 32 M152.82 32 C154.87 66.24, 154.42 96.53, 152.82 127.28 M152.82 32 C151.8 64.78, 153.29 99.61, 152.82 127.28 M152.82 127.28 C153.67 147.16, 140.97 157.47, 120.82 159.28 M152.82 127.28 C154.2 146.59, 143.4 158.21, 120.82 159.28 M120.82 159.28 C89.17 159.8, 54.54 161.56, 32 159.28 M120.82 159.28 C86.16 159.12, 49.99 159.19, 32 159.28 M32 159.28 C11.84 159.8, -1.94 146.73, 0 127.28 M32 159.28 C10.03 160.84, 1.54 150.4, 0 127.28 M0 127.28 C-0.59 99, 0.43 73.52, 0 32 M0 127.28 C-0.04 100.3, -0.22 71.75, 0 32 M0 32 C-0.08 10.11, 11.66 -0.66, 32 0 M0 32 C-1.59 9.24, 11.23 -0.91, 32 0" stroke="#1e1e1e" stroke-width="1" fill="none"></path></g><g transform="translate(730.1900765555248 543.8863830566406) rotate(0 25.629974365234375 12.5)"><text x="25.629974365234375" y="0" font-family="Virgil, Segoe UI Emoji" font-size="20px" fill="#1e1e1e" text-anchor="middle" style="white-space: pre;" direction="ltr" dominant-baseline="text-before-edge">client</text></g><g stroke-linecap="round" transform="translate(526.8582153320309 525.8226231166295) rotate(0 36.83984375 33.654296875)"><path d="M16.83 0 C26.79 1.17, 38.73 -1.65, 56.85 0 M16.83 0 C30.89 -0.83, 43.51 -0.14, 56.85 0 M56.85 0 C69.23 1.98, 71.94 5.79, 73.68 16.83 M56.85 0 C68.95 2.16, 75.32 6.94, 73.68 16.83 M73.68 16.83 C74.81 29.95, 75.5 41.99, 73.68 50.48 M73.68 16.83 C74.31 24.02, 73.29 31.76, 73.68 50.48 M73.68 50.48 C74.87 59.94, 69.15 66.37, 56.85 67.31 M73.68 50.48 C75.21 62.69, 69.65 68.36, 56.85 67.31 M56.85 67.31 C46.9 67.82, 31.24 68.17, 16.83 67.31 M56.85 67.31 C42.55 67.88, 26.11 66.68, 16.83 67.31 M16.83 67.31 C5.05 68.66, 1.34 63.25, 0 50.48 M16.83 67.31 C5.37 66.84, 1.9 60.8, 0 50.48 M0 50.48 C-0.23 41.24, 1.63 32.27, 0 16.83 M0 50.48 C0.09 37.74, 0.62 25.23, 0 16.83 M0 16.83 C-1.38 4.37, 6.09 -0.79, 16.83 0 M0 16.83 C0.67 7.38, 7.83 -0.96, 16.83 0" stroke="#1e1e1e" stroke-width="1" fill="none"></path></g><g transform="translate(538.588096618652 534.4769199916295) rotate(0 25.109962463378906 25)"><text x="25.109962463378906" y="0" font-family="Virgil, Segoe UI Emoji" font-size="20px" fill="#1e1e1e" text-anchor="middle" style="white-space: pre;" direction="ltr" dominant-baseline="text-before-edge">istio-</text><text x="25.109962463378906" y="25" font-family="Virgil, Segoe UI Emoji" font-size="20px" fill="#1e1e1e" text-anchor="middle" style="white-space: pre;" direction="ltr" dominant-baseline="text-before-edge">proxy</text></g><g stroke-linecap="round"><g transform="translate(670.6123831612719 557.4947927650073) rotate(0 -30.57252720424094 1.5599650913979985)"><path d="M0 0 C-21.73 1.52, -43.1 2.8, -61.15 3.12" stroke="#1e1e1e" stroke-width="1.5" fill="none" stroke-dasharray="8 9"></path></g><g transform="translate(670.6123831612719 557.4947927650073) rotate(0 -30.57252720424094 1.5599650913979985)"><path d="M-33.28 -8 C-42.67 -3.29, -51.78 0.94, -61.15 3.12" stroke="#1e1e1e" stroke-width="1.5" fill="none"></path></g><g transform="translate(670.6123831612719 557.4947927650073) rotate(0 -30.57252720424094 1.5599650913979985)"><path d="M-32.65 12.51 C-42.45 9.66, -51.78 6.32, -61.15 3.12" stroke="#1e1e1e" stroke-width="1.5" fill="none"></path></g></g><mask></mask><g stroke-linecap="round" transform="translate(18.00899832589289 489.2773437500001) rotate(0 76.41241455078125 79.64028930664062)"><path d="M32 0 C51.09 -1.62, 70.87 1.12, 120.82 0 M32 0 C61.88 -0.91, 90.59 -0.66, 120.82 0 M120.82 0 C142.46 -0.03, 151.59 11.54, 152.82 32 M120.82 0 C139.91 1.23, 152.07 10.76, 152.82 32 M152.82 32 C154.44 63.57, 152.24 96.56, 152.82 127.28 M152.82 32 C152.49 63.12, 153.01 95.17, 152.82 127.28 M152.82 127.28 C153.91 148.4, 143.59 157.77, 120.82 159.28 M152.82 127.28 C152.95 148.29, 142.48 160.63, 120.82 159.28 M120.82 159.28 C94.92 158.77, 69.74 158.9, 32 159.28 M120.82 159.28 C95.02 158.04, 67.77 157.9, 32 159.28 M32 159.28 C11.19 158.45, -0.81 146.95, 0 127.28 M32 159.28 C9.92 158.09, 1.57 150.59, 0 127.28 M0 127.28 C-0.58 88.13, -1.51 52.83, 0 32 M0 127.28 C-0.6 91.17, -1.38 52.74, 0 32 M0 32 C-1.71 10.65, 11.25 0.49, 32 0 M0 32 C1.08 12.28, 10.85 -1.11, 32 0" stroke="#ced4da" stroke-width="1" fill="none"></path></g><g transform="translate(72.26143210274836 556.4176330566407) rotate(0 22.15998077392578 12.5)"><text x="22.15998077392578" y="0" font-family="Virgil, Segoe UI Emoji" font-size="20px" fill="#ced4da" text-anchor="middle" style="white-space: pre;" direction="ltr" dominant-baseline="text-before-edge">server</text></g><g stroke-linecap="round" transform="translate(223.4488699776782 527.5420009068081) rotate(0 36.83984375 33.654296875)"><path d="M16.83 0 C27.37 -0.31, 37.89 1.34, 56.85 0 M16.83 0 C27.21 0.06, 36.67 0.51, 56.85 0 M56.85 0 C66.11 1.07, 73.03 5.69, 73.68 16.83 M56.85 0 C68.9 1.14, 71.72 6.93, 73.68 16.83 M73.68 16.83 C74.08 25.23, 72.28 35.7, 73.68 50.48 M73.68 16.83 C74.44 26.04, 74.61 34.71, 73.68 50.48 M73.68 50.48 C73.79 61.42, 68.35 68.48, 56.85 67.31 M73.68 50.48 C73.31 59.81, 67.93 66.52, 56.85 67.31 M56.85 67.31 C45.62 68.1, 33.64 67.74, 16.83 67.31 M56.85 67.31 C48.28 66.52, 38.77 66.1, 16.83 67.31 M16.83 67.31 C4.96 66.28, 1.36 63.42, 0 50.48 M16.83 67.31 C7.8 66.46, -0.85 60.63, 0 50.48 M0 50.48 C2.09 43.77, -1.38 34.9, 0 16.83 M0 50.48 C-0.54 37.24, 0.61 24.25, 0 16.83 M0 16.83 C0.94 7.01, 5.77 -0.96, 16.83 0 M0 16.83 C1.29 5.62, 3.35 -0.04, 16.83 0" stroke="#ced4da" stroke-width="1" fill="none"></path></g><g transform="translate(235.1787512642993 536.1962977818081) rotate(0 25.109962463378906 25)"><text x="25.109962463378906" y="0" font-family="Virgil, Segoe UI Emoji" font-size="20px" fill="#ced4da" text-anchor="middle" style="white-space: pre;" direction="ltr" dominant-baseline="text-before-edge">istio-</text><text x="25.109962463378906" y="25" font-family="Virgil, Segoe UI Emoji" font-size="20px" fill="#ced4da" text-anchor="middle" style="white-space: pre;" direction="ltr" dominant-baseline="text-before-edge">proxy</text></g><g stroke-linecap="round"><g transform="translate(216.36905343191938 561.4734161463779) rotate(0 -22.09791782924094 1.1369441354302694)"><path d="M0 0 C-13.78 1.39, -26.87 1.71, -44.2 2.27" stroke="#ced4da" stroke-width="1.5" fill="none" stroke-dasharray="8 9"></path></g><g transform="translate(216.36905343191938 561.4734161463779) rotate(0 -22.09791782924094 1.1369441354302694)"><path d="M-23.66 -5.97 C-30.28 -2.88, -36.23 -0.75, -44.2 2.27" stroke="#ced4da" stroke-width="1.5" fill="none"></path></g><g transform="translate(216.36905343191938 561.4734161463779) rotate(0 -22.09791782924094 1.1369441354302694)"><path d="M-23.17 9.16 C-29.98 7.69, -36.07 5.24, -44.2 2.27" stroke="#ced4da" stroke-width="1.5" fill="none"></path></g></g><mask></mask><g stroke-linecap="round" transform="translate(14.407435825892776 24.242187500000114) rotate(0 76.41241455078125 79.64028930664062)"><path d="M32 0 C53.94 0.07, 76.69 -1.34, 120.82 0 M32 0 C58.19 0.95, 86.29 0.94, 120.82 0 M120.82 0 C140.67 -1.65, 152.35 9.04, 152.82 32 M120.82 0 C141.72 1.17, 154.27 11.85, 152.82 32 M152.82 32 C151.18 64.72, 151.44 102.05, 152.82 127.28 M152.82 32 C152.47 65.76, 152.27 96.77, 152.82 127.28 M152.82 127.28 C153.59 148, 141.55 157.9, 120.82 159.28 M152.82 127.28 C152.42 149.2, 142.62 160.71, 120.82 159.28 M120.82 159.28 C88.2 158.4, 56.42 157.91, 32 159.28 M120.82 159.28 C89.43 159.07, 58.92 160.57, 32 159.28 M32 159.28 C12.27 160.81, 0.6 149.2, 0 127.28 M32 159.28 C10.94 157.53, 0.65 148.71, 0 127.28 M0 127.28 C0.94 97.24, -2.3 67.31, 0 32 M0 127.28 C1.12 103.05, 0.83 78.59, 0 32 M0 32 C1.24 10.53, 12.52 -0.27, 32 0 M0 32 C-1.33 8.94, 8.58 1.17, 32 0" stroke="#1e1e1e" stroke-width="1" fill="none"></path></g><g transform="translate(68.65986960274824 91.38247680664074) rotate(0 22.15998077392578 12.5)"><text x="22.15998077392578" y="0" font-family="Virgil, Segoe UI Emoji" font-size="20px" fill="#1e1e1e" text-anchor="middle" style="white-space: pre;" direction="ltr" dominant-baseline="text-before-edge">server</text></g><g stroke-linecap="round" transform="translate(228.3707449776782 62.241219656808084) rotate(0 36.83984375 33.654296875)"><path d="M16.83 0 C28.93 -1.54, 39.18 -0.78, 56.85 0 M16.83 0 C28.66 -0.88, 41.75 -0.86, 56.85 0 M56.85 0 C67.69 1.02, 74.93 6.64, 73.68 16.83 M56.85 0 C69.4 0.58, 74.94 3.44, 73.68 16.83 M73.68 16.83 C74.29 24.86, 74.98 31.52, 73.68 50.48 M73.68 16.83 C73.84 29.92, 73.15 42.95, 73.68 50.48 M73.68 50.48 C73.33 62.21, 68.47 68.56, 56.85 67.31 M73.68 50.48 C74.9 59.53, 68.46 65.86, 56.85 67.31 M56.85 67.31 C47.83 66.96, 37.62 65.73, 16.83 67.31 M56.85 67.31 C47.65 68.47, 37.15 68, 16.83 67.31 M16.83 67.31 C5.85 65.79, 0.56 61.79, 0 50.48 M16.83 67.31 C6.09 68.63, 0.21 63.41, 0 50.48 M0 50.48 C-0.52 39.1, 0.15 30.36, 0 16.83 M0 50.48 C0.4 38.75, 0.71 27.02, 0 16.83 M0 16.83 C-1.15 4.1, 3.8 1.01, 16.83 0 M0 16.83 C-1.25 6.42, 5.4 0.97, 16.83 0" stroke="#1e1e1e" stroke-width="1" fill="none"></path></g><g transform="translate(240.1006262642993 70.89551653180808) rotate(0 25.109962463378906 25)"><text x="25.109962463378906" y="0" font-family="Virgil, Segoe UI Emoji" font-size="20px" fill="#1e1e1e" text-anchor="middle" style="white-space: pre;" direction="ltr" dominant-baseline="text-before-edge">istio-</text><text x="25.109962463378906" y="25" font-family="Virgil, Segoe UI Emoji" font-size="20px" fill="#1e1e1e" text-anchor="middle" style="white-space: pre;" direction="ltr" dominant-baseline="text-before-edge">proxy</text></g><g stroke-linecap="round"><g transform="translate(221.29092843191938 96.13506131894718) rotate(0 -26.35963657924094 1.3290908776093886)"><path d="M0 0 C-10.78 1.97, -21.84 -0.65, -52.72 2.66" stroke="#1e1e1e" stroke-width="1.5" fill="none" stroke-dasharray="8 9"></path></g><g transform="translate(221.29092843191938 96.13506131894718) rotate(0 -26.35963657924094 1.3290908776093886)"><path d="M-28.63 -8.13 C-33.49 -4.3, -38.56 -5.22, -52.72 2.66" stroke="#1e1e1e" stroke-width="1.5" fill="none"></path></g><g transform="translate(221.29092843191938 96.13506131894718) rotate(0 -26.35963657924094 1.3290908776093886)"><path d="M-27.33 9.87 C-32.3 9.92, -37.64 5.23, -52.72 2.66" stroke="#1e1e1e" stroke-width="1.5" fill="none"></path></g></g><mask></mask><g stroke-linecap="round"><g transform="translate(519.8639613560264 335.7420520783554) rotate(0 -105.58229282924094 111.91961361283558)"><path d="M0 0 C-77.07 81.31, -153.3 160.62, -211.16 223.84" stroke="#1e1e1e" stroke-width="1.5" fill="none" stroke-dasharray="8 9"></path></g><g transform="translate(519.8639613560264 335.7420520783554) rotate(0 -105.58229282924094 111.91961361283558)"><path d="M-199.49 196.2 C-204.32 207.05, -209.27 215.69, -211.16 223.84" stroke="#1e1e1e" stroke-width="1.5" fill="none"></path></g><g transform="translate(519.8639613560264 335.7420520783554) rotate(0 -105.58229282924094 111.91961361283558)"><path d="M-184.46 210.17 C-194.58 216.05, -204.92 219.69, -211.16 223.84" stroke="#1e1e1e" stroke-width="1.5" fill="none"></path></g></g><mask></mask><g stroke-linecap="round"><g transform="translate(517.4577113560264 552.5936145783554) rotate(0 -109.080339704241 -110.34601138716442)"><path d="M0 0 C-52.07 -55.08, -106.5 -108.14, -218.16 -220.69" stroke="#1e1e1e" stroke-width="1.5" fill="none" stroke-dasharray="8 9"></path></g><g transform="translate(517.4577113560264 552.5936145783554) rotate(0 -109.080339704241 -110.34601138716442)"><path d="M-191 -207.96 C-196.15 -212.89, -204.01 -214.43, -218.16 -220.69" stroke="#1e1e1e" stroke-width="1.5" fill="none"></path></g><g transform="translate(517.4577113560264 552.5936145783554) rotate(0 -109.080339704241 -110.34601138716442)"><path d="M-205.54 -193.48 C-207.08 -202.01, -211.37 -207.1, -218.16 -220.69" stroke="#1e1e1e" stroke-width="1.5" fill="none"></path></g></g><mask></mask><g stroke-linecap="round"><g transform="translate(524.7623988560264 89.9941131938051) rotate(0 -107.010027204241 1.882504237835576)"><path d="M0 0 C-47.53 2.9, -91.63 3.62, -214.02 3.77" stroke="#1e1e1e" stroke-width="1.5" fill="none" stroke-dasharray="8 9"></path></g><g transform="translate(524.7623988560264 89.9941131938051) rotate(0 -107.010027204241 1.882504237835576)"><path d="M-185.87 -6.6 C-193.38 -2.33, -196.99 -0.2, -214.02 3.77" stroke="#1e1e1e" stroke-width="1.5" fill="none"></path></g><g transform="translate(524.7623988560264 89.9941131938051) rotate(0 -107.010027204241 1.882504237835576)"><path d="M-185.79 13.92 C-193.35 13.75, -196.98 11.45, -214.02 3.77" stroke="#1e1e1e" stroke-width="1.5" fill="none"></path></g></g><mask></mask><g stroke-linecap="round"><g transform="translate(527.8717738560264 102.0468475688051) rotate(0 -115.066667829241 108.65789486283558)"><path d="M0 0 C-76.15 71, -150.78 141.04, -230.13 217.32" stroke="#1e1e1e" stroke-width="1.5" fill="none" stroke-dasharray="8 9"></path></g><g transform="translate(527.8717738560264 102.0468475688051) rotate(0 -115.066667829241 108.65789486283558)"><path d="M-216.83 190.42 C-222.87 199.12, -226.06 206.22, -230.13 217.32" stroke="#1e1e1e" stroke-width="1.5" fill="none"></path></g><g transform="translate(527.8717738560264 102.0468475688051) rotate(0 -115.066667829241 108.65789486283558)"><path d="M-202.66 205.26 C-213.39 209.08, -221.23 211.31, -230.13 217.32" stroke="#1e1e1e" stroke-width="1.5" fill="none"></path></g></g><mask></mask><g stroke-linecap="round"><g transform="translate(370.73284040178555 461.2887268066406) rotate(0 8.01171875 25.7109375)"><path d="M0 0 C2.67 8.57, 13.35 42.85, 16.02 51.42 M0 0 C2.67 8.57, 13.35 42.85, 16.02 51.42" stroke="#e03131" stroke-width="1" fill="none"></path></g></g><mask></mask><g stroke-linecap="round"><g transform="translate(350.86955915178555 474.9645080566406) rotate(0 29.537109375 9.55078125)"><path d="M0 0 C9.85 3.18, 49.23 15.92, 59.07 19.1 M0 0 C9.85 3.18, 49.23 15.92, 59.07 19.1" stroke="#e03131" stroke-width="1" fill="none"></path></g></g><mask></mask></svg>