<svg xmlns="http://www.w3.org/2000/svg" xmlns:xlink="http://www.w3.org/1999/xlink" xmlns:lucid="lucid" width="1220" height="825.27"><g transform="translate(-40 -180)" lucid:page-tab-id="0_0"><path d="M432.9 498.16L484.33 469v-58.14l-51.45 29.07v58.23z" fill="#fff"/><path d="M381.55 468.98l51.38 29.12v-58.15l-51.38-29.04V469zM484 410.9L432.92 382l-51.05 28.9 51.05 28.87L484 410.9z" fill="#fff"/><path d="M432.93 438.06L481 410.9l-.04-.04-48.03 27.2zM384.9 410.86l-.06.03 48.1 27.16-48.05-27.2z" fill="#fff"/><path d="M484.2 409.04L432.9 380l-51.3 29.04-1.6.96v60l51.4 29.04 1.6.96 1.6-.96L486 470v-60zm-1.6 59.04l-48 27.24v-54.48l48.1-27.12zm-51.3 27.24l-48.12-27.24v-54.36l48.12 27.12zm-46.42-84.48l48-27.12 48.14 27.12-48.13 27.24-48.02-27.24z" fill="#444"/><path d="M433.14 471.33l27.63-15.65v-31.2l-27.63 15.6v31.25zM405.08 455.68l27.63 15.65v-31.25l-27.62-15.6v31.2zM460.48 424.06l-27.55-15.56-27.55 15.56 27.55 15.63 27.55-15.64z" fill="#5a69a4"/><path d="M432.93 438.1l24.77-14-.03-.04-24.74 14.02zM408.17 424.06l-.03.03 24.78 14v-.02l-24.75-14.02z" fill="#96bf3d"/><path d="M460.95 422.17l-28-15.8-28.08 15.8-1.6.94v33.7l28 15.86 1.67.94 1.6-.94 28.08-15.87v-33.7zm-1.6 32.74l-24.8 14.06v-28.1l24.8-13.98zm-28.07 14.06l-24.8-14.05V426.9l24.8 13.98zm-23.1-44.9l24.76-14 24.75 14-24.76 14.05-24.8-13.98z" fill="#fff"/><use xlink:href="#a" transform="matrix(1,0,0,1,380,500) translate(3.6481481481481524 17.77777777777778)"/><use xlink:href="#b" transform="matrix(1,0,0,1,380,500) translate(90.00617283950616 17.77777777777778)"/><path d="M432.9 778.16L484.33 749v-58.14l-51.45 29.07v58.23z" fill="#fff"/><path d="M381.55 748.98l51.38 29.12v-58.15l-51.38-29.04V749zM484 690.9L432.92 662l-51.05 28.9 51.05 28.87L484 690.9z" fill="#fff"/><path d="M432.93 718.06L481 690.9l-.04-.04-48.03 27.2zM384.9 690.86l-.06.03 48.1 27.16-48.05-27.2z" fill="#fff"/><path d="M484.2 689.04L432.9 660l-51.3 29.04-1.6.96v60l51.4 29.04 1.6.96 1.6-.96L486 750v-60zm-1.6 59.04l-48 27.24v-54.48l48.1-27.12zm-51.3 27.24l-48.12-27.24v-54.36l48.12 27.12zm-46.42-84.48l48-27.12 48.14 27.12-48.13 27.24-48.02-27.24z" fill="#444"/><path d="M433.14 751.33l27.63-15.65v-31.2l-27.63 15.6v31.25zM405.08 735.68l27.63 15.65v-31.25l-27.62-15.6v31.2zM460.48 704.06l-27.55-15.56-27.55 15.56 27.55 15.63 27.55-15.64z" fill="#5a69a4"/><path d="M432.93 718.1l24.77-14-.03-.04-24.74 14.02zM408.17 704.06l-.03.03 24.78 14v-.02l-24.75-14.02z" fill="#96bf3d"/><path d="M460.95 702.17l-28-15.8-28.08 15.8-1.6.94v33.7l28 15.86 1.67.94 1.6-.94 28.08-15.87v-33.7zm-1.6 32.74l-24.8 14.06v-28.1l24.8-13.98zm-28.07 14.06l-24.8-14.05V706.9l24.8 13.98zm-23.1-44.9l24.76-14 24.75 14-24.76 14.05-24.8-13.98z" fill="#fff"/><use xlink:href="#a" transform="matrix(1,0,0,1,380,780) translate(3.6481481481481524 17.77777777777778)"/><use xlink:href="#c" transform="matrix(1,0,0,1,380,780) translate(90.00617283950616 17.77777777777778)"/><path d="M1060 355.15c-.12 1.28.96 2.57 3.24 3.56l48.84 19.94c4.32 1.8 11.52 1.8 15.84 0l48.84-19.93c2.28-.98 3.36-2.27 3.24-3.55v-11.43c.12 1.24-.96 2.53-3.24 3.48l-48.84 19.94c-4.32 1.8-11.52 1.8-15.84 0l-48.84-19.94c-2.52-1.06-3.6-2.5-3.12-3.85l-.12 11.8z" stroke="#000" stroke-opacity="0" fill="#ba141a"/><path d="M1176.76 340.7c4.32 1.77 4.32 4.72 0 6.48l-48.84 20c-4.32 1.76-11.52 1.76-15.84 0l-48.84-20c-4.32-1.76-4.32-4.7 0-6.48l48.84-19.98c4.32-1.77 11.52-1.77 15.84 0l48.84 19.98z" stroke="#000" stroke-opacity="0" fill="#ba141a"/><path d="M1060 334.96c-.12 1.28.96 2.56 3.24 3.55l48.84 19.95c4.32 1.8 11.52 1.8 15.84 0l48.84-19.94c2.28-.98 3.36-2.26 3.24-3.54v-11.44c.12 1.25-.96 2.53-3.24 3.48l-48.84 19.94c-4.32 1.8-11.52 1.8-15.84 0L1063.24 327c-2.52-1.06-3.6-2.5-3.12-3.84l-.12 11.8z" stroke="#000" stroke-opacity="0" fill="#ba141a"/><path d="M1176.76 320.5c4.32 1.77 4.32 4.72 0 6.5l-48.84 19.97c-4.32 1.77-11.52 1.77-15.84 0L1063.24 327c-4.32-1.78-4.32-4.73 0-6.5l48.84-19.98c4.32-1.77 11.52-1.77 15.84 0l48.84 20z" stroke="#000" stroke-opacity="0" fill="#ba141a"/><path d="M1060 314.76c-.12 1.28.96 2.57 3.24 3.56l48.84 19.93c4.32 1.8 11.52 1.8 15.84 0l48.84-19.93c2.28-1 3.36-2.28 3.24-3.56v-11.43c.12 1.24-.96 2.53-3.24 3.48l-48.84 19.94c-4.32 1.8-11.52 1.8-15.84 0l-48.84-19.93c-2.52-1.05-3.6-2.48-3.12-3.84l-.12 11.8z" stroke="#000" stroke-opacity="0" fill="#ba141a"/><path d="M1060 355.15c-.12 1.28.96 2.57 3.24 3.56l48.84 19.94c4.32 1.8 11.52 1.8 15.84 0l48.84-19.93c2.28-.98 3.36-2.27 3.24-3.55v-11.43c.12 1.24-.96 2.53-3.24 3.48l-48.84 19.94c-4.32 1.8-11.52 1.8-15.84 0l-48.84-19.94c-2.52-1.06-3.6-2.5-3.12-3.85l-.12 11.8z" stroke="#000" stroke-opacity="0" fill="#93171b"/><path d="M1060 334.96c-.12 1.28.96 2.56 3.24 3.55l48.84 19.95c4.32 1.8 11.52 1.8 15.84 0l48.84-19.94c2.28-.98 3.36-2.26 3.24-3.54v-11.44c.12 1.25-.96 2.53-3.24 3.48l-48.84 19.94c-4.32 1.8-11.52 1.8-15.84 0L1063.24 327c-2.52-1.06-3.6-2.5-3.12-3.84l-.12 11.8z" stroke="#000" stroke-opacity="0" fill="#93171b"/><path d="M1060 314.76c-.12 1.28.96 2.57 3.24 3.56l48.84 19.93c4.32 1.8 11.52 1.8 15.84 0l48.84-19.93c2.28-1 3.36-2.28 3.24-3.56v-11.43c.12 1.24-.96 2.53-3.24 3.48l-48.84 19.94c-4.32 1.8-11.52 1.8-15.84 0l-48.84-19.93c-2.52-1.05-3.6-2.48-3.12-3.84l-.12 11.8z" stroke="#000" stroke-opacity="0" fill="#93171b"/><path d="M1176.76 300.3c4.32 1.78 4.32 4.73 0 6.5l-48.84 19.98c-4.32 1.77-11.52 1.77-15.84 0l-48.84-20c-4.32-1.75-4.32-4.7 0-6.47l48.84-19.97c4.32-1.77 11.52-1.77 15.84 0l48.84 19.98z" stroke="#000" stroke-opacity="0" fill="#ba141a"/><path d="M1105 307.32c-5.6 2.47-14.6 2.47-20.2 0-5.54-2.48-5.54-6.48 0-8.97 5.6-2.46 14.6-2.46 20.2 0 5.54 2.5 5.54 6.5 0 8.97zM1101.2 313.68l28.55-3.4-7.65 12.68-20.9-9.28z" stroke="#000" stroke-opacity="0" fill="#fff"/><path d="M1145.94 310.5l-17.07-7.6 17.07-7.58v15.17z" stroke="#000" stroke-opacity="0" fill="#76191c"/><path d="M1114.53 293.63l-11.16-1 9.92-2.5-1.32-5 8.4 3.4 10.34-2.1-4.73 4.6 7.7 3.73-11.32-.58-5.6 4.4-2.25-4.95z" stroke="#000" stroke-opacity="0" fill="#fff"/><path d="M1163.02 302.9l-17.08-7.58v15.17l17.08-7.6z" fill="#93171b"/><use xlink:href="#d" transform="matrix(1,0,0,1,1030,389) translate(1.26666666666668 21.511111111111106)"/><use xlink:href="#e" transform="matrix(1,0,0,1,1030,389) translate(77.30246913580247 21.511111111111106)"/><use xlink:href="#f" transform="matrix(1,0,0,1,1030,389) translate(163.79506172839504 21.511111111111106)"/><path d="M1060 536.15c-.12 1.28.96 2.57 3.24 3.56l48.84 19.94c4.32 1.8 11.52 1.8 15.84 0l48.84-19.93c2.28-.98 3.36-2.27 3.24-3.55v-11.43c.12 1.24-.96 2.53-3.24 3.48l-48.84 19.94c-4.32 1.8-11.52 1.8-15.84 0l-48.84-19.94c-2.52-1.06-3.6-2.5-3.12-3.85l-.12 11.8z" stroke="#000" stroke-opacity="0" fill="#ba141a"/><path d="M1176.76 521.7c4.32 1.77 4.32 4.72 0 6.48l-48.84 20c-4.32 1.76-11.52 1.76-15.84 0l-48.84-20c-4.32-1.76-4.32-4.7 0-6.48l48.84-19.98c4.32-1.77 11.52-1.77 15.84 0l48.84 19.98z" stroke="#000" stroke-opacity="0" fill="#ba141a"/><path d="M1060 515.96c-.12 1.28.96 2.56 3.24 3.55l48.84 19.95c4.32 1.8 11.52 1.8 15.84 0l48.84-19.94c2.28-.98 3.36-2.26 3.24-3.54v-11.44c.12 1.25-.96 2.53-3.24 3.48l-48.84 19.94c-4.32 1.8-11.52 1.8-15.84 0L1063.24 508c-2.52-1.06-3.6-2.5-3.12-3.84l-.12 11.8z" stroke="#000" stroke-opacity="0" fill="#ba141a"/><path d="M1176.76 501.5c4.32 1.77 4.32 4.72 0 6.5l-48.84 19.97c-4.32 1.77-11.52 1.77-15.84 0L1063.24 508c-4.32-1.78-4.32-4.73 0-6.5l48.84-19.98c4.32-1.77 11.52-1.77 15.84 0l48.84 20z" stroke="#000" stroke-opacity="0" fill="#ba141a"/><path d="M1060 495.76c-.12 1.28.96 2.57 3.24 3.56l48.84 19.93c4.32 1.8 11.52 1.8 15.84 0l48.84-19.93c2.28-1 3.36-2.28 3.24-3.56v-11.43c.12 1.24-.96 2.53-3.24 3.48l-48.84 19.94c-4.32 1.8-11.52 1.8-15.84 0l-48.84-19.93c-2.52-1.05-3.6-2.48-3.12-3.84l-.12 11.8z" stroke="#000" stroke-opacity="0" fill="#ba141a"/><path d="M1060 536.15c-.12 1.28.96 2.57 3.24 3.56l48.84 19.94c4.32 1.8 11.52 1.8 15.84 0l48.84-19.93c2.28-.98 3.36-2.27 3.24-3.55v-11.43c.12 1.24-.96 2.53-3.24 3.48l-48.84 19.94c-4.32 1.8-11.52 1.8-15.84 0l-48.84-19.94c-2.52-1.06-3.6-2.5-3.12-3.85l-.12 11.8z" stroke="#000" stroke-opacity="0" fill="#93171b"/><path d="M1060 515.96c-.12 1.28.96 2.56 3.24 3.55l48.84 19.95c4.32 1.8 11.52 1.8 15.84 0l48.84-19.94c2.28-.98 3.36-2.26 3.24-3.54v-11.44c.12 1.25-.96 2.53-3.24 3.48l-48.84 19.94c-4.32 1.8-11.52 1.8-15.84 0L1063.24 508c-2.52-1.06-3.6-2.5-3.12-3.84l-.12 11.8z" stroke="#000" stroke-opacity="0" fill="#93171b"/><path d="M1060 495.76c-.12 1.28.96 2.57 3.24 3.56l48.84 19.93c4.32 1.8 11.52 1.8 15.84 0l48.84-19.93c2.28-1 3.36-2.28 3.24-3.56v-11.43c.12 1.24-.96 2.53-3.24 3.48l-48.84 19.94c-4.32 1.8-11.52 1.8-15.84 0l-48.84-19.93c-2.52-1.05-3.6-2.48-3.12-3.84l-.12 11.8z" stroke="#000" stroke-opacity="0" fill="#93171b"/><path d="M1176.76 481.3c4.32 1.78 4.32 4.73 0 6.5l-48.84 19.98c-4.32 1.77-11.52 1.77-15.84 0l-48.84-20c-4.32-1.75-4.32-4.7 0-6.47l48.84-19.97c4.32-1.77 11.52-1.77 15.84 0l48.84 19.98z" stroke="#000" stroke-opacity="0" fill="#ba141a"/><path d="M1105 488.32c-5.6 2.47-14.6 2.47-20.2 0-5.54-2.48-5.54-6.48 0-8.97 5.6-2.46 14.6-2.46 20.2 0 5.54 2.5 5.54 6.5 0 8.97zM1101.2 494.68l28.55-3.4-7.65 12.68-20.9-9.28z" stroke="#000" stroke-opacity="0" fill="#fff"/><path d="M1145.94 491.5l-17.07-7.6 17.07-7.58v15.17z" stroke="#000" stroke-opacity="0" fill="#76191c"/><path d="M1114.53 474.63l-11.16-1 9.92-2.5-1.32-5 8.4 3.4 10.34-2.1-4.73 4.6 7.7 3.73-11.32-.58-5.6 4.4-2.25-4.95z" stroke="#000" stroke-opacity="0" fill="#fff"/><path d="M1163.02 483.9l-17.08-7.58v15.17l17.08-7.6z" fill="#93171b"/><use xlink:href="#d" transform="matrix(1,0,0,1,1030,570) translate(1.26666666666668 21.511111111111106)"/><use xlink:href="#e" transform="matrix(1,0,0,1,1030,570) translate(77.30246913580247 21.511111111111106)"/><use xlink:href="#g" transform="matrix(1,0,0,1,1030,570) translate(163.79506172839504 21.511111111111106)"/><path d="M1060 896.15c-.12 1.28.96 2.57 3.24 3.56l48.84 19.94c4.32 1.8 11.52 1.8 15.84 0l48.84-19.93c2.28-.98 3.36-2.27 3.24-3.55v-11.43c.12 1.24-.96 2.53-3.24 3.48l-48.84 19.94c-4.32 1.8-11.52 1.8-15.84 0l-48.84-19.94c-2.52-1.06-3.6-2.5-3.12-3.85l-.12 11.8z" stroke="#000" stroke-opacity="0" fill="#ba141a"/><path d="M1176.76 881.7c4.32 1.77 4.32 4.72 0 6.48l-48.84 20c-4.32 1.76-11.52 1.76-15.84 0l-48.84-20c-4.32-1.76-4.32-4.7 0-6.48l48.84-19.98c4.32-1.77 11.52-1.77 15.84 0l48.84 19.98z" stroke="#000" stroke-opacity="0" fill="#ba141a"/><path d="M1060 875.96c-.12 1.28.96 2.56 3.24 3.55l48.84 19.95c4.32 1.8 11.52 1.8 15.84 0l48.84-19.94c2.28-.98 3.36-2.26 3.24-3.54v-11.44c.12 1.25-.96 2.53-3.24 3.48l-48.84 19.94c-4.32 1.8-11.52 1.8-15.84 0L1063.24 868c-2.52-1.06-3.6-2.5-3.12-3.84l-.12 11.8z" stroke="#000" stroke-opacity="0" fill="#ba141a"/><path d="M1176.76 861.5c4.32 1.77 4.32 4.72 0 6.5l-48.84 19.97c-4.32 1.77-11.52 1.77-15.84 0L1063.24 868c-4.32-1.78-4.32-4.73 0-6.5l48.84-19.98c4.32-1.77 11.52-1.77 15.84 0l48.84 20z" stroke="#000" stroke-opacity="0" fill="#ba141a"/><path d="M1060 855.76c-.12 1.28.96 2.57 3.24 3.56l48.84 19.93c4.32 1.8 11.52 1.8 15.84 0l48.84-19.93c2.28-1 3.36-2.28 3.24-3.56v-11.43c.12 1.24-.96 2.53-3.24 3.48l-48.84 19.94c-4.32 1.8-11.52 1.8-15.84 0l-48.84-19.93c-2.52-1.05-3.6-2.48-3.12-3.84l-.12 11.8z" stroke="#000" stroke-opacity="0" fill="#ba141a"/><path d="M1060 896.15c-.12 1.28.96 2.57 3.24 3.56l48.84 19.94c4.32 1.8 11.52 1.8 15.84 0l48.84-19.93c2.28-.98 3.36-2.27 3.24-3.55v-11.43c.12 1.24-.96 2.53-3.24 3.48l-48.84 19.94c-4.32 1.8-11.52 1.8-15.84 0l-48.84-19.94c-2.52-1.06-3.6-2.5-3.12-3.85l-.12 11.8z" stroke="#000" stroke-opacity="0" fill="#93171b"/><path d="M1060 875.96c-.12 1.28.96 2.56 3.24 3.55l48.84 19.95c4.32 1.8 11.52 1.8 15.84 0l48.84-19.94c2.28-.98 3.36-2.26 3.24-3.54v-11.44c.12 1.25-.96 2.53-3.24 3.48l-48.84 19.94c-4.32 1.8-11.52 1.8-15.84 0L1063.24 868c-2.52-1.06-3.6-2.5-3.12-3.84l-.12 11.8z" stroke="#000" stroke-opacity="0" fill="#93171b"/><path d="M1060 855.76c-.12 1.28.96 2.57 3.24 3.56l48.84 19.93c4.32 1.8 11.52 1.8 15.84 0l48.84-19.93c2.28-1 3.36-2.28 3.24-3.56v-11.43c.12 1.24-.96 2.53-3.24 3.48l-48.84 19.94c-4.32 1.8-11.52 1.8-15.84 0l-48.84-19.93c-2.52-1.05-3.6-2.48-3.12-3.84l-.12 11.8z" stroke="#000" stroke-opacity="0" fill="#93171b"/><path d="M1176.76 841.3c4.32 1.78 4.32 4.73 0 6.5l-48.84 19.98c-4.32 1.77-11.52 1.77-15.84 0l-48.84-20c-4.32-1.75-4.32-4.7 0-6.47l48.84-19.97c4.32-1.77 11.52-1.77 15.84 0l48.84 19.98z" stroke="#000" stroke-opacity="0" fill="#ba141a"/><path d="M1105 848.32c-5.6 2.47-14.6 2.47-20.2 0-5.54-2.48-5.54-6.48 0-8.97 5.6-2.46 14.6-2.46 20.2 0 5.54 2.5 5.54 6.5 0 8.97zM1101.2 854.68l28.55-3.4-7.65 12.68-20.9-9.28z" stroke="#000" stroke-opacity="0" fill="#fff"/><path d="M1145.94 851.5l-17.07-7.6 17.07-7.58v15.17z" stroke="#000" stroke-opacity="0" fill="#76191c"/><path d="M1114.53 834.63l-11.16-1 9.92-2.5-1.32-5 8.4 3.4 10.34-2.1-4.73 4.6 7.7 3.73-11.32-.58-5.6 4.4-2.25-4.95z" stroke="#000" stroke-opacity="0" fill="#fff"/><path d="M1163.02 843.9l-17.08-7.58v15.17l17.08-7.6z" fill="#93171b"/><use xlink:href="#d" transform="matrix(1,0,0,1,1030,930) translate(12.47037037037039 21.511111111111106)"/><use xlink:href="#h" transform="matrix(1,0,0,1,1030,930) translate(88.50617283950618 21.511111111111106)"/><use xlink:href="#i" transform="matrix(1,0,0,1,1030,930) translate(81.03703703703704 53.777777777777764)"/><path d="M487 443.97l556.62-94.6" stroke="#ba141a" stroke-width="2" fill="none"/><path d="M487.18 444.95l-1.18.2v-2.02l.84-.15z" fill="#ba141a"/><path d="M1058.67 346.8l-13.3 6.97-1.54-9.14z" stroke="#ba141a" stroke-width="2" fill="#ba141a"/><path d="M487 444.26l554.68 64.12" stroke="#ba141a" stroke-width="2" fill="none"/><path d="M487.13 443.27l-.23 1.98-.9-.1v-2.02z" fill="#ba141a"/><path d="M1056.84 510.13l-14.7 2.96 1.06-9.2z" stroke="#ba141a" stroke-width="2" fill="#ba141a"/><path d="M486.84 723.6l558.3-356.6" stroke="#ef8d22" stroke-width="2" fill="none"/><path d="M487.4 724.43l-1.4.9v-2.38l.33-.2z" fill="#ef8d22"/><path d="M1058 358.78l-9.53 11.6-5-7.83z" stroke="#ef8d22" stroke-width="2" fill="#ef8d22"/><path d="M486.97 724.4l555.16 141.53" stroke="#ef8d22" stroke-width="2" fill="none"/><path d="M487.24 723.43l-.5 1.93-.74-.2v-2.05z" fill="#ef8d22"/><path d="M1056.92 869.7l-14.97.97 2.3-9z" stroke="#ef8d22" stroke-width="2" fill="#ef8d22"/><path d="M160 200h100v60H160z" stroke="#5e5e5e" fill="#aefe7d"/><path d="M196.2 218.78h30.7" stroke="#818181" fill="#aefe7d"/><path d="M225.4 212.78l11.5 6-11.5 5.22z" stroke="#818181" fill="#818181"/><path d="M179.2 212.78h11.6V224h-11.6zM229.2 239h11.6v11.28h-11.6z" stroke="#5e5e5e" fill="#fff"/><path d="M222.3 245h-30.8" stroke="#818181" fill="#aefe7d"/><path d="M193.1 239l-11.6 6 11.6 5.28z" stroke="#818181" fill="#818181"/><use xlink:href="#j" transform="matrix(1,0,0,1,160,265) translate(20.401234567901234 24.444444444444443)"/><use xlink:href="#b" transform="matrix(1,0,0,1,160,265) translate(67.25308641975309 24.444444444444443)"/><path d="M260.98 230.88l4.6 8.45m4.58 8.45l9.18 16.9m4.6 8.46l9.18 16.9m4.6 8.46l9.17 16.9m4.58 8.46l9.18 16.9m4.6 8.46l9.18 16.9m4.6 8.45l9.17 16.9m4.6 8.46l9.2 16.9m4.58 8.46l4.6 8.44" stroke="#ba141a" stroke-width="2" fill="none"/><path d="M261.87 230.42l-1.37.75v-3.27z" fill="#ba141a"/><path d="M378.46 447.16l-10.9-10.33 8.16-4.42z" stroke="#ba141a" stroke-width="2" fill="#ba141a"/><path d="M160 560h100v60H160z" stroke="#5e5e5e" fill="#aefe7d"/><path d="M196.2 578.78h30.7" stroke="#818181" fill="#aefe7d"/><path d="M225.4 572.78l11.5 6-11.5 5.22z" stroke="#818181" fill="#818181"/><path d="M179.2 572.78h11.6V584h-11.6zM229.2 599h11.6v11.28h-11.6z" stroke="#5e5e5e" fill="#fff"/><path d="M222.3 605h-30.8" stroke="#818181" fill="#aefe7d"/><path d="M193.1 599l-11.6 6 11.6 5.28z" stroke="#818181" fill="#818181"/><use xlink:href="#j" transform="matrix(1,0,0,1,160,625) translate(20.401234567901234 24.444444444444443)"/><use xlink:href="#c" transform="matrix(1,0,0,1,160,625) translate(67.25308641975309 24.444444444444443)"/><path d="M60 200h100v60H60z" stroke="#5e5e5e" fill="#aefe7d"/><path d="M96.2 218.78h30.7" stroke="#818181" fill="#aefe7d"/><path d="M125.4 212.78l11.5 6-11.5 5.22z" stroke="#818181" fill="#818181"/><path d="M79.2 212.78h11.6V224H79.2zM129.2 239h11.6v11.28h-11.6z" stroke="#5e5e5e" fill="#fff"/><path d="M122.3 245H91.5" stroke="#818181" fill="#aefe7d"/><path d="M93.1 239l-11.6 6 11.6 5.28z" stroke="#818181" fill="#818181"/><use xlink:href="#j" transform="matrix(1,0,0,1,60,265) translate(20.401234567901234 24.444444444444443)"/><use xlink:href="#c" transform="matrix(1,0,0,1,60,265) translate(67.25308641975309 24.444444444444443)"/><path d="M60 561h100v60H60z" stroke="#5e5e5e" fill="#aefe7d"/><path d="M96.2 579.78h30.7" stroke="#818181" fill="#aefe7d"/><path d="M125.4 573.78l11.5 6-11.5 5.22z" stroke="#818181" fill="#818181"/><path d="M79.2 573.78h11.6V585H79.2zM129.2 600h11.6v11.28h-11.6z" stroke="#5e5e5e" fill="#fff"/><path d="M122.3 606H91.5" stroke="#818181" fill="#aefe7d"/><path d="M93.1 600l-11.6 6 11.6 5.28z" stroke="#818181" fill="#818181"/><use xlink:href="#j" transform="matrix(1,0,0,1,60,626) translate(20.401234567901234 24.444444444444443)"/><use xlink:href="#k" transform="matrix(1,0,0,1,60,626) translate(67.25308641975309 24.444444444444443)"/><path d="M100.88 300.47l8.76 4.7m8.76 4.7l17.52 9.37m8.76 4.7l17.52 9.38m8.76 4.7l17.52 9.38m8.76 4.7l17.53 9.38m8.76 4.7l17.52 9.38m8.76 4.7l17.53 9.38m8.76 4.7l17.5 9.38m8.77 4.7l17.52 9.38m8.75 4.7l17.52 9.38m8.76 4.7l8.76 4.68M100.9 300.48l-.9-.48" stroke="#19967d" stroke-width="2" fill="none"/><path d="M377.15 448.47l-14.77-2.65 4.38-8.17z" stroke="#19967d" stroke-width="2" fill="#19967d"/><path d="M261.2 590.7l7.05 7.05m7.05 7.05l14.1 14.1m7.04 7.04l14.1 14.1m7.05 7.05l14.08 14.08m7.05 7.05l14.1 14.1m7.04 7.04l7.05 7.05" stroke="#ef8d22" stroke-width="2" fill="none"/><path d="M261.93 590.02l-1.4 1.4h-.03v-2.83z" fill="#ef8d22"/><path d="M377.7 707.2l-13.35-6.8 6.55-6.55z" stroke="#ef8d22" stroke-width="2" fill="#ef8d22"/><path d="M120.97 660.26l10.04 2.7m10.06 2.7l20.1 5.42m10.05 2.7l20.1 5.42m10.06 2.7l20.1 5.4m10.04 2.72l20.1 5.4m10.05 2.72l20.1 5.4m10.04 2.7l20.1 5.42m10.04 2.7l20.1 5.42m10.05 2.7l10.03 2.7M121 660.27l-1-.27" stroke="#5abaa7" stroke-width="2" fill="none"/><path d="M376.88 729.16l-15 .77 2.42-8.96z" stroke="#5abaa7" stroke-width="2" fill="#5abaa7"/><path d="M486.8 444.74l558.4 414.73" stroke="#5abaa7" stroke-width="2" fill="none"/><path d="M487.42 443.95l-1.2 1.6-.22-.16v-2.5z" fill="#5abaa7"/><path d="M1057.46 868.57l-14.22-4.78 5.53-7.46z" stroke="#5abaa7" stroke-width="2" fill="#5abaa7"/><path d="M486.86 443.6l59.32-36.66 39.34-22.06L614.88 370l23.72-10.78 20.27-8.2 18.08-6.46 16.7-5.2 16-4.2 15.77-3.5 16.12-2.83 17.17-2.3 19.33-1.74 23.72-1.16 35.3-.18 204.5 5.54" stroke="#5abaa7" stroke-width="2" fill="none"/><path d="M487.4 444.45l-1.4.87v-2.36l.35-.2z" fill="#5abaa7"/><path d="M1056.82 329.4l-14.4 4.26.27-9.27z" stroke="#5abaa7" stroke-width="2" fill="#5abaa7"/><path d="M486.94 723.8l555.78-206.85" stroke="#7ab648" stroke-width="2" fill="none"/><path d="M487.3 724.72l-1.3.5v-2.15l.6-.22z" fill="#7ab648"/><path d="M1057.02 511.63l-11.75 9.32-3.23-8.7z" stroke="#7ab648" stroke-width="2" fill="#7ab648"/><path d="M1000 666.5c0-3.3 2.7-6 6-6h228c3.3 0 6 2.7 6 6v48c0 3.3-2.7 6-6 6h-228c-3.3 0-6-2.7-6-6z" stroke="#000" stroke-opacity="0" stroke-width="3" fill="#fff" fill-opacity="0"/><use xlink:href="#l" transform="matrix(1,0,0,1,1005,665.5) translate(101.11111111111111 32.91666666666666)"/><path d="M486.78 724.77L536 764.52l35.1 25.97 26.56 17.96 21.24 13.1 17.72 9.94 15.3 7.75 13.63 6.2 12.47 5.05 11.7 4.18 11.3 3.5 11.27 3 11.66 2.56 12.8 2.26 15.6 2.07 21.6 2 50.47 2.72 234.6.96" stroke="#7ab648" stroke-width="2" fill="none"/><path d="M487.43 724l-1.26 1.57-.17-.14v-2.57z" fill="#7ab648"/><path d="M1074.3 873.83l-14.3 4.57.05-9.27z" stroke="#7ab648" stroke-width="2" fill="#7ab648"/><path d="M600 346c0-3.3 2.7-6 6-6h228c3.3 0 6 2.7 6 6v54c0 3.3-2.7 6-6 6H606c-3.3 0-6-2.7-6-6z" stroke="#000" stroke-opacity="0" stroke-width="3" fill="#fff" fill-opacity="0"/><use xlink:href="#m" transform="matrix(1,0,0,1,605,345) translate(98.11111111111113 35.44444444444443)"/><path d="M660 426c0-3.3 2.7-6 6-6h228c3.3 0 6 2.7 6 6v54c0 3.3-2.7 6-6 6H666c-3.3 0-6-2.7-6-6z" stroke="#000" stroke-opacity="0" stroke-width="3" fill="#fff" fill-opacity="0"/><use xlink:href="#m" transform="matrix(1,0,0,1,665,425) translate(98.11111111111113 35.44444444444443)"/><path d="M580 726.5c0-3.3 2.7-6 6-6h228c3.3 0 6 2.7 6 6v54c0 3.3-2.7 6-6 6H586c-3.3 0-6-2.7-6-6z" stroke="#000" stroke-opacity="0" stroke-width="3" fill="#fff" fill-opacity="0"/><g><use xlink:href="#n" transform="matrix(1,0,0,1,585,725.5) translate(98.11111111111113 35.44444444444443)"/></g><path d="M440 606c0-3.3 2.7-6 6-6h228c3.3 0 6 2.7 6 6v54c0 3.3-2.7 6-6 6H446c-3.3 0-6-2.7-6-6z" stroke="#000" stroke-opacity="0" stroke-width="3" fill="#fff" fill-opacity="0"/><g><use xlink:href="#n" transform="matrix(1,0,0,1,445,605) translate(98.11111111111113 35.44444444444443)"/></g><path d="M580 280c0-3.3 2.7-6 6-6h228c3.3 0 6 2.7 6 6v54c0 3.3-2.7 6-6 6H586c-3.3 0-6-2.7-6-6z" stroke="#000" stroke-opacity="0" stroke-width="3" fill="#fff" fill-opacity="0"/><g><use xlink:href="#o" transform="matrix(1,0,0,1,585,279) translate(98.11111111111113 35.44444444444443)"/></g><path d="M440 516c0-3.3 2.7-6 6-6h228c3.3 0 6 2.7 6 6v54c0 3.3-2.7 6-6 6H446c-3.3 0-6-2.7-6-6z" stroke="#000" stroke-opacity="0" stroke-width="3" fill="#fff" fill-opacity="0"/><g><use xlink:href="#o" transform="matrix(1,0,0,1,445,515) translate(98.11111111111113 35.44444444444443)"/></g><path d="M780 586c0-3.3 2.7-6 6-6h228c3.3 0 6 2.7 6 6v54c0 3.3-2.7 6-6 6H786c-3.3 0-6-2.7-6-6z" stroke="#000" stroke-opacity="0" stroke-width="3" fill="#fff" fill-opacity="0"/><g><use xlink:href="#p" transform="matrix(1,0,0,1,785,585) translate(98.11111111111113 35.44444444444443)"/></g><path d="M580 886c0-3.3 2.7-6 6-6h228c3.3 0 6 2.7 6 6v54c0 3.3-2.7 6-6 6H586c-3.3 0-6-2.7-6-6z" stroke="#000" stroke-opacity="0" stroke-width="3" fill="#fff" fill-opacity="0"/><g><use xlink:href="#p" transform="matrix(1,0,0,1,585,885) translate(98.11111111111113 35.44444444444443)"/></g><defs><path fill="#333" d="M30-248c87 1 191-15 191 75 0 78-77 80-158 76V0H30v-248zm33 125c57 0 124 11 124-50 0-59-68-47-124-48v98" id="q"/><path fill="#333" d="M114-163C36-179 61-72 57 0H25l-1-190h30c1 12-1 29 2 39 6-27 23-49 58-41v29" id="r"/><path fill="#333" d="M100-194c62-1 85 37 85 99 1 63-27 99-86 99S16-35 15-95c0-66 28-99 85-99zM99-20c44 1 53-31 53-75 0-43-8-75-51-75s-53 32-53 75 10 74 51 75" id="s"/><path fill="#333" d="M96-169c-40 0-48 33-48 73s9 75 48 75c24 0 41-14 43-38l32 2c-6 37-31 61-74 61-59 0-76-41-82-99-10-93 101-131 147-64 4 7 5 14 7 22l-32 3c-4-21-16-35-41-35" id="t"/><path fill="#333" d="M100-194c63 0 86 42 84 106H49c0 40 14 67 53 68 26 1 43-12 49-29l28 8c-11 28-37 45-77 45C44 4 14-33 15-96c1-61 26-98 85-98zm52 81c6-60-76-77-97-28-3 7-6 17-6 28h103" id="u"/><path fill="#333" d="M135-143c-3-34-86-38-87 0 15 53 115 12 119 90S17 21 10-45l28-5c4 36 97 45 98 0-10-56-113-15-118-90-4-57 82-63 122-42 12 7 21 19 24 35" id="v"/><g id="a"><use transform="matrix(0.06172839506172839,0,0,0.06172839506172839,0,0)" xlink:href="#q"/><use transform="matrix(0.06172839506172839,0,0,0.06172839506172839,14.814814814814813,0)" xlink:href="#r"/><use transform="matrix(0.06172839506172839,0,0,0.06172839506172839,22.160493827160494,0)" xlink:href="#s"/><use transform="matrix(0.06172839506172839,0,0,0.06172839506172839,34.50617283950617,0)" xlink:href="#t"/><use transform="matrix(0.06172839506172839,0,0,0.06172839506172839,45.61728395061728,0)" xlink:href="#u"/><use transform="matrix(0.06172839506172839,0,0,0.06172839506172839,57.962962962962955,0)" xlink:href="#v"/><use transform="matrix(0.06172839506172839,0,0,0.06172839506172839,69.07407407407406,0)" xlink:href="#v"/></g><path fill="#333" d="M27 0v-27h64v-190l-56 39v-29l58-41h29v221h61V0H27" id="w"/><use transform="matrix(0.06172839506172839,0,0,0.06172839506172839,0,0)" xlink:href="#w" id="b"/><path fill="#333" d="M101-251c82-7 93 87 43 132L82-64C71-53 59-42 53-27h129V0H18c2-99 128-94 128-182 0-28-16-43-45-43s-46 15-49 41l-32-3c6-41 34-60 81-64" id="x"/><use transform="matrix(0.06172839506172839,0,0,0.06172839506172839,0,0)" xlink:href="#x" id="c"/><path d="M233-177c-1 41-23 64-60 70L243 0h-38l-65-103H63V0H30v-248c88 3 205-21 203 71zM63-129c60-2 137 13 137-47 0-61-80-42-137-45v92" id="y"/><path d="M100-194c63 0 86 42 84 106H49c0 40 14 67 53 68 26 1 43-12 49-29l28 8c-11 28-37 45-77 45C44 4 14-33 15-96c1-61 26-98 85-98zm52 81c6-60-76-77-97-28-3 7-6 17-6 28h103" id="z"/><path d="M85-194c31 0 48 13 60 33l-1-100h32l1 261h-30c-2-10 0-23-3-31C134-8 116 4 85 4 32 4 16-35 15-94c0-66 23-100 70-100zm9 24c-40 0-46 34-46 75 0 40 6 74 45 74 42 0 51-32 51-76 0-42-9-74-50-73" id="A"/><path d="M24-231v-30h32v30H24zM24 0v-190h32V0H24" id="B"/><path d="M135-143c-3-34-86-38-87 0 15 53 115 12 119 90S17 21 10-45l28-5c4 36 97 45 98 0-10-56-113-15-118-90-4-57 82-63 122-42 12 7 21 19 24 35" id="C"/><g id="d"><use transform="matrix(0.07469135802469133,0,0,0.07469135802469133,0,0)" xlink:href="#y"/><use transform="matrix(0.07469135802469133,0,0,0.07469135802469133,19.345061728395056,0)" xlink:href="#z"/><use transform="matrix(0.07469135802469133,0,0,0.07469135802469133,34.283333333333324,0)" xlink:href="#A"/><use transform="matrix(0.07469135802469133,0,0,0.07469135802469133,49.22160493827159,0)" xlink:href="#B"/><use transform="matrix(0.07469135802469133,0,0,0.07469135802469133,55.122222222222206,0)" xlink:href="#C"/></g><path d="M185-189c-5-48-123-54-124 2 14 75 158 14 163 119 3 78-121 87-175 55-17-10-28-26-33-46l33-7c5 56 141 63 141-1 0-78-155-14-162-118-5-82 145-84 179-34 5 7 8 16 11 25" id="D"/><path d="M114-163C36-179 61-72 57 0H25l-1-190h30c1 12-1 29 2 39 6-27 23-49 58-41v29" id="E"/><path d="M108 0H70L1-190h34L89-25l56-165h34" id="F"/><g id="e"><use transform="matrix(0.07469135802469133,0,0,0.07469135802469133,0,0)" xlink:href="#D"/><use transform="matrix(0.07469135802469133,0,0,0.07469135802469133,17.92592592592592,0)" xlink:href="#z"/><use transform="matrix(0.07469135802469133,0,0,0.07469135802469133,32.86419753086419,0)" xlink:href="#E"/><use transform="matrix(0.07469135802469133,0,0,0.07469135802469133,41.75246913580246,0)" xlink:href="#F"/><use transform="matrix(0.07469135802469133,0,0,0.07469135802469133,55.1969135802469,0)" xlink:href="#z"/><use transform="matrix(0.07469135802469133,0,0,0.07469135802469133,70.13518518518516,0)" xlink:href="#E"/></g><path d="M27 0v-27h64v-190l-56 39v-29l58-41h29v221h61V0H27" id="G"/><use transform="matrix(0.07469135802469133,0,0,0.07469135802469133,0,0)" xlink:href="#G" id="f"/><path d="M101-251c82-7 93 87 43 132L82-64C71-53 59-42 53-27h129V0H18c2-99 128-94 128-182 0-28-16-43-45-43s-46 15-49 41l-32-3c6-41 34-60 81-64" id="H"/><use transform="matrix(0.07469135802469133,0,0,0.07469135802469133,0,0)" xlink:href="#H" id="g"/><g id="h"><use transform="matrix(0.07469135802469133,0,0,0.07469135802469133,0,0)" xlink:href="#D"/><use transform="matrix(0.07469135802469133,0,0,0.07469135802469133,17.92592592592592,0)" xlink:href="#z"/><use transform="matrix(0.07469135802469133,0,0,0.07469135802469133,32.86419753086419,0)" xlink:href="#E"/><use transform="matrix(0.07469135802469133,0,0,0.07469135802469133,41.75246913580246,0)" xlink:href="#F"/><use transform="matrix(0.07469135802469133,0,0,0.07469135802469133,55.1969135802469,0)" xlink:href="#z"/><use transform="matrix(0.07469135802469133,0,0,0.07469135802469133,70.13518518518516,0)" xlink:href="#E"/></g><path d="M195 0l-74-108L45 0H8l94-129-87-119h37l69 98 67-98h37l-84 118L233 0h-38" id="I"/><use transform="matrix(0.07469135802469133,0,0,0.07469135802469133,0,0)" xlink:href="#I" id="i"/><path fill="#333" d="M233-177c-1 41-23 64-60 70L243 0h-38l-65-103H63V0H30v-248c88 3 205-21 203 71zM63-129c60-2 137 13 137-47 0-61-80-42-137-45v92" id="J"/><path fill="#333" d="M145-31C134-9 116 4 85 4 32 4 16-35 15-94c0-59 17-99 70-100 32-1 48 14 60 33 0-11-1-24 2-32h30l-1 268h-32zM93-21c41 0 51-33 51-76s-8-73-50-73c-40 0-46 35-46 75s5 74 45 74" id="K"/><g id="j"><use transform="matrix(0.06172839506172839,0,0,0.06172839506172839,0,0)" xlink:href="#J"/><use transform="matrix(0.06172839506172839,0,0,0.06172839506172839,15.987654320987653,0)" xlink:href="#u"/><use transform="matrix(0.06172839506172839,0,0,0.06172839506172839,28.333333333333332,0)" xlink:href="#K"/></g><path fill="#333" d="M155-56V0h-30v-56H8v-25l114-167h33v167h35v25h-35zm-30-156c-27 46-58 90-88 131h88v-131" id="L"/><use transform="matrix(0.06172839506172839,0,0,0.06172839506172839,0,0)" xlink:href="#L" id="k"/><path fill="#333" d="M33 0v-38h34V0H33" id="M"/><g id="l"><use transform="matrix(0.09259259259259256,0,0,0.09259259259259256,0,0)" xlink:href="#M"/><use transform="matrix(0.09259259259259256,0,0,0.09259259259259256,9.259259259259256,0)" xlink:href="#M"/><use transform="matrix(0.09259259259259256,0,0,0.09259259259259256,18.518518518518512,0)" xlink:href="#M"/></g><path fill="#333" d="M159-193c1-26-21-8-35-4v-14l63-32v178c0 19 13 20 32 21v12h-92v-13c18 0 32-2 32-20v-128zm153 63c0-84-56-142-140-142-85 0-140 58-140 142C32-45 87 11 172 11c84 0 140-56 140-141zm-299 0c0-95 64-159 159-159 94 0 158 63 158 159 0 95-63 158-158 158C76 28 13-36 13-130" id="N"/><use transform="matrix(0.09876543209876536,0,0,0.09876543209876536,0,0)" xlink:href="#N" id="m"/><path fill="#333" d="M141-49c37-2 84 10 91-22h13l-14 38H103c0-21 11-15 21-30 27-39 80-61 80-119 0-23-13-39-37-39-27 0-41 21-49 43l-15-2c9-32 29-56 69-58 59-4 76 65 42 104zm171-81c0-84-56-142-140-142-85 0-140 58-140 142C32-45 87 11 172 11c84 0 140-56 140-141zm-299 0c0-95 64-159 159-159 94 0 158 63 158 159 0 95-63 158-158 158C76 28 13-36 13-130" id="O"/><use transform="matrix(0.09876543209876536,0,0,0.09876543209876536,0,0)" xlink:href="#O" id="n"/><path fill="#333" d="M13-130c0-95 64-159 159-159 94 0 158 63 158 159 0 95-63 158-158 158C76 28 13-36 13-130zm299 0c0-84-56-142-140-142-85 0-140 58-140 142C32-45 87 11 172 11c84 0 140-56 140-141zm-85-63c0 22-17 39-34 49 24 6 44 22 44 50-1 48-39 69-87 69-17 0-36-3-38-19 7-30 40 2 57 1 23-1 39-17 39-40 0-39-21-51-64-46l-1-11c26-5 52-22 53-49 1-18-10-30-27-29-23 2-37 16-45 34l-15-1c4-55 118-75 118-8" id="P"/><use transform="matrix(0.09876543209876536,0,0,0.09876543209876536,0,0)" xlink:href="#P" id="o"/><path fill="#333" d="M13-130c0-95 64-159 159-159 94 0 158 63 158 159 0 95-63 158-158 158C76 28 13-36 13-130zm299 0c0-84-56-142-140-142-85 0-140 58-140 142C32-45 87 11 172 11c84 0 140-56 140-141zM200-238v137h34v17h-34v53h-29v-53H85v-14l95-140h20zm-89 137h60v-87" id="Q"/><use transform="matrix(0.09876543209876536,0,0,0.09876543209876536,0,0)" xlink:href="#Q" id="p"/></defs></g></svg>