<svg xmlns="http://www.w3.org/2000/svg" xmlns:xlink="http://www.w3.org/1999/xlink" xmlns:lucid="lucid" width="2346.38" height="1060"><g transform="translate(246.38456790123453 1160)" lucid:page-tab-id="0_0"><path d="M280-283.85c-.12 1.28.96 2.57 3.24 3.56l48.84 19.94c4.32 1.8 11.52 1.8 15.84 0l48.84-19.93c2.28-.98 3.36-2.27 3.24-3.55v-11.43c.12 1.24-.96 2.53-3.24 3.48l-48.84 19.94c-4.32 1.8-11.52 1.8-15.84 0l-48.84-19.94c-2.52-1.06-3.6-2.5-3.12-3.85l-.12 11.8z" stroke="#000" stroke-opacity="0" fill="#ba141a"/><path d="M396.76-298.3c4.32 1.77 4.32 4.72 0 6.48l-48.84 20c-4.32 1.76-11.52 1.76-15.84 0l-48.84-20c-4.32-1.76-4.32-4.7 0-6.48l48.84-19.98c4.32-1.77 11.52-1.77 15.84 0l48.84 19.98z" stroke="#000" stroke-opacity="0" fill="#ba141a"/><path d="M280-304.04c-.12 1.28.96 2.56 3.24 3.55l48.84 19.95c4.32 1.8 11.52 1.8 15.84 0l48.84-19.94c2.28-.98 3.36-2.26 3.24-3.54v-11.44c.12 1.25-.96 2.53-3.24 3.48l-48.84 19.94c-4.32 1.8-11.52 1.8-15.84 0L283.24-312c-2.52-1.06-3.6-2.5-3.12-3.84l-.12 11.8z" stroke="#000" stroke-opacity="0" fill="#ba141a"/><path d="M396.76-318.5c4.32 1.77 4.32 4.72 0 6.5l-48.84 19.97c-4.32 1.77-11.52 1.77-15.84 0L283.24-312c-4.32-1.78-4.32-4.73 0-6.5l48.84-19.98c4.32-1.77 11.52-1.77 15.84 0l48.84 20z" stroke="#000" stroke-opacity="0" fill="#ba141a"/><path d="M280-324.24c-.12 1.28.96 2.57 3.24 3.56l48.84 19.93c4.32 1.8 11.52 1.8 15.84 0l48.84-19.93c2.28-1 3.36-2.28 3.24-3.56v-11.43c.12 1.24-.96 2.53-3.24 3.48l-48.84 19.94c-4.32 1.8-11.52 1.8-15.84 0l-48.84-19.93c-2.52-1.05-3.6-2.48-3.12-3.84l-.12 11.8z" stroke="#000" stroke-opacity="0" fill="#ba141a"/><path d="M280-283.85c-.12 1.28.96 2.57 3.24 3.56l48.84 19.94c4.32 1.8 11.52 1.8 15.84 0l48.84-19.93c2.28-.98 3.36-2.27 3.24-3.55v-11.43c.12 1.24-.96 2.53-3.24 3.48l-48.84 19.94c-4.32 1.8-11.52 1.8-15.84 0l-48.84-19.94c-2.52-1.06-3.6-2.5-3.12-3.85l-.12 11.8z" stroke="#000" stroke-opacity="0" fill="#93171b"/><path d="M280-304.04c-.12 1.28.96 2.56 3.24 3.55l48.84 19.95c4.32 1.8 11.52 1.8 15.84 0l48.84-19.94c2.28-.98 3.36-2.26 3.24-3.54v-11.44c.12 1.25-.96 2.53-3.24 3.48l-48.84 19.94c-4.32 1.8-11.52 1.8-15.84 0L283.24-312c-2.52-1.06-3.6-2.5-3.12-3.84l-.12 11.8z" stroke="#000" stroke-opacity="0" fill="#93171b"/><path d="M280-324.24c-.12 1.28.96 2.57 3.24 3.56l48.84 19.93c4.32 1.8 11.52 1.8 15.84 0l48.84-19.93c2.28-1 3.36-2.28 3.24-3.56v-11.43c.12 1.24-.96 2.53-3.24 3.48l-48.84 19.94c-4.32 1.8-11.52 1.8-15.84 0l-48.84-19.93c-2.52-1.05-3.6-2.48-3.12-3.84l-.12 11.8z" stroke="#000" stroke-opacity="0" fill="#93171b"/><path d="M396.76-338.7c4.32 1.78 4.32 4.73 0 6.5l-48.84 19.98c-4.32 1.77-11.52 1.77-15.84 0l-48.84-20c-4.32-1.75-4.32-4.7 0-6.47l48.84-19.97c4.32-1.77 11.52-1.77 15.84 0l48.84 19.98z" stroke="#000" stroke-opacity="0" fill="#ba141a"/><path d="M325-331.68c-5.6 2.47-14.6 2.47-20.2 0-5.54-2.48-5.54-6.48 0-8.97 5.6-2.46 14.6-2.46 20.2 0 5.54 2.5 5.54 6.5 0 8.97zM321.2-325.32l28.55-3.4-7.65 12.68-20.9-9.28z" stroke="#000" stroke-opacity="0" fill="#fff"/><path d="M365.94-328.5l-17.07-7.6 17.07-7.58v15.17z" stroke="#000" stroke-opacity="0" fill="#76191c"/><path d="M334.53-345.37l-11.16-1 9.92-2.5-1.32-5 8.4 3.4 10.34-2.1-4.73 4.6 7.7 3.73-11.32-.58-5.6 4.4-2.25-4.95z" stroke="#000" stroke-opacity="0" fill="#fff"/><path d="M383.02-336.1l-17.08-7.58v15.17l17.08-7.6z" fill="#93171b"/><use xlink:href="#a" transform="matrix(1,0,0,1,250,-250) translate(33.99088541666666 21.328125)"/><path d="M460-543.85c-.12 1.28.96 2.57 3.24 3.56l48.84 19.94c4.32 1.8 11.52 1.8 15.84 0l48.84-19.93c2.28-.98 3.36-2.27 3.24-3.55v-11.43c.12 1.24-.96 2.53-3.24 3.48l-48.84 19.94c-4.32 1.8-11.52 1.8-15.84 0l-48.84-19.94c-2.52-1.06-3.6-2.5-3.12-3.85l-.12 11.8z" stroke="#000" stroke-opacity="0" fill="#ba141a"/><path d="M576.76-558.3c4.32 1.77 4.32 4.72 0 6.48l-48.84 20c-4.32 1.76-11.52 1.76-15.84 0l-48.84-20c-4.32-1.76-4.32-4.7 0-6.48l48.84-19.98c4.32-1.77 11.52-1.77 15.84 0l48.84 19.98z" stroke="#000" stroke-opacity="0" fill="#ba141a"/><path d="M460-564.04c-.12 1.28.96 2.56 3.24 3.55l48.84 19.95c4.32 1.8 11.52 1.8 15.84 0l48.84-19.94c2.28-.98 3.36-2.26 3.24-3.54v-11.44c.12 1.25-.96 2.53-3.24 3.48l-48.84 19.94c-4.32 1.8-11.52 1.8-15.84 0L463.24-572c-2.52-1.06-3.6-2.5-3.12-3.84l-.12 11.8z" stroke="#000" stroke-opacity="0" fill="#ba141a"/><path d="M576.76-578.5c4.32 1.77 4.32 4.72 0 6.5l-48.84 19.97c-4.32 1.77-11.52 1.77-15.84 0L463.24-572c-4.32-1.78-4.32-4.73 0-6.5l48.84-19.98c4.32-1.77 11.52-1.77 15.84 0l48.84 20z" stroke="#000" stroke-opacity="0" fill="#ba141a"/><path d="M460-584.24c-.12 1.28.96 2.57 3.24 3.56l48.84 19.93c4.32 1.8 11.52 1.8 15.84 0l48.84-19.93c2.28-1 3.36-2.28 3.24-3.56v-11.43c.12 1.24-.96 2.53-3.24 3.48l-48.84 19.94c-4.32 1.8-11.52 1.8-15.84 0l-48.84-19.93c-2.52-1.05-3.6-2.48-3.12-3.84l-.12 11.8z" stroke="#000" stroke-opacity="0" fill="#ba141a"/><path d="M460-543.85c-.12 1.28.96 2.57 3.24 3.56l48.84 19.94c4.32 1.8 11.52 1.8 15.84 0l48.84-19.93c2.28-.98 3.36-2.27 3.24-3.55v-11.43c.12 1.24-.96 2.53-3.24 3.48l-48.84 19.94c-4.32 1.8-11.52 1.8-15.84 0l-48.84-19.94c-2.52-1.06-3.6-2.5-3.12-3.85l-.12 11.8z" stroke="#000" stroke-opacity="0" fill="#93171b"/><path d="M460-564.04c-.12 1.28.96 2.56 3.24 3.55l48.84 19.95c4.32 1.8 11.52 1.8 15.84 0l48.84-19.94c2.28-.98 3.36-2.26 3.24-3.54v-11.44c.12 1.25-.96 2.53-3.24 3.48l-48.84 19.94c-4.32 1.8-11.52 1.8-15.84 0L463.24-572c-2.52-1.06-3.6-2.5-3.12-3.84l-.12 11.8z" stroke="#000" stroke-opacity="0" fill="#93171b"/><path d="M460-584.24c-.12 1.28.96 2.57 3.24 3.56l48.84 19.93c4.32 1.8 11.52 1.8 15.84 0l48.84-19.93c2.28-1 3.36-2.28 3.24-3.56v-11.43c.12 1.24-.96 2.53-3.24 3.48l-48.84 19.94c-4.32 1.8-11.52 1.8-15.84 0l-48.84-19.93c-2.52-1.05-3.6-2.48-3.12-3.84l-.12 11.8z" stroke="#000" stroke-opacity="0" fill="#93171b"/><path d="M576.76-598.7c4.32 1.78 4.32 4.73 0 6.5l-48.84 19.98c-4.32 1.77-11.52 1.77-15.84 0l-48.84-20c-4.32-1.75-4.32-4.7 0-6.47l48.84-19.97c4.32-1.77 11.52-1.77 15.84 0l48.84 19.98z" stroke="#000" stroke-opacity="0" fill="#ba141a"/><path d="M505-591.68c-5.6 2.47-14.6 2.47-20.2 0-5.54-2.48-5.54-6.48 0-8.97 5.6-2.46 14.6-2.46 20.2 0 5.54 2.5 5.54 6.5 0 8.97zM501.2-585.32l28.55-3.4-7.65 12.68-20.9-9.28z" stroke="#000" stroke-opacity="0" fill="#fff"/><path d="M545.94-588.5l-17.07-7.6 17.07-7.58v15.17z" stroke="#000" stroke-opacity="0" fill="#76191c"/><path d="M514.53-605.37l-11.16-1 9.92-2.5-1.32-5 8.4 3.4 10.34-2.1-4.73 4.6 7.7 3.73-11.32-.58-5.6 4.4-2.25-4.95z" stroke="#000" stroke-opacity="0" fill="#fff"/><path d="M563.02-596.1l-17.08-7.58v15.17l17.08-7.6z" fill="#93171b"/><use xlink:href="#b" transform="matrix(1,0,0,1,430,-510) translate(17.98828125 21.328125)"/><use xlink:href="#c" transform="matrix(1,0,0,1,430,-510) translate(146.00911458333334 21.328125)"/><path d="M640-283.85c-.12 1.28.96 2.57 3.24 3.56l48.84 19.94c4.32 1.8 11.52 1.8 15.84 0l48.84-19.93c2.28-.98 3.36-2.27 3.24-3.55v-11.43c.12 1.24-.96 2.53-3.24 3.48l-48.84 19.94c-4.32 1.8-11.52 1.8-15.84 0l-48.84-19.94c-2.52-1.06-3.6-2.5-3.12-3.85l-.12 11.8z" stroke="#000" stroke-opacity="0" fill="#ba141a"/><path d="M756.76-298.3c4.32 1.77 4.32 4.72 0 6.48l-48.84 20c-4.32 1.76-11.52 1.76-15.84 0l-48.84-20c-4.32-1.76-4.32-4.7 0-6.48l48.84-19.98c4.32-1.77 11.52-1.77 15.84 0l48.84 19.98z" stroke="#000" stroke-opacity="0" fill="#ba141a"/><path d="M640-304.04c-.12 1.28.96 2.56 3.24 3.55l48.84 19.95c4.32 1.8 11.52 1.8 15.84 0l48.84-19.94c2.28-.98 3.36-2.26 3.24-3.54v-11.44c.12 1.25-.96 2.53-3.24 3.48l-48.84 19.94c-4.32 1.8-11.52 1.8-15.84 0L643.24-312c-2.52-1.06-3.6-2.5-3.12-3.84l-.12 11.8z" stroke="#000" stroke-opacity="0" fill="#ba141a"/><path d="M756.76-318.5c4.32 1.77 4.32 4.72 0 6.5l-48.84 19.97c-4.32 1.77-11.52 1.77-15.84 0L643.24-312c-4.32-1.78-4.32-4.73 0-6.5l48.84-19.98c4.32-1.77 11.52-1.77 15.84 0l48.84 20z" stroke="#000" stroke-opacity="0" fill="#ba141a"/><path d="M640-324.24c-.12 1.28.96 2.57 3.24 3.56l48.84 19.93c4.32 1.8 11.52 1.8 15.84 0l48.84-19.93c2.28-1 3.36-2.28 3.24-3.56v-11.43c.12 1.24-.96 2.53-3.24 3.48l-48.84 19.94c-4.32 1.8-11.52 1.8-15.84 0l-48.84-19.93c-2.52-1.05-3.6-2.48-3.12-3.84l-.12 11.8z" stroke="#000" stroke-opacity="0" fill="#ba141a"/><path d="M640-283.85c-.12 1.28.96 2.57 3.24 3.56l48.84 19.94c4.32 1.8 11.52 1.8 15.84 0l48.84-19.93c2.28-.98 3.36-2.27 3.24-3.55v-11.43c.12 1.24-.96 2.53-3.24 3.48l-48.84 19.94c-4.32 1.8-11.52 1.8-15.84 0l-48.84-19.94c-2.52-1.06-3.6-2.5-3.12-3.85l-.12 11.8z" stroke="#000" stroke-opacity="0" fill="#93171b"/><path d="M640-304.04c-.12 1.28.96 2.56 3.24 3.55l48.84 19.95c4.32 1.8 11.52 1.8 15.84 0l48.84-19.94c2.28-.98 3.36-2.26 3.24-3.54v-11.44c.12 1.25-.96 2.53-3.24 3.48l-48.84 19.94c-4.32 1.8-11.52 1.8-15.84 0L643.24-312c-2.52-1.06-3.6-2.5-3.12-3.84l-.12 11.8z" stroke="#000" stroke-opacity="0" fill="#93171b"/><path d="M640-324.24c-.12 1.28.96 2.57 3.24 3.56l48.84 19.93c4.32 1.8 11.52 1.8 15.84 0l48.84-19.93c2.28-1 3.36-2.28 3.24-3.56v-11.43c.12 1.24-.96 2.53-3.24 3.48l-48.84 19.94c-4.32 1.8-11.52 1.8-15.84 0l-48.84-19.93c-2.52-1.05-3.6-2.48-3.12-3.84l-.12 11.8z" stroke="#000" stroke-opacity="0" fill="#93171b"/><path d="M756.76-338.7c4.32 1.78 4.32 4.73 0 6.5l-48.84 19.98c-4.32 1.77-11.52 1.77-15.84 0l-48.84-20c-4.32-1.75-4.32-4.7 0-6.47l48.84-19.97c4.32-1.77 11.52-1.77 15.84 0l48.84 19.98z" stroke="#000" stroke-opacity="0" fill="#ba141a"/><path d="M685-331.68c-5.6 2.47-14.6 2.47-20.2 0-5.54-2.48-5.54-6.48 0-8.97 5.6-2.46 14.6-2.46 20.2 0 5.54 2.5 5.54 6.5 0 8.97zM681.2-325.32l28.55-3.4-7.65 12.68-20.9-9.28z" stroke="#000" stroke-opacity="0" fill="#fff"/><path d="M725.94-328.5l-17.07-7.6 17.07-7.58v15.17z" stroke="#000" stroke-opacity="0" fill="#76191c"/><path d="M694.53-345.37l-11.16-1 9.92-2.5-1.32-5 8.4 3.4 10.34-2.1-4.73 4.6 7.7 3.73-11.32-.58-5.6 4.4-2.25-4.95z" stroke="#000" stroke-opacity="0" fill="#fff"/><path d="M743.02-336.1l-17.08-7.58v15.17l17.08-7.6z" fill="#93171b"/><use xlink:href="#a" transform="matrix(1,0,0,1,610,-250) translate(33.99088541666666 21.328125)"/><path d="M499.24-479.35l-129.16 111.9M499.22-479.33l.78-.67" stroke="#000" stroke-width="2" fill="none"/><path d="M358.54-357.45l7.75-12.84 6.06 7.02z" stroke="#000" stroke-width="2"/><path d="M540.8-479.4l144.4 108.5M540.82-479.38L540-480" stroke="#000" stroke-width="2" fill="none"/><path d="M697.4-361.72l-14.18-4.86 5.57-7.42z" stroke="#000" stroke-width="2"/><path d="M1112.9-1021.84l51.44-29.15v-58.14l-51.45 29.07v58.23z" fill="#fff"/><path d="M1061.55-1051.02l51.38 29.12v-58.15l-51.38-29.04v58.08zM1164-1109.1l-51.07-28.9-51.05 28.9 51.05 28.87 51.06-28.88z" fill="#fff"/><path d="M1112.93-1081.94l48.08-27.17-.04-.04-48.03 27.2zM1064.9-1109.14l-.06.03 48.1 27.16-48.05-27.2z" fill="#fff"/><path d="M1164.2-1110.96l-51.3-29.04-51.3 29.04-1.6.96v60l51.4 29.04 1.6.96 1.6-.96L1166-1050v-60zm-1.6 59.04l-48 27.24v-54.48l48.1-27.12zm-51.3 27.24l-48.12-27.24v-54.36l48.12 27.12zm-46.42-84.48l48-27.12 48.14 27.12-48.13 27.24-48.02-27.24z" fill="#444"/><path d="M1113.14-1048.67l27.63-15.65v-31.2l-27.63 15.6v31.25zM1085.08-1064.32l27.63 15.65v-31.25l-27.62-15.6v31.2zM1140.48-1095.94l-27.55-15.56-27.55 15.56 27.55 15.63 27.55-15.64z" fill="#5a69a4"/><path d="M1112.93-1081.9l24.77-14-.03-.04-24.74 14.02zM1088.17-1095.94l-.03.03 24.78 14v-.02l-24.75-14.02z" fill="#96bf3d"/><path d="M1140.95-1097.83l-28-15.8-28.08 15.8-1.6.94v33.7l28 15.86 1.67.94 1.6-.94 28.08-15.87v-33.7zm-1.6 32.74l-24.8 14.06v-28.1l24.8-13.98zm-28.07 14.06l-24.8-14.05v-28.02l24.8 13.98zm-23.1-44.9l24.76-14 24.75 14-24.76 14.05-24.8-13.98z" fill="#fff"/><use xlink:href="#d" transform="matrix(1,0,0,1,1060,-1020) translate(6.608333333333363 30.399999999999984)"/><path d="M840-283.85c-.12 1.28.96 2.57 3.24 3.56l48.84 19.94c4.32 1.8 11.52 1.8 15.84 0l48.84-19.93c2.28-.98 3.36-2.27 3.24-3.55v-11.43c.12 1.24-.96 2.53-3.24 3.48l-48.84 19.94c-4.32 1.8-11.52 1.8-15.84 0l-48.84-19.94c-2.52-1.06-3.6-2.5-3.12-3.85l-.12 11.8z" stroke="#000" stroke-opacity="0" fill="#ba141a"/><path d="M956.76-298.3c4.32 1.77 4.32 4.72 0 6.48l-48.84 20c-4.32 1.76-11.52 1.76-15.84 0l-48.84-20c-4.32-1.76-4.32-4.7 0-6.48l48.84-19.98c4.32-1.77 11.52-1.77 15.84 0l48.84 19.98z" stroke="#000" stroke-opacity="0" fill="#ba141a"/><path d="M840-304.04c-.12 1.28.96 2.56 3.24 3.55l48.84 19.95c4.32 1.8 11.52 1.8 15.84 0l48.84-19.94c2.28-.98 3.36-2.26 3.24-3.54v-11.44c.12 1.25-.96 2.53-3.24 3.48l-48.84 19.94c-4.32 1.8-11.52 1.8-15.84 0L843.24-312c-2.52-1.06-3.6-2.5-3.12-3.84l-.12 11.8z" stroke="#000" stroke-opacity="0" fill="#ba141a"/><path d="M956.76-318.5c4.32 1.77 4.32 4.72 0 6.5l-48.84 19.97c-4.32 1.77-11.52 1.77-15.84 0L843.24-312c-4.32-1.78-4.32-4.73 0-6.5l48.84-19.98c4.32-1.77 11.52-1.77 15.84 0l48.84 20z" stroke="#000" stroke-opacity="0" fill="#ba141a"/><path d="M840-324.24c-.12 1.28.96 2.57 3.24 3.56l48.84 19.93c4.32 1.8 11.52 1.8 15.84 0l48.84-19.93c2.28-1 3.36-2.28 3.24-3.56v-11.43c.12 1.24-.96 2.53-3.24 3.48l-48.84 19.94c-4.32 1.8-11.52 1.8-15.84 0l-48.84-19.93c-2.52-1.05-3.6-2.48-3.12-3.84l-.12 11.8z" stroke="#000" stroke-opacity="0" fill="#ba141a"/><path d="M840-283.85c-.12 1.28.96 2.57 3.24 3.56l48.84 19.94c4.32 1.8 11.52 1.8 15.84 0l48.84-19.93c2.28-.98 3.36-2.27 3.24-3.55v-11.43c.12 1.24-.96 2.53-3.24 3.48l-48.84 19.94c-4.32 1.8-11.52 1.8-15.84 0l-48.84-19.94c-2.52-1.06-3.6-2.5-3.12-3.85l-.12 11.8z" stroke="#000" stroke-opacity="0" fill="#93171b"/><path d="M840-304.04c-.12 1.28.96 2.56 3.24 3.55l48.84 19.95c4.32 1.8 11.52 1.8 15.84 0l48.84-19.94c2.28-.98 3.36-2.26 3.24-3.54v-11.44c.12 1.25-.96 2.53-3.24 3.48l-48.84 19.94c-4.32 1.8-11.52 1.8-15.84 0L843.24-312c-2.52-1.06-3.6-2.5-3.12-3.84l-.12 11.8z" stroke="#000" stroke-opacity="0" fill="#93171b"/><path d="M840-324.24c-.12 1.28.96 2.57 3.24 3.56l48.84 19.93c4.32 1.8 11.52 1.8 15.84 0l48.84-19.93c2.28-1 3.36-2.28 3.24-3.56v-11.43c.12 1.24-.96 2.53-3.24 3.48l-48.84 19.94c-4.32 1.8-11.52 1.8-15.84 0l-48.84-19.93c-2.52-1.05-3.6-2.48-3.12-3.84l-.12 11.8z" stroke="#000" stroke-opacity="0" fill="#93171b"/><path d="M956.76-338.7c4.32 1.78 4.32 4.73 0 6.5l-48.84 19.98c-4.32 1.77-11.52 1.77-15.84 0l-48.84-20c-4.32-1.75-4.32-4.7 0-6.47l48.84-19.97c4.32-1.77 11.52-1.77 15.84 0l48.84 19.98z" stroke="#000" stroke-opacity="0" fill="#ba141a"/><path d="M885-331.68c-5.6 2.47-14.6 2.47-20.2 0-5.54-2.48-5.54-6.48 0-8.97 5.6-2.46 14.6-2.46 20.2 0 5.54 2.5 5.54 6.5 0 8.97zM881.2-325.32l28.55-3.4-7.65 12.68-20.9-9.28z" stroke="#000" stroke-opacity="0" fill="#fff"/><path d="M925.94-328.5l-17.07-7.6 17.07-7.58v15.17z" stroke="#000" stroke-opacity="0" fill="#76191c"/><path d="M894.53-345.37l-11.16-1 9.92-2.5-1.32-5 8.4 3.4 10.34-2.1-4.73 4.6 7.7 3.73-11.32-.58-5.6 4.4-2.25-4.95z" stroke="#000" stroke-opacity="0" fill="#fff"/><path d="M943.02-336.1l-17.08-7.58v15.17l17.08-7.6z" fill="#93171b"/><use xlink:href="#a" transform="matrix(1,0,0,1,810,-250) translate(33.99088541666666 21.328125)"/><path d="M1020-543.85c-.12 1.28.96 2.57 3.24 3.56l48.84 19.94c4.32 1.8 11.52 1.8 15.84 0l48.84-19.93c2.28-.98 3.36-2.27 3.24-3.55v-11.43c.12 1.24-.96 2.53-3.24 3.48l-48.84 19.94c-4.32 1.8-11.52 1.8-15.84 0l-48.84-19.94c-2.52-1.06-3.6-2.5-3.12-3.85l-.12 11.8z" stroke="#000" stroke-opacity="0" fill="#ba141a"/><path d="M1136.76-558.3c4.32 1.77 4.32 4.72 0 6.48l-48.84 20c-4.32 1.76-11.52 1.76-15.84 0l-48.84-20c-4.32-1.76-4.32-4.7 0-6.48l48.84-19.98c4.32-1.77 11.52-1.77 15.84 0l48.84 19.98z" stroke="#000" stroke-opacity="0" fill="#ba141a"/><path d="M1020-564.04c-.12 1.28.96 2.56 3.24 3.55l48.84 19.95c4.32 1.8 11.52 1.8 15.84 0l48.84-19.94c2.28-.98 3.36-2.26 3.24-3.54v-11.44c.12 1.25-.96 2.53-3.24 3.48l-48.84 19.94c-4.32 1.8-11.52 1.8-15.84 0L1023.24-572c-2.52-1.06-3.6-2.5-3.12-3.84l-.12 11.8z" stroke="#000" stroke-opacity="0" fill="#ba141a"/><path d="M1136.76-578.5c4.32 1.77 4.32 4.72 0 6.5l-48.84 19.97c-4.32 1.77-11.52 1.77-15.84 0L1023.24-572c-4.32-1.78-4.32-4.73 0-6.5l48.84-19.98c4.32-1.77 11.52-1.77 15.84 0l48.84 20z" stroke="#000" stroke-opacity="0" fill="#ba141a"/><path d="M1020-584.24c-.12 1.28.96 2.57 3.24 3.56l48.84 19.93c4.32 1.8 11.52 1.8 15.84 0l48.84-19.93c2.28-1 3.36-2.28 3.24-3.56v-11.43c.12 1.24-.96 2.53-3.24 3.48l-48.84 19.94c-4.32 1.8-11.52 1.8-15.84 0l-48.84-19.93c-2.52-1.05-3.6-2.48-3.12-3.84l-.12 11.8z" stroke="#000" stroke-opacity="0" fill="#ba141a"/><path d="M1020-543.85c-.12 1.28.96 2.57 3.24 3.56l48.84 19.94c4.32 1.8 11.52 1.8 15.84 0l48.84-19.93c2.28-.98 3.36-2.27 3.24-3.55v-11.43c.12 1.24-.96 2.53-3.24 3.48l-48.84 19.94c-4.32 1.8-11.52 1.8-15.84 0l-48.84-19.94c-2.52-1.06-3.6-2.5-3.12-3.85l-.12 11.8z" stroke="#000" stroke-opacity="0" fill="#93171b"/><path d="M1020-564.04c-.12 1.28.96 2.56 3.24 3.55l48.84 19.95c4.32 1.8 11.52 1.8 15.84 0l48.84-19.94c2.28-.98 3.36-2.26 3.24-3.54v-11.44c.12 1.25-.96 2.53-3.24 3.48l-48.84 19.94c-4.32 1.8-11.52 1.8-15.84 0L1023.24-572c-2.52-1.06-3.6-2.5-3.12-3.84l-.12 11.8z" stroke="#000" stroke-opacity="0" fill="#93171b"/><path d="M1020-584.24c-.12 1.28.96 2.57 3.24 3.56l48.84 19.93c4.32 1.8 11.52 1.8 15.84 0l48.84-19.93c2.28-1 3.36-2.28 3.24-3.56v-11.43c.12 1.24-.96 2.53-3.24 3.48l-48.84 19.94c-4.32 1.8-11.52 1.8-15.84 0l-48.84-19.93c-2.52-1.05-3.6-2.48-3.12-3.84l-.12 11.8z" stroke="#000" stroke-opacity="0" fill="#93171b"/><path d="M1136.76-598.7c4.32 1.78 4.32 4.73 0 6.5l-48.84 19.98c-4.32 1.77-11.52 1.77-15.84 0l-48.84-20c-4.32-1.75-4.32-4.7 0-6.47l48.84-19.97c4.32-1.77 11.52-1.77 15.84 0l48.84 19.98z" stroke="#000" stroke-opacity="0" fill="#ba141a"/><path d="M1065-591.68c-5.6 2.47-14.6 2.47-20.2 0-5.54-2.48-5.54-6.48 0-8.97 5.6-2.46 14.6-2.46 20.2 0 5.54 2.5 5.54 6.5 0 8.97zM1061.2-585.32l28.55-3.4-7.65 12.68-20.9-9.28z" stroke="#000" stroke-opacity="0" fill="#fff"/><path d="M1105.94-588.5l-17.07-7.6 17.07-7.58v15.17z" stroke="#000" stroke-opacity="0" fill="#76191c"/><path d="M1074.53-605.37l-11.16-1 9.92-2.5-1.32-5 8.4 3.4 10.34-2.1-4.73 4.6 7.7 3.73-11.32-.58-5.6 4.4-2.25-4.95z" stroke="#000" stroke-opacity="0" fill="#fff"/><path d="M1123.02-596.1l-17.08-7.58v15.17l17.08-7.6z" fill="#93171b"/><use xlink:href="#b" transform="matrix(1,0,0,1,990,-510) translate(17.98828125 21.328125)"/><use xlink:href="#e" transform="matrix(1,0,0,1,990,-510) translate(146.00911458333334 21.328125)"/><path d="M1200-283.85c-.12 1.28.96 2.57 3.24 3.56l48.84 19.94c4.32 1.8 11.52 1.8 15.84 0l48.84-19.93c2.28-.98 3.36-2.27 3.24-3.55v-11.43c.12 1.24-.96 2.53-3.24 3.48l-48.84 19.94c-4.32 1.8-11.52 1.8-15.84 0l-48.84-19.94c-2.52-1.06-3.6-2.5-3.12-3.85l-.12 11.8z" stroke="#000" stroke-opacity="0" fill="#ba141a"/><path d="M1316.76-298.3c4.32 1.77 4.32 4.72 0 6.48l-48.84 20c-4.32 1.76-11.52 1.76-15.84 0l-48.84-20c-4.32-1.76-4.32-4.7 0-6.48l48.84-19.98c4.32-1.77 11.52-1.77 15.84 0l48.84 19.98z" stroke="#000" stroke-opacity="0" fill="#ba141a"/><path d="M1200-304.04c-.12 1.28.96 2.56 3.24 3.55l48.84 19.95c4.32 1.8 11.52 1.8 15.84 0l48.84-19.94c2.28-.98 3.36-2.26 3.24-3.54v-11.44c.12 1.25-.96 2.53-3.24 3.48l-48.84 19.94c-4.32 1.8-11.52 1.8-15.84 0L1203.24-312c-2.52-1.06-3.6-2.5-3.12-3.84l-.12 11.8z" stroke="#000" stroke-opacity="0" fill="#ba141a"/><path d="M1316.76-318.5c4.32 1.77 4.32 4.72 0 6.5l-48.84 19.97c-4.32 1.77-11.52 1.77-15.84 0L1203.24-312c-4.32-1.78-4.32-4.73 0-6.5l48.84-19.98c4.32-1.77 11.52-1.77 15.84 0l48.84 20z" stroke="#000" stroke-opacity="0" fill="#ba141a"/><path d="M1200-324.24c-.12 1.28.96 2.57 3.24 3.56l48.84 19.93c4.32 1.8 11.52 1.8 15.84 0l48.84-19.93c2.28-1 3.36-2.28 3.24-3.56v-11.43c.12 1.24-.96 2.53-3.24 3.48l-48.84 19.94c-4.32 1.8-11.52 1.8-15.84 0l-48.84-19.93c-2.52-1.05-3.6-2.48-3.12-3.84l-.12 11.8z" stroke="#000" stroke-opacity="0" fill="#ba141a"/><path d="M1200-283.85c-.12 1.28.96 2.57 3.24 3.56l48.84 19.94c4.32 1.8 11.52 1.8 15.84 0l48.84-19.93c2.28-.98 3.36-2.27 3.24-3.55v-11.43c.12 1.24-.96 2.53-3.24 3.48l-48.84 19.94c-4.32 1.8-11.52 1.8-15.84 0l-48.84-19.94c-2.52-1.06-3.6-2.5-3.12-3.85l-.12 11.8z" stroke="#000" stroke-opacity="0" fill="#93171b"/><path d="M1200-304.04c-.12 1.28.96 2.56 3.24 3.55l48.84 19.95c4.32 1.8 11.52 1.8 15.84 0l48.84-19.94c2.28-.98 3.36-2.26 3.24-3.54v-11.44c.12 1.25-.96 2.53-3.24 3.48l-48.84 19.94c-4.32 1.8-11.52 1.8-15.84 0L1203.24-312c-2.52-1.06-3.6-2.5-3.12-3.84l-.12 11.8z" stroke="#000" stroke-opacity="0" fill="#93171b"/><path d="M1200-324.24c-.12 1.28.96 2.57 3.24 3.56l48.84 19.93c4.32 1.8 11.52 1.8 15.84 0l48.84-19.93c2.28-1 3.36-2.28 3.24-3.56v-11.43c.12 1.24-.96 2.53-3.24 3.48l-48.84 19.94c-4.32 1.8-11.52 1.8-15.84 0l-48.84-19.93c-2.52-1.05-3.6-2.48-3.12-3.84l-.12 11.8z" stroke="#000" stroke-opacity="0" fill="#93171b"/><path d="M1316.76-338.7c4.32 1.78 4.32 4.73 0 6.5l-48.84 19.98c-4.32 1.77-11.52 1.77-15.84 0l-48.84-20c-4.32-1.75-4.32-4.7 0-6.47l48.84-19.97c4.32-1.77 11.52-1.77 15.84 0l48.84 19.98z" stroke="#000" stroke-opacity="0" fill="#ba141a"/><path d="M1245-331.68c-5.6 2.47-14.6 2.47-20.2 0-5.54-2.48-5.54-6.48 0-8.97 5.6-2.46 14.6-2.46 20.2 0 5.54 2.5 5.54 6.5 0 8.97zM1241.2-325.32l28.55-3.4-7.65 12.68-20.9-9.28z" stroke="#000" stroke-opacity="0" fill="#fff"/><path d="M1285.94-328.5l-17.07-7.6 17.07-7.58v15.17z" stroke="#000" stroke-opacity="0" fill="#76191c"/><path d="M1254.53-345.37l-11.16-1 9.92-2.5-1.32-5 8.4 3.4 10.34-2.1-4.73 4.6 7.7 3.73-11.32-.58-5.6 4.4-2.25-4.95z" stroke="#000" stroke-opacity="0" fill="#fff"/><path d="M1303.02-336.1l-17.08-7.58v15.17l17.08-7.6z" fill="#93171b"/><use xlink:href="#a" transform="matrix(1,0,0,1,1170,-250) translate(33.99088541666666 21.328125)"/><path d="M1059.24-479.35l-129.16 111.9M1059.22-479.33l.78-.67" stroke="#000" stroke-width="2" fill="none"/><path d="M918.54-357.45l7.75-12.84 6.06 7.02z" stroke="#000" stroke-width="2"/><path d="M1100.8-479.4l144.4 108.5M1100.82-479.38l-.82-.62" stroke="#000" stroke-width="2" fill="none"/><path d="M1257.4-361.72l-14.18-4.86 5.57-7.42z" stroke="#000" stroke-width="2"/><path d="M1500-283.85c-.12 1.28.96 2.57 3.24 3.56l48.84 19.94c4.32 1.8 11.52 1.8 15.84 0l48.84-19.93c2.28-.98 3.36-2.27 3.24-3.55v-11.43c.12 1.24-.96 2.53-3.24 3.48l-48.84 19.94c-4.32 1.8-11.52 1.8-15.84 0l-48.84-19.94c-2.52-1.06-3.6-2.5-3.12-3.85l-.12 11.8z" stroke="#000" stroke-opacity="0" fill="#ba141a"/><path d="M1616.76-298.3c4.32 1.77 4.32 4.72 0 6.48l-48.84 20c-4.32 1.76-11.52 1.76-15.84 0l-48.84-20c-4.32-1.76-4.32-4.7 0-6.48l48.84-19.98c4.32-1.77 11.52-1.77 15.84 0l48.84 19.98z" stroke="#000" stroke-opacity="0" fill="#ba141a"/><path d="M1500-304.04c-.12 1.28.96 2.56 3.24 3.55l48.84 19.95c4.32 1.8 11.52 1.8 15.84 0l48.84-19.94c2.28-.98 3.36-2.26 3.24-3.54v-11.44c.12 1.25-.96 2.53-3.24 3.48l-48.84 19.94c-4.32 1.8-11.52 1.8-15.84 0L1503.24-312c-2.52-1.06-3.6-2.5-3.12-3.84l-.12 11.8z" stroke="#000" stroke-opacity="0" fill="#ba141a"/><path d="M1616.76-318.5c4.32 1.77 4.32 4.72 0 6.5l-48.84 19.97c-4.32 1.77-11.52 1.77-15.84 0L1503.24-312c-4.32-1.78-4.32-4.73 0-6.5l48.84-19.98c4.32-1.77 11.52-1.77 15.84 0l48.84 20z" stroke="#000" stroke-opacity="0" fill="#ba141a"/><path d="M1500-324.24c-.12 1.28.96 2.57 3.24 3.56l48.84 19.93c4.32 1.8 11.52 1.8 15.84 0l48.84-19.93c2.28-1 3.36-2.28 3.24-3.56v-11.43c.12 1.24-.96 2.53-3.24 3.48l-48.84 19.94c-4.32 1.8-11.52 1.8-15.84 0l-48.84-19.93c-2.52-1.05-3.6-2.48-3.12-3.84l-.12 11.8z" stroke="#000" stroke-opacity="0" fill="#ba141a"/><path d="M1500-283.85c-.12 1.28.96 2.57 3.24 3.56l48.84 19.94c4.32 1.8 11.52 1.8 15.84 0l48.84-19.93c2.28-.98 3.36-2.27 3.24-3.55v-11.43c.12 1.24-.96 2.53-3.24 3.48l-48.84 19.94c-4.32 1.8-11.52 1.8-15.84 0l-48.84-19.94c-2.52-1.06-3.6-2.5-3.12-3.85l-.12 11.8z" stroke="#000" stroke-opacity="0" fill="#93171b"/><path d="M1500-304.04c-.12 1.28.96 2.56 3.24 3.55l48.84 19.95c4.32 1.8 11.52 1.8 15.84 0l48.84-19.94c2.28-.98 3.36-2.26 3.24-3.54v-11.44c.12 1.25-.96 2.53-3.24 3.48l-48.84 19.94c-4.32 1.8-11.52 1.8-15.84 0L1503.24-312c-2.52-1.06-3.6-2.5-3.12-3.84l-.12 11.8z" stroke="#000" stroke-opacity="0" fill="#93171b"/><path d="M1500-324.24c-.12 1.28.96 2.57 3.24 3.56l48.84 19.93c4.32 1.8 11.52 1.8 15.84 0l48.84-19.93c2.28-1 3.36-2.28 3.24-3.56v-11.43c.12 1.24-.96 2.53-3.24 3.48l-48.84 19.94c-4.32 1.8-11.52 1.8-15.84 0l-48.84-19.93c-2.52-1.05-3.6-2.48-3.12-3.84l-.12 11.8z" stroke="#000" stroke-opacity="0" fill="#93171b"/><path d="M1616.76-338.7c4.32 1.78 4.32 4.73 0 6.5l-48.84 19.98c-4.32 1.77-11.52 1.77-15.84 0l-48.84-20c-4.32-1.75-4.32-4.7 0-6.47l48.84-19.97c4.32-1.77 11.52-1.77 15.84 0l48.84 19.98z" stroke="#000" stroke-opacity="0" fill="#ba141a"/><path d="M1545-331.68c-5.6 2.47-14.6 2.47-20.2 0-5.54-2.48-5.54-6.48 0-8.97 5.6-2.46 14.6-2.46 20.2 0 5.54 2.5 5.54 6.5 0 8.97zM1541.2-325.32l28.55-3.4-7.65 12.68-20.9-9.28z" stroke="#000" stroke-opacity="0" fill="#fff"/><path d="M1585.94-328.5l-17.07-7.6 17.07-7.58v15.17z" stroke="#000" stroke-opacity="0" fill="#76191c"/><path d="M1554.53-345.37l-11.16-1 9.92-2.5-1.32-5 8.4 3.4 10.34-2.1-4.73 4.6 7.7 3.73-11.32-.58-5.6 4.4-2.25-4.95z" stroke="#000" stroke-opacity="0" fill="#fff"/><path d="M1603.02-336.1l-17.08-7.58v15.17l17.08-7.6z" fill="#93171b"/><use xlink:href="#a" transform="matrix(1,0,0,1,1470,-250) translate(33.99088541666666 21.328125)"/><path d="M1680-543.85c-.12 1.28.96 2.57 3.24 3.56l48.84 19.94c4.32 1.8 11.52 1.8 15.84 0l48.84-19.93c2.28-.98 3.36-2.27 3.24-3.55v-11.43c.12 1.24-.96 2.53-3.24 3.48l-48.84 19.94c-4.32 1.8-11.52 1.8-15.84 0l-48.84-19.94c-2.52-1.06-3.6-2.5-3.12-3.85l-.12 11.8z" stroke="#000" stroke-opacity="0" fill="#ba141a"/><path d="M1796.76-558.3c4.32 1.77 4.32 4.72 0 6.48l-48.84 20c-4.32 1.76-11.52 1.76-15.84 0l-48.84-20c-4.32-1.76-4.32-4.7 0-6.48l48.84-19.98c4.32-1.77 11.52-1.77 15.84 0l48.84 19.98z" stroke="#000" stroke-opacity="0" fill="#ba141a"/><path d="M1680-564.04c-.12 1.28.96 2.56 3.24 3.55l48.84 19.95c4.32 1.8 11.52 1.8 15.84 0l48.84-19.94c2.28-.98 3.36-2.26 3.24-3.54v-11.44c.12 1.25-.96 2.53-3.24 3.48l-48.84 19.94c-4.32 1.8-11.52 1.8-15.84 0L1683.24-572c-2.52-1.06-3.6-2.5-3.12-3.84l-.12 11.8z" stroke="#000" stroke-opacity="0" fill="#ba141a"/><path d="M1796.76-578.5c4.32 1.77 4.32 4.72 0 6.5l-48.84 19.97c-4.32 1.77-11.52 1.77-15.84 0L1683.24-572c-4.32-1.78-4.32-4.73 0-6.5l48.84-19.98c4.32-1.77 11.52-1.77 15.84 0l48.84 20z" stroke="#000" stroke-opacity="0" fill="#ba141a"/><path d="M1680-584.24c-.12 1.28.96 2.57 3.24 3.56l48.84 19.93c4.32 1.8 11.52 1.8 15.84 0l48.84-19.93c2.28-1 3.36-2.28 3.24-3.56v-11.43c.12 1.24-.96 2.53-3.24 3.48l-48.84 19.94c-4.32 1.8-11.52 1.8-15.84 0l-48.84-19.93c-2.52-1.05-3.6-2.48-3.12-3.84l-.12 11.8z" stroke="#000" stroke-opacity="0" fill="#ba141a"/><path d="M1680-543.85c-.12 1.28.96 2.57 3.24 3.56l48.84 19.94c4.32 1.8 11.52 1.8 15.84 0l48.84-19.93c2.28-.98 3.36-2.27 3.24-3.55v-11.43c.12 1.24-.96 2.53-3.24 3.48l-48.84 19.94c-4.32 1.8-11.52 1.8-15.84 0l-48.84-19.94c-2.52-1.06-3.6-2.5-3.12-3.85l-.12 11.8z" stroke="#000" stroke-opacity="0" fill="#93171b"/><path d="M1680-564.04c-.12 1.28.96 2.56 3.24 3.55l48.84 19.95c4.32 1.8 11.52 1.8 15.84 0l48.84-19.94c2.28-.98 3.36-2.26 3.24-3.54v-11.44c.12 1.25-.96 2.53-3.24 3.48l-48.84 19.94c-4.32 1.8-11.52 1.8-15.84 0L1683.24-572c-2.52-1.06-3.6-2.5-3.12-3.84l-.12 11.8z" stroke="#000" stroke-opacity="0" fill="#93171b"/><path d="M1680-584.24c-.12 1.28.96 2.57 3.24 3.56l48.84 19.93c4.32 1.8 11.52 1.8 15.84 0l48.84-19.93c2.28-1 3.36-2.28 3.24-3.56v-11.43c.12 1.24-.96 2.53-3.24 3.48l-48.84 19.94c-4.32 1.8-11.52 1.8-15.84 0l-48.84-19.93c-2.52-1.05-3.6-2.48-3.12-3.84l-.12 11.8z" stroke="#000" stroke-opacity="0" fill="#93171b"/><path d="M1796.76-598.7c4.32 1.78 4.32 4.73 0 6.5l-48.84 19.98c-4.32 1.77-11.52 1.77-15.84 0l-48.84-20c-4.32-1.75-4.32-4.7 0-6.47l48.84-19.97c4.32-1.77 11.52-1.77 15.84 0l48.84 19.98z" stroke="#000" stroke-opacity="0" fill="#ba141a"/><path d="M1725-591.68c-5.6 2.47-14.6 2.47-20.2 0-5.54-2.48-5.54-6.48 0-8.97 5.6-2.46 14.6-2.46 20.2 0 5.54 2.5 5.54 6.5 0 8.97zM1721.2-585.32l28.55-3.4-7.65 12.68-20.9-9.28z" stroke="#000" stroke-opacity="0" fill="#fff"/><path d="M1765.94-588.5l-17.07-7.6 17.07-7.58v15.17z" stroke="#000" stroke-opacity="0" fill="#76191c"/><path d="M1734.53-605.37l-11.16-1 9.92-2.5-1.32-5 8.4 3.4 10.34-2.1-4.73 4.6 7.7 3.73-11.32-.58-5.6 4.4-2.25-4.95z" stroke="#000" stroke-opacity="0" fill="#fff"/><path d="M1783.02-596.1l-17.08-7.58v15.17l17.08-7.6z" fill="#93171b"/><use xlink:href="#b" transform="matrix(1,0,0,1,1650,-510) translate(17.98828125 21.328125)"/><use xlink:href="#f" transform="matrix(1,0,0,1,1650,-510) translate(146.00911458333334 21.328125)"/><path d="M1860-283.85c-.12 1.28.96 2.57 3.24 3.56l48.84 19.94c4.32 1.8 11.52 1.8 15.84 0l48.84-19.93c2.28-.98 3.36-2.27 3.24-3.55v-11.43c.12 1.24-.96 2.53-3.24 3.48l-48.84 19.94c-4.32 1.8-11.52 1.8-15.84 0l-48.84-19.94c-2.52-1.06-3.6-2.5-3.12-3.85l-.12 11.8z" stroke="#000" stroke-opacity="0" fill="#ba141a"/><path d="M1976.76-298.3c4.32 1.77 4.32 4.72 0 6.48l-48.84 20c-4.32 1.76-11.52 1.76-15.84 0l-48.84-20c-4.32-1.76-4.32-4.7 0-6.48l48.84-19.98c4.32-1.77 11.52-1.77 15.84 0l48.84 19.98z" stroke="#000" stroke-opacity="0" fill="#ba141a"/><path d="M1860-304.04c-.12 1.28.96 2.56 3.24 3.55l48.84 19.95c4.32 1.8 11.52 1.8 15.84 0l48.84-19.94c2.28-.98 3.36-2.26 3.24-3.54v-11.44c.12 1.25-.96 2.53-3.24 3.48l-48.84 19.94c-4.32 1.8-11.52 1.8-15.84 0L1863.24-312c-2.52-1.06-3.6-2.5-3.12-3.84l-.12 11.8z" stroke="#000" stroke-opacity="0" fill="#ba141a"/><path d="M1976.76-318.5c4.32 1.77 4.32 4.72 0 6.5l-48.84 19.97c-4.32 1.77-11.52 1.77-15.84 0L1863.24-312c-4.32-1.78-4.32-4.73 0-6.5l48.84-19.98c4.32-1.77 11.52-1.77 15.84 0l48.84 20z" stroke="#000" stroke-opacity="0" fill="#ba141a"/><path d="M1860-324.24c-.12 1.28.96 2.57 3.24 3.56l48.84 19.93c4.32 1.8 11.52 1.8 15.84 0l48.84-19.93c2.28-1 3.36-2.28 3.24-3.56v-11.43c.12 1.24-.96 2.53-3.24 3.48l-48.84 19.94c-4.32 1.8-11.52 1.8-15.84 0l-48.84-19.93c-2.52-1.05-3.6-2.48-3.12-3.84l-.12 11.8z" stroke="#000" stroke-opacity="0" fill="#ba141a"/><path d="M1860-283.85c-.12 1.28.96 2.57 3.24 3.56l48.84 19.94c4.32 1.8 11.52 1.8 15.84 0l48.84-19.93c2.28-.98 3.36-2.27 3.24-3.55v-11.43c.12 1.24-.96 2.53-3.24 3.48l-48.84 19.94c-4.32 1.8-11.52 1.8-15.84 0l-48.84-19.94c-2.52-1.06-3.6-2.5-3.12-3.85l-.12 11.8z" stroke="#000" stroke-opacity="0" fill="#93171b"/><path d="M1860-304.04c-.12 1.28.96 2.56 3.24 3.55l48.84 19.95c4.32 1.8 11.52 1.8 15.84 0l48.84-19.94c2.28-.98 3.36-2.26 3.24-3.54v-11.44c.12 1.25-.96 2.53-3.24 3.48l-48.84 19.94c-4.32 1.8-11.52 1.8-15.84 0L1863.24-312c-2.52-1.06-3.6-2.5-3.12-3.84l-.12 11.8z" stroke="#000" stroke-opacity="0" fill="#93171b"/><path d="M1860-324.24c-.12 1.28.96 2.57 3.24 3.56l48.84 19.93c4.32 1.8 11.52 1.8 15.84 0l48.84-19.93c2.28-1 3.36-2.28 3.24-3.56v-11.43c.12 1.24-.96 2.53-3.24 3.48l-48.84 19.94c-4.32 1.8-11.52 1.8-15.84 0l-48.84-19.93c-2.52-1.05-3.6-2.48-3.12-3.84l-.12 11.8z" stroke="#000" stroke-opacity="0" fill="#93171b"/><path d="M1976.76-338.7c4.32 1.78 4.32 4.73 0 6.5l-48.84 19.98c-4.32 1.77-11.52 1.77-15.84 0l-48.84-20c-4.32-1.75-4.32-4.7 0-6.47l48.84-19.97c4.32-1.77 11.52-1.77 15.84 0l48.84 19.98z" stroke="#000" stroke-opacity="0" fill="#ba141a"/><path d="M1905-331.68c-5.6 2.47-14.6 2.47-20.2 0-5.54-2.48-5.54-6.48 0-8.97 5.6-2.46 14.6-2.46 20.2 0 5.54 2.5 5.54 6.5 0 8.97zM1901.2-325.32l28.55-3.4-7.65 12.68-20.9-9.28z" stroke="#000" stroke-opacity="0" fill="#fff"/><path d="M1945.94-328.5l-17.07-7.6 17.07-7.58v15.17z" stroke="#000" stroke-opacity="0" fill="#76191c"/><path d="M1914.53-345.37l-11.16-1 9.92-2.5-1.32-5 8.4 3.4 10.34-2.1-4.73 4.6 7.7 3.73-11.32-.58-5.6 4.4-2.25-4.95z" stroke="#000" stroke-opacity="0" fill="#fff"/><path d="M1963.02-336.1l-17.08-7.58v15.17l17.08-7.6z" fill="#93171b"/><use xlink:href="#a" transform="matrix(1,0,0,1,1830,-250) translate(33.99088541666666 21.328125)"/><path d="M1719.24-479.35l-129.16 111.9M1719.22-479.33l.78-.67" stroke="#000" stroke-width="2" fill="none"/><path d="M1578.54-357.45l7.75-12.84 6.06 7.02z" stroke="#000" stroke-width="2"/><path d="M1760.8-479.4l144.4 108.5M1760.82-479.38l-.82-.62" stroke="#000" stroke-width="2" fill="none"/><path d="M1917.4-361.72l-14.18-4.86 5.57-7.42z" stroke="#000" stroke-width="2"/><path d="M1280-471.13h240v82.26h-240z" stroke="#000" stroke-opacity="0" stroke-width="2" fill="#fff" fill-opacity="0"/><use xlink:href="#g" transform="matrix(1,0,0,1,1285,-466.13333333333327) translate(92.4166666666667 50.4590277777777)"/><path d="M536.62-627.97l-.98-1.74 248.7-139.8h4.07zm582.63-327.5L855.3-807.1h-4.08l267.05-150.1z"/><path d="M1120.12-955.96l-.9.5-.98-1.74.9-.5zM537.53-624.3l-14.7 2.94 10.16-11.03z"/><path d="M539.07-623.6L520-619.78l13.18-14.3zm-13.43.65l10.34-2.07-3.2-5.68z"/><use xlink:href="#h" transform="matrix(1,0,0,1,748.6608761575465,-807.1032344684336) translate(0 25.066666666666674)"/><use xlink:href="#i" transform="matrix(1,0,0,1,748.6608761575465,-807.1032344684336) translate(59.881481481481494 25.066666666666674)"/><use xlink:href="#j" transform="matrix(1,0,0,1,748.6608761575465,-807.1032344684336) translate(109.40555555555558 25.066666666666674)"/><path d="M1083.15-638.04l-1.98-.23 15.6-132.82h2.03zm37.73-320.85l-17.66 150.2h-2.02l17.7-150.42z"/><path d="M1121-959.88l-.13 1.02-1.98-.24.1-1.02zM1086.65-636.62l-6.27 13.63-2.94-14.7z"/><path d="M1088.13-637.45l-8.13 17.67-3.8-19.07zm-7.37 11.25l4.4-9.58-6.47-.77z"/><use xlink:href="#k" transform="matrix(1,0,0,1,1012.6583333333333,-808.6882175293524) translate(0 25.066666666666663)"/><use xlink:href="#l" transform="matrix(1,0,0,1,1012.6583333333333,-808.6882175293524) translate(59.881481481481465 25.066666666666663)"/><use xlink:href="#m" transform="matrix(1,0,0,1,1012.6583333333333,-808.6882175293524) translate(141.78333333333327 25.066666666666663)"/><path d="M1724.22-629.5l-.95 1.77-260.95-141.77h4.2zm-326.9-177.6h-4.2l-273.1-148.37.96-1.76z"/><path d="M1121-957.22l-.95 1.76-.9-.5.95-1.75zM1737.16-621.32l-14.75-2.74 4.43-8.14z"/><path d="M1740-619.78l-19.13-3.55 5.74-10.56zm-16.06-5l10.37 1.9-7.24-7.64z"/><use xlink:href="#k" transform="matrix(1,0,0,1,1332.9849502316206,-807.1032344684336) translate(0 25.066666666666663)"/><use xlink:href="#n" transform="matrix(1,0,0,1,1332.9849502316206,-807.1032344684336) translate(59.881481481481465 25.066666666666663)"/><use xlink:href="#o" transform="matrix(1,0,0,1,1332.9849502316206,-807.1032344684336) translate(104.96666666666664 25.066666666666663)"/><path d="M-147.1-1021.84l51.44-29.15v-58.14l-51.45 29.07v58.23z" fill="#fff"/><path d="M-198.45-1051.02l51.38 29.12v-58.15l-51.38-29.04v58.08zM-96-1109.1l-51.07-28.9-51.05 28.9 51.05 28.87L-96-1109.1z" fill="#fff"/><path d="M-147.07-1081.94L-99-1109.1l-.04-.04-48.03 27.2zM-195.1-1109.14l-.06.03 48.1 27.16-48.05-27.2z" fill="#fff"/><path d="M-95.8-1110.96l-51.3-29.04-51.3 29.04-1.6.96v60l51.4 29.04 1.6.96 1.6-.96L-94-1050v-60zm-1.6 59.04l-48 27.24v-54.48l48.1-27.12zm-51.3 27.24l-48.12-27.24v-54.36l48.12 27.12zm-46.42-84.48l48-27.12 48.14 27.12-48.13 27.24-48.02-27.24z" fill="#444"/><path d="M-146.86-1048.67l27.63-15.65v-31.2l-27.63 15.6v31.25zM-174.92-1064.32l27.63 15.65v-31.25l-27.62-15.6v31.2zM-119.52-1095.94l-27.55-15.56-27.55 15.56 27.55 15.63 27.55-15.64z" fill="#5a69a4"/><path d="M-147.07-1081.9l24.77-14-.03-.04-24.74 14.02zM-171.83-1095.94l-.03.03 24.78 14v-.02l-24.75-14.02z" fill="#96bf3d"/><path d="M-119.05-1097.83l-28-15.8-28.08 15.8-1.6.94v33.7l28 15.86 1.67.94 1.6-.94 28.08-15.87v-33.7zm-1.6 32.74l-24.8 14.06v-28.1l24.8-13.98zm-28.07 14.06l-24.8-14.05v-28.02l24.8 13.98zm-23.1-44.9l24.76-14 24.75 14-24.76 14.05-24.8-13.98z" fill="#fff"/><use xlink:href="#d" transform="matrix(1,0,0,1,-200,-1020) translate(6.608333333333363 30.399999999999984)"/><path d="M-200-543.85c-.12 1.28.96 2.57 3.24 3.56l48.84 19.94c4.32 1.8 11.52 1.8 15.84 0l48.84-19.93c2.28-.98 3.36-2.27 3.24-3.55v-11.43c.12 1.24-.96 2.53-3.24 3.48l-48.84 19.94c-4.32 1.8-11.52 1.8-15.84 0l-48.84-19.94c-2.52-1.06-3.6-2.5-3.12-3.85l-.12 11.8z" stroke="#000" stroke-opacity="0" fill="#ba141a"/><path d="M-83.24-558.3c4.32 1.77 4.32 4.72 0 6.48l-48.84 20c-4.32 1.76-11.52 1.76-15.84 0l-48.84-20c-4.32-1.76-4.32-4.7 0-6.48l48.84-19.98c4.32-1.77 11.52-1.77 15.84 0l48.84 19.98z" stroke="#000" stroke-opacity="0" fill="#ba141a"/><path d="M-200-564.04c-.12 1.28.96 2.56 3.24 3.55l48.84 19.95c4.32 1.8 11.52 1.8 15.84 0l48.84-19.94c2.28-.98 3.36-2.26 3.24-3.54v-11.44c.12 1.25-.96 2.53-3.24 3.48l-48.84 19.94c-4.32 1.8-11.52 1.8-15.84 0L-196.76-572c-2.52-1.06-3.6-2.5-3.12-3.84l-.12 11.8z" stroke="#000" stroke-opacity="0" fill="#ba141a"/><path d="M-83.24-578.5c4.32 1.77 4.32 4.72 0 6.5l-48.84 19.97c-4.32 1.77-11.52 1.77-15.84 0L-196.76-572c-4.32-1.78-4.32-4.73 0-6.5l48.84-19.98c4.32-1.77 11.52-1.77 15.84 0l48.84 20z" stroke="#000" stroke-opacity="0" fill="#ba141a"/><path d="M-200-584.24c-.12 1.28.96 2.57 3.24 3.56l48.84 19.93c4.32 1.8 11.52 1.8 15.84 0l48.84-19.93c2.28-1 3.36-2.28 3.24-3.56v-11.43c.12 1.24-.96 2.53-3.24 3.48l-48.84 19.94c-4.32 1.8-11.52 1.8-15.84 0l-48.84-19.93c-2.52-1.05-3.6-2.48-3.12-3.84l-.12 11.8z" stroke="#000" stroke-opacity="0" fill="#ba141a"/><path d="M-200-543.85c-.12 1.28.96 2.57 3.24 3.56l48.84 19.94c4.32 1.8 11.52 1.8 15.84 0l48.84-19.93c2.28-.98 3.36-2.27 3.24-3.55v-11.43c.12 1.24-.96 2.53-3.24 3.48l-48.84 19.94c-4.32 1.8-11.52 1.8-15.84 0l-48.84-19.94c-2.52-1.06-3.6-2.5-3.12-3.85l-.12 11.8z" stroke="#000" stroke-opacity="0" fill="#93171b"/><path d="M-200-564.04c-.12 1.28.96 2.56 3.24 3.55l48.84 19.95c4.32 1.8 11.52 1.8 15.84 0l48.84-19.94c2.28-.98 3.36-2.26 3.24-3.54v-11.44c.12 1.25-.96 2.53-3.24 3.48l-48.84 19.94c-4.32 1.8-11.52 1.8-15.84 0L-196.76-572c-2.52-1.06-3.6-2.5-3.12-3.84l-.12 11.8z" stroke="#000" stroke-opacity="0" fill="#93171b"/><path d="M-200-584.24c-.12 1.28.96 2.57 3.24 3.56l48.84 19.93c4.32 1.8 11.52 1.8 15.84 0l48.84-19.93c2.28-1 3.36-2.28 3.24-3.56v-11.43c.12 1.24-.96 2.53-3.24 3.48l-48.84 19.94c-4.32 1.8-11.52 1.8-15.84 0l-48.84-19.93c-2.52-1.05-3.6-2.48-3.12-3.84l-.12 11.8z" stroke="#000" stroke-opacity="0" fill="#93171b"/><path d="M-83.24-598.7c4.32 1.78 4.32 4.73 0 6.5l-48.84 19.98c-4.32 1.77-11.52 1.77-15.84 0l-48.84-20c-4.32-1.75-4.32-4.7 0-6.47l48.84-19.97c4.32-1.77 11.52-1.77 15.84 0l48.84 19.98z" stroke="#000" stroke-opacity="0" fill="#ba141a"/><path d="M-155-591.68c-5.6 2.47-14.6 2.47-20.2 0-5.54-2.48-5.54-6.48 0-8.97 5.6-2.46 14.6-2.46 20.2 0 5.54 2.5 5.54 6.5 0 8.97zM-158.8-585.32l28.55-3.4-7.65 12.68-20.9-9.28z" stroke="#000" stroke-opacity="0" fill="#fff"/><path d="M-114.06-588.5l-17.07-7.6 17.07-7.58v15.17z" stroke="#000" stroke-opacity="0" fill="#76191c"/><path d="M-145.47-605.37l-11.16-1 9.92-2.5-1.32-5 8.4 3.4 10.34-2.1-4.73 4.6 7.7 3.73-11.32-.58-5.6 4.4-2.25-4.95z" stroke="#000" stroke-opacity="0" fill="#fff"/><path d="M-96.98-596.1l-17.08-7.58v15.17l17.08-7.6z" fill="#93171b"/><use xlink:href="#p" transform="matrix(1,0,0,1,-230,-510) translate(49.99348958333333 21.328125)"/><path d="M-146-637.4h-2v-177.57h2zm0-212.5h-2V-959h2z"/><path d="M-146-958.97h-2V-960h2zM-147-622.14l-4.64-14.26h9.28z"/><path d="M-147-618.9l-6-18.5h12zm-3.26-16.5l3.26 10.03 3.26-10.03z"/><g><use xlink:href="#q" transform="matrix(1,0,0,1,-235.38456790123453,-849.8984725965856) translate(0 23.288888888888884)"/><use xlink:href="#r" transform="matrix(1,0,0,1,-235.38456790123453,-849.8984725965856) translate(55.63456790123455 23.288888888888884)"/><use xlink:href="#s" transform="matrix(1,0,0,1,-235.38456790123453,-849.8984725965856) translate(94.36851851851848 23.288888888888884)"/></g><path d="M140-700h1940v580H140z" fill-opacity="0"/><path d="M180.42-700h40.4m20.22 0h40.42m20.2 0h40.42m20.2 0h40.43m20.22 0h40.4m20.22 0h40.42m20.2 0h40.42m20.2 0h40.43m20.22 0h40.4m20.22 0h40.42m20.2 0h40.42m20.2 0h40.43m20.22 0h40.4m20.22 0h40.42m20.2 0h40.42m20.2 0h40.43m20.22 0h40.4m20.22 0h40.42m20.2 0h40.42m20.2 0h40.43m20.22 0h40.4m20.22 0h40.42m20.2 0h40.42m20.2 0h40.43m20.22 0h40.4m20.22 0h40.42m20.2 0h40.42m20.2 0h40.43m20.22 0h40.4m20.22 0h40.42m20.2 0h40.42m20.2 0H2080v19.33m0 19.34v38.66m0 19.34v38.66m0 19.34v38.66m0 19.34v38.66m0 19.34v38.66m0 19.34v38.66m0 19.34v38.66m0 19.34v38.66m0 19.34v38.66m0 19.34V-120h-20.2m-20.22 0h-40.4m-20.22 0h-40.42m-20.2 0h-40.42m-20.2 0h-40.43m-20.22 0h-40.4m-20.22 0h-40.42m-20.2 0h-40.42m-20.2 0h-40.43m-20.22 0h-40.4m-20.22 0h-40.42m-20.2 0h-40.42m-20.2 0h-40.43m-20.22 0h-40.4m-20.22 0h-40.42m-20.2 0h-40.42m-20.2 0h-40.43m-20.22 0h-40.4m-20.22 0h-40.42m-20.2 0H907.9m-20.2 0h-40.43m-20.22 0h-40.4m-20.22 0h-40.42m-20.2 0H665.4m-20.2 0h-40.43m-20.22 0h-40.4m-20.22 0h-40.42m-20.2 0H422.9m-20.2 0h-40.43m-20.22 0h-40.4m-20.22 0h-40.42m-20.2 0H180.4m-20.2 0H140v-19.33m0-19.34v-38.66m0-19.34v-38.66m0-19.34v-38.66m0-19.34v-38.66m0-19.34v-38.66m0-19.34v-38.66m0-19.34v-38.66m0-19.34v-38.66m0-19.34v-38.66m0-19.34V-700h20.2" stroke="#000" stroke-width="2" fill="none"/><g><use xlink:href="#t" transform="matrix(1,0,0,1,145,-695) translate(826.1861111111114 569.3692970666666)"/><use xlink:href="#u" transform="matrix(1,0,0,1,145,-695) translate(955.8027777777779 569.3692970666666)"/></g><defs><path d="M1121-976c0 225-142 341-344 379L1177 0H957L591-575H353V0H162v-1349h482c281 3 477 100 477 373zM633-726c181-1 296-73 296-247 0-149-101-223-304-223H353v470h280" id="v"/><path d="M617-1102c355 0 481 238 477 599H322c5 222 84 388 301 388 144 0 244-59 284-166l158 45C1002-72 854 20 623 20c-342 0-490-220-490-568 0-346 151-554 484-554zm291 461c-18-192-90-328-289-328-194 0-287 128-295 328h584" id="w"/><path d="M698-1104c312 3 392 244 392 558 0 315-82 566-392 566-169 0-277-65-331-184h-5c8 188 2 394 4 589H185V-858c0-76-1-156-6-224h175c6 52 9 120 10 178h4c58-122 150-202 330-200zm-49 991c225 0 255-203 255-433 0-225-32-419-253-419-236 0-285 192-285 441 0 237 53 411 283 411" id="x"/><path d="M736-142h380V0H134v-142h422v-1200H267v-142h469v1342" id="y"/><path d="M745-142h380V0H143v-142h422v-798H246v-142h499v940zM545-1292v-192h200v192H545" id="z"/><path d="M631 20c-350 0-501-215-501-562 0-355 162-560 502-560 250 0 399 118 446 323l-192 14c-23-124-109-196-262-196-242 0-305 171-305 415 1 245 61 427 304 427 151 0 248-77 267-215l190 12C1039-107 883 20 631 20" id="A"/><path d="M1000-272c3 95 12 159 101 161 21 0 41-3 59-7V-6c-44 10-86 16-139 16-141 2-191-84-197-217h-6C748-76 648 20 446 20c-207 0-318-120-318-322 0-266 194-348 454-354l236-4c12-191-40-305-222-305-140 0-220 47-232 172l-188-17c33-204 181-292 423-292 255 0 401 118 401 364v466zm-683-27c0 109 63 184 175 182 166-3 259-96 306-217 24-65 20-120 20-200-232 7-501-28-501 235" id="B"/><g id="a"><use transform="matrix(0.013020833333333334,0,0,0.013020833333333334,0,0)" xlink:href="#v"/><use transform="matrix(0.013020833333333334,0,0,0.013020833333333334,16.002604166666668,0)" xlink:href="#w"/><use transform="matrix(0.013020833333333334,0,0,0.013020833333333334,32.005208333333336,0)" xlink:href="#x"/><use transform="matrix(0.013020833333333334,0,0,0.013020833333333334,48.0078125,0)" xlink:href="#y"/><use transform="matrix(0.013020833333333334,0,0,0.013020833333333334,64.01041666666667,0)" xlink:href="#z"/><use transform="matrix(0.013020833333333334,0,0,0.013020833333333334,80.01302083333334,0)" xlink:href="#A"/><use transform="matrix(0.013020833333333334,0,0,0.013020833333333334,96.01562500000001,0)" xlink:href="#B"/></g><path d="M622-1349c296 4 497 117 497 404 0 282-193 424-485 431H353V0H162v-1349h460zm-15 684c195-3 320-88 320-277 0-184-129-255-328-254H353v531h254" id="C"/><path d="M839-1102c70 0 148 7 206 17v167c-112-18-268-36-363 15-129 69-208 203-208 395V0H294c-10-367 32-789-52-1082h171c21 75 41 161 48 250h5c67-152 152-270 373-270" id="D"/><path d="M904-1102c199 0 220 177 220 381V0H956v-686c-3-114 0-215-60-264-70-33-125-4-158 71-26 56-39 140-39 252V0H531v-686c-3-114-1-215-61-264-78-41-136 24-157 84-24 69-39 159-39 259V0H105c-3-360 6-732-6-1082h149c6 50 3 123 8 175 36-100 83-195 216-195 135 0 166 79 196 196 42-105 93-196 236-196" id="E"/><path d="M168 279c222 39 310-114 368-290L66-1082h192c120 299 249 590 362 896 115-301 235-597 351-896h190L705 0c-65 164-130 320-275 396-67 36-177 35-262 18V279" id="F"/><g id="b"><use transform="matrix(0.013020833333333334,0,0,0.013020833333333334,0,0)" xlink:href="#C"/><use transform="matrix(0.013020833333333334,0,0,0.013020833333333334,16.002604166666668,0)" xlink:href="#D"/><use transform="matrix(0.013020833333333334,0,0,0.013020833333333334,32.005208333333336,0)" xlink:href="#z"/><use transform="matrix(0.013020833333333334,0,0,0.013020833333333334,48.0078125,0)" xlink:href="#E"/><use transform="matrix(0.013020833333333334,0,0,0.013020833333333334,64.01041666666667,0)" xlink:href="#B"/><use transform="matrix(0.013020833333333334,0,0,0.013020833333333334,80.01302083333334,0)" xlink:href="#D"/><use transform="matrix(0.013020833333333334,0,0,0.013020833333333334,96.01562500000001,0)" xlink:href="#F"/></g><path d="M148-1120c216-7 379-89 463-229h166v1204h353V0H157v-145h439v-1021c-79 124-254 184-448 194v-148" id="G"/><use transform="matrix(0.013020833333333334,0,0,0.013020833333333334,0,0)" xlink:href="#G" id="c"/><path d="M52-115c0 93 80 130 150 87l7-35h11l-1 55c-23 7-52 12-83 12C60 4 19-37 15-115c-5-113 97-141 201-114l1 51h-12l-5-30c-15-9-39-16-62-16-66 0-86 41-86 109" id="H"/><path d="M65-12l28 4v8H7v-8l28-4v-226l-28-4v-8h58v238" id="I"/><path d="M47-200c-23 0-25-39 0-38 13 0 18 7 20 19-1 11-8 19-20 19zM65-12l28 4v8H8v-8l28-4v-141l-24-4v-8h53v153" id="J"/><path d="M84-170c49 0 66 33 63 87H46c-8 60 38 80 95 63v10C128-2 108 4 88 4 34 4 14-29 14-84c-1-54 22-86 70-86zm33 73c12-57-57-82-69-24-1 7-2 15-2 24h71" id="K"/><path d="M125-118c4-37-41-34-68-26v132l23 4v8H8C5-13 21-9 28-12v-141c-7-3-23 1-20-12h47l2 13c31-23 98-29 98 31v109c7 3 23-1 20 12h-72v-8l22-4v-106" id="L"/><path d="M54-38c-1 25 24 26 44 20v12C71 10 25 9 25-35v-115H4c-2-14 14-10 21-15l18-38h11v38h38v15H54v112" id="M"/><g id="d"><use transform="matrix(0.1055555555555555,0,0,0.1055555555555555,0,0)" xlink:href="#H"/><use transform="matrix(0.1055555555555555,0,0,0.1055555555555555,25.33333333333332,0)" xlink:href="#I"/><use transform="matrix(0.1055555555555555,0,0,0.1055555555555555,35.88888888888887,0)" xlink:href="#J"/><use transform="matrix(0.1055555555555555,0,0,0.1055555555555555,46.44444444444442,0)" xlink:href="#K"/><use transform="matrix(0.1055555555555555,0,0,0.1055555555555555,63.227777777777746,0)" xlink:href="#L"/><use transform="matrix(0.1055555555555555,0,0,0.1055555555555555,82.22777777777773,0)" xlink:href="#M"/></g><path d="M611-1370c266 0 451 106 451 368 0 147-77 243-154 327-132 144-316 255-451 395-42 44-75 87-96 134h723V0H144v-117c124-264 387-411 582-603 73-72 151-147 151-271 0-161-104-231-266-231-163 0-249 90-268 238l-184-17c35-233 185-369 452-369" id="N"/><use transform="matrix(0.013020833333333334,0,0,0.013020833333333334,0,0)" xlink:href="#N" id="e"/><path d="M912-211c-10-84-18-177-18-274v-864h172V0H836L316-1130c7 79 16 167 16 254V0H162v-1349h222" id="O"/><use transform="matrix(0.013020833333333334,0,0,0.013020833333333334,0,0)" xlink:href="#O" id="f"/><path d="M45-37c13 0 21 8 21 21C67-2 57 4 45 5 33 4 23-2 24-16c0-13 8-21 21-21" id="P"/><g id="g"><use transform="matrix(0.16728395061728368,0,0,0.16728395061728368,0,0)" xlink:href="#P"/><use transform="matrix(0.16728395061728368,0,0,0.16728395061728368,15.055555555555532,0)" xlink:href="#P"/><use transform="matrix(0.16728395061728368,0,0,0.16728395061728368,30.111111111111065,0)" xlink:href="#P"/></g><path d="M238-236v10l-27 4-81 79L231-14l25 5v9h-57l-93-119-31 25v80l33 5v9H10v-9l31-5v-208l-31-4v-10h95v10l-30 4v111l112-111-23-4v-10h74" id="Q"/><path d="M161-154L85 37C75 66 49 86 8 75V39c18-2 6 24 29 21 30-4 38-32 47-58L21-153c-7-3-20 0-17-12h77v8l-26 4 45 116 43-116-26-4v-8h62v8" id="R"/><g id="h"><use transform="matrix(0.08703703703703705,0,0,0.08703703703703705,0,0)" xlink:href="#Q"/><use transform="matrix(0.08703703703703705,0,0,0.08703703703703705,22.542592592592598,0)" xlink:href="#K"/><use transform="matrix(0.08703703703703705,0,0,0.08703703703703705,36.38148148148149,0)" xlink:href="#R"/></g><path d="M27 48v-298h80v8l-52 8V33l52 7v8H27" id="S"/><path d="M90-239c59 0 76 52 76 120S152 4 89 4C31 4 14-51 14-119c0-67 17-120 76-120zM89-10c45-6 45-58 45-109 0-50 0-101-45-106-45 4-43 57-43 106 0 50-2 104 43 109" id="T"/><path d="M42-37c43 0 23 74-4 81-7 4-14 8-24 11V42c17-5 29-14 31-30C42-2 20 1 21-18c0-12 9-19 21-19" id="U"/><g id="i"><use transform="matrix(0.08703703703703705,0,0,0.08703703703703705,0,0)" xlink:href="#S"/><use transform="matrix(0.08703703703703705,0,0,0.08703703703703705,10.35740740740741,0)" xlink:href="#T"/><use transform="matrix(0.08703703703703705,0,0,0.08703703703703705,26.02407407407408,0)" xlink:href="#U"/></g><path d="M56-14l29 5v9H8v-9l26-5 80-107-68-101-27-4v-10h97v10l-30 4 49 73 55-73-29-4v-10h77v10l-26 4-66 88 81 120 26 5v9h-97v-9l30-5-62-91" id="V"/><path d="M13 48v-8l52-7v-267l-52-8v-8h80V48H13" id="W"/><g id="j"><use transform="matrix(0.08703703703703705,0,0,0.08703703703703705,0,0)" xlink:href="#V"/><use transform="matrix(0.08703703703703705,0,0,0.08703703703703705,22.542592592592598,0)" xlink:href="#W"/></g><g id="k"><use transform="matrix(0.08703703703703701,0,0,0.08703703703703701,0,0)" xlink:href="#Q"/><use transform="matrix(0.08703703703703701,0,0,0.08703703703703701,22.542592592592584,0)" xlink:href="#K"/><use transform="matrix(0.08703703703703701,0,0,0.08703703703703701,36.38148148148147,0)" xlink:href="#R"/></g><path d="M111-111v75H92v-75H18v-17h74v-75h19v75h74v17h-74" id="X"/><path d="M110-14l48 5v9H32v-9l48-5v-192l-48 17v-10l69-39h9v224" id="Y"/><g id="l"><use transform="matrix(0.08703703703703701,0,0,0.08703703703703701,0,0)" xlink:href="#S"/><use transform="matrix(0.08703703703703701,0,0,0.08703703703703701,10.357407407407404,0)" xlink:href="#V"/><use transform="matrix(0.08703703703703701,0,0,0.08703703703703701,32.89999999999999,0)" xlink:href="#X"/><use transform="matrix(0.08703703703703701,0,0,0.08703703703703701,50.5685185185185,0)" xlink:href="#Y"/><use transform="matrix(0.08703703703703701,0,0,0.08703703703703701,66.23518518518516,0)" xlink:href="#U"/></g><path d="M147-93v79l38 5v9H76v-9l37-5v-78L31-222l-27-4v-10h100v10l-32 4 68 109 64-109-30-4v-10h77v10l-26 4" id="Z"/><g id="m"><use transform="matrix(0.08703703703703701,0,0,0.08703703703703701,0,0)" xlink:href="#Z"/><use transform="matrix(0.08703703703703701,0,0,0.08703703703703701,22.542592592592584,0)" xlink:href="#W"/></g><path d="M56-15s89 2 122-6l10-45h12l-5 66H17v-17l132-204c-33 1-75-1-103 4l-6 37H28v-56h161v15" id="aa"/><g id="n"><use transform="matrix(0.08703703703703701,0,0,0.08703703703703701,0,0)" xlink:href="#S"/><use transform="matrix(0.08703703703703701,0,0,0.08703703703703701,10.357407407407404,0)" xlink:href="#aa"/><use transform="matrix(0.08703703703703701,0,0,0.08703703703703701,29.41851851851851,0)" xlink:href="#U"/></g><path d="M48-126c45-28 121-18 121 53 0 50-25 77-72 77-63 0-80-54-82-120-3-88 52-142 140-116v40h-12c2-42-66-39-79-8-8 20-16 43-16 74zm0 11c2 50 2 105 49 105 33 0 37-26 40-60 5-60-49-61-89-45" id="ab"/><path d="M104-123c39 3 61 21 62 59C167 7 83 12 19-4l-2-50h12c2 29 16 43 51 43 38 0 54-19 54-55 2-43-34-49-75-50v-14c37 0 64-7 64-48 0-47-47-56-81-36l-6 29H24v-46c51-13 135-13 131 51-2 34-20 52-51 57" id="ac"/><path d="M90-239c42 0 69 19 69 61 0 28-14 44-35 53 25 8 42 28 42 61 0 47-28 68-77 68-48 0-75-21-75-68-1-33 18-51 41-61-19-9-34-25-34-53 0-42 26-61 69-61zM89-10c34 0 46-20 46-54 0-32-11-53-46-53-34 0-44 20-44 53-1 34 11 54 44 54zm0-123c28 0 38-16 38-45s-9-47-38-47c-28-1-36 18-36 47s8 45 36 45" id="ad"/><path d="M142-52V0h-30v-52H7v-23l115-162h20v160h32v25h-32zm-30-25l-1-119L27-77h85" id="ae"/><g id="o"><use transform="matrix(0.08703703703703701,0,0,0.08703703703703701,0,0)" xlink:href="#Y"/><use transform="matrix(0.08703703703703701,0,0,0.08703703703703701,15.666666666666663,0)" xlink:href="#ab"/><use transform="matrix(0.08703703703703701,0,0,0.08703703703703701,31.333333333333325,0)" xlink:href="#ac"/><use transform="matrix(0.08703703703703701,0,0,0.08703703703703701,46.999999999999986,0)" xlink:href="#ad"/><use transform="matrix(0.08703703703703701,0,0,0.08703703703703701,62.66666666666665,0)" xlink:href="#ae"/><use transform="matrix(0.08703703703703701,0,0,0.08703703703703701,78.33333333333331,0)" xlink:href="#W"/></g><path d="M865-914c-3-187-2-380-2-570h180v1261c0 76 1 155 6 223H877c-8-49-9-116-10-174h-5C801-44 708 26 530 26c-135 0-234-46-297-139s-95-232-95-419c0-377 131-566 392-566 176 0 271 63 335 184zm-286-51c-222 0-255 197-255 427 0 229 31 425 253 425 237 0 286-195 286-441 0-238-52-411-284-411" id="af"/><path d="M873-819c-18-114-119-146-250-146-163 0-245 50-245 151 0 151 170 148 294 185 182 54 388 94 388 320 0 240-189 325-439 329-245 4-410-69-454-268l159-31c24 133 136 168 295 165 144-2 270-31 270-171 0-164-195-160-331-202-167-52-350-87-350-299 0-218 173-315 413-313 220 2 373 77 412 260" id="ag"/><g id="p"><use transform="matrix(0.013020833333333334,0,0,0.013020833333333334,0,0)" xlink:href="#v"/><use transform="matrix(0.013020833333333334,0,0,0.013020833333333334,16.002604166666668,0)" xlink:href="#w"/><use transform="matrix(0.013020833333333334,0,0,0.013020833333333334,32.005208333333336,0)" xlink:href="#af"/><use transform="matrix(0.013020833333333334,0,0,0.013020833333333334,48.0078125,0)" xlink:href="#z"/><use transform="matrix(0.013020833333333334,0,0,0.013020833333333334,64.01041666666667,0)" xlink:href="#ag"/></g><g id="q"><use transform="matrix(0.08086419753086417,0,0,0.08086419753086417,0,0)" xlink:href="#Q"/><use transform="matrix(0.08086419753086417,0,0,0.08086419753086417,20.94382716049382,0)" xlink:href="#K"/><use transform="matrix(0.08086419753086417,0,0,0.08086419753086417,33.801234567901226,0)" xlink:href="#R"/></g><g id="r"><use transform="matrix(0.08086419753086417,0,0,0.08086419753086417,0,0)" xlink:href="#S"/><use transform="matrix(0.08086419753086417,0,0,0.08086419753086417,9.622839506172836,0)" xlink:href="#T"/><use transform="matrix(0.08086419753086417,0,0,0.08086419753086417,24.178395061728388,0)" xlink:href="#U"/></g><g id="s"><use transform="matrix(0.08086419753086417,0,0,0.08086419753086417,0,0)" xlink:href="#Y"/><use transform="matrix(0.08086419753086417,0,0,0.08086419753086417,14.55555555555555,0)" xlink:href="#ab"/><use transform="matrix(0.08086419753086417,0,0,0.08086419753086417,29.1111111111111,0)" xlink:href="#ac"/><use transform="matrix(0.08086419753086417,0,0,0.08086419753086417,43.66666666666665,0)" xlink:href="#ad"/><use transform="matrix(0.08086419753086417,0,0,0.08086419753086417,58.2222222222222,0)" xlink:href="#ae"/><use transform="matrix(0.08086419753086417,0,0,0.08086419753086417,72.77777777777774,0)" xlink:href="#W"/></g><path d="M199-173c-1 36-21 56-49 65l64 94 26 5v9h-57l-66-103H75v89l35 5v9H13v-9l28-5v-208l-31-4v-10c80 4 190-20 189 63zM75-119c50 2 89-1 89-51 0-49-39-52-89-50v101" id="ah"/><path d="M13-81c0-71 46-101 114-85l-1-72-28-4v-8h57v238c8 3 24-2 21 12h-47l-2-12C80 23 13-1 13-81zm77-74c-37 1-44 33-45 74 0 38 9 66 45 66 14 0 27-3 36-7v-130c-10-1-24-3-36-3" id="ai"/><path d="M41-130c7 48 86 23 86 84 0 56-69 57-112 41v-40c20 0 9 29 31 31 35 19 77-26 41-50-27-18-72-13-72-59 0-50 58-52 100-41v36c-19 1-8-25-28-25-21-7-50-1-46 23" id="aj"/><g id="t"><use transform="matrix(0.1425925925925924,0,0,0.1425925925925924,0,0)" xlink:href="#ah"/><use transform="matrix(0.1425925925925924,0,0,0.1425925925925924,34.22222222222218,0)" xlink:href="#K"/><use transform="matrix(0.1425925925925924,0,0,0.1425925925925924,56.894444444444375,0)" xlink:href="#ai"/><use transform="matrix(0.1425925925925924,0,0,0.1425925925925924,82.561111111111,0)" xlink:href="#J"/><use transform="matrix(0.1425925925925924,0,0,0.1425925925925924,96.82037037037024,0)" xlink:href="#aj"/></g><path d="M124-13C89 8 26 15 26-45v-108c-8-3-24 2-21-12h50v118c-3 37 42 32 69 25v-131l-25-4v-8h54v153c8 3 24-2 21 12h-48" id="ak"/><path d="M57-145c16-10 35-24 60-25v45c-19 1-8-30-40-17l-20 6v124l29 4v8H7v-8l21-4v-141c-8-3-24 2-21-12h48" id="al"/><g id="u"><use transform="matrix(0.1425925925925924,0,0,0.1425925925925924,0,0)" xlink:href="#H"/><use transform="matrix(0.1425925925925924,0,0,0.1425925925925924,34.22222222222218,0)" xlink:href="#I"/><use transform="matrix(0.1425925925925924,0,0,0.1425925925925924,48.481481481481424,0)" xlink:href="#ak"/><use transform="matrix(0.1425925925925924,0,0,0.1425925925925924,74.14814814814805,0)" xlink:href="#aj"/><use transform="matrix(0.1425925925925924,0,0,0.1425925925925924,94.11111111111099,0)" xlink:href="#M"/><use transform="matrix(0.1425925925925924,0,0,0.1425925925925924,108.37037037037022,0)" xlink:href="#K"/><use transform="matrix(0.1425925925925924,0,0,0.1425925925925924,131.04259259259243,0)" xlink:href="#al"/></g></defs></g></svg>