<svg version="1.1" xmlns="http://www.w3.org/2000/svg" viewBox="0 0 702.6085989815847 182.56502423967618" width="702.6085989815847" height="182.56502423967618">
  <!-- svg-source:excalidraw -->
  
  <defs>
    <style class="style-fonts">
      @font-face {
        font-family: "Virgil";
        src: url("https://excalidraw.com/Virgil.woff2");
      }
      @font-face {
        font-family: "Cascadia";
        src: url("https://excalidraw.com/Cascadia.woff2");
      }
      @font-face {
        font-family: "Assistant";
        src: url("https://excalidraw.com/Assistant-Regular.woff2");
      }
    </style>
    
  </defs>
  <g stroke-linecap="round" transform="translate(10 13.284445626394927) rotate(0 76.41241455078125 79.64028930664062)"><path d="M32 0 C55.44 1.02, 78.11 -0.41, 120.82 0 M32 0 C58.2 -0.9, 84.42 -0.12, 120.82 0 M120.82 0 C141.42 0.72, 151.81 10.11, 152.82 32 M120.82 0 C141.66 -1.56, 154.96 12.15, 152.82 32 M152.82 32 C152.33 56.43, 151.19 76.99, 152.82 127.28 M152.82 32 C153.25 63.85, 153.33 94.89, 152.82 127.28 M152.82 127.28 C151.68 147.66, 142.16 159.85, 120.82 159.28 M152.82 127.28 C152.62 146.91, 141.64 157.69, 120.82 159.28 M120.82 159.28 C92.98 159.15, 64.24 157.62, 32 159.28 M120.82 159.28 C100.6 160.29, 82.7 159.2, 32 159.28 M32 159.28 C9.34 160.2, 1.03 149.49, 0 127.28 M32 159.28 C8.75 160.59, 1.68 149.67, 0 127.28 M0 127.28 C0.71 94.97, -0.68 62.79, 0 32 M0 127.28 C1.03 101.19, 1.13 73.35, 0 32 M0 32 C1.93 10.1, 11.77 -0.22, 32 0 M0 32 C-0.34 8.9, 10.09 -1.21, 32 0" stroke="#1e1e1e" stroke-width="1" fill="none"></path></g><g transform="translate(64.25243377685547 80.42473493303555) rotate(0 22.15998077392578 12.5)"><text x="22.15998077392578" y="0" font-family="Virgil, Segoe UI Emoji" font-size="20px" fill="#1e1e1e" text-anchor="middle" style="white-space: pre;" direction="ltr" dominant-baseline="text-before-edge">server</text></g><g stroke-linecap="round" transform="translate(539.7837698800222 10) rotate(0 76.41241455078125 79.64028930664062)"><path d="M32 0 C57.78 -2, 82.38 -2.05, 120.82 0 M32 0 C58.35 -0.17, 84.33 -0.48, 120.82 0 M120.82 0 C143.15 -1.46, 153.42 10.26, 152.82 32 M120.82 0 C144.06 -2.04, 150.99 9.06, 152.82 32 M152.82 32 C151.69 64.59, 154.4 92.83, 152.82 127.28 M152.82 32 C151.75 52.12, 152.83 72.87, 152.82 127.28 M152.82 127.28 C153.09 149.14, 140.84 160.93, 120.82 159.28 M152.82 127.28 C154.18 147.02, 144.03 158.85, 120.82 159.28 M120.82 159.28 C89.86 160.47, 57.31 159.39, 32 159.28 M120.82 159.28 C89.6 159.91, 58.66 159.56, 32 159.28 M32 159.28 C9.98 158.82, -0.4 148.84, 0 127.28 M32 159.28 C12.93 157.2, -0.21 148.4, 0 127.28 M0 127.28 C0.8 94.32, -0.61 58.08, 0 32 M0 127.28 C-0.88 106.54, -1.44 84.3, 0 32 M0 32 C1 10.33, 11.17 -0.71, 32 0 M0 32 C-2.18 10.88, 9.03 1.22, 32 0" stroke="#1e1e1e" stroke-width="1" fill="none"></path></g><g transform="translate(590.5662100655691 77.14028930664062) rotate(0 25.629974365234375 12.5)"><text x="25.629974365234375" y="0" font-family="Virgil, Segoe UI Emoji" font-size="20px" fill="#1e1e1e" text-anchor="middle" style="white-space: pre;" direction="ltr" dominant-baseline="text-before-edge">client</text></g><g stroke-linecap="round"><g transform="translate(516.3873988560267 97.17347834729736) rotate(0 -170.6566510881696 0.3638853181579975)"><path d="M0 0 C-107.71 -0.3, -216.98 -1.95, -341.31 0.73" stroke="#1e1e1e" stroke-width="1.5" fill="none" stroke-dasharray="8 9"></path></g><g transform="translate(516.3873988560267 97.17347834729736) rotate(0 -170.6566510881696 0.3638853181579975)"><path d="M-313.26 -9.9 C-321.79 -4.95, -332.64 -4.42, -341.31 0.73" stroke="#1e1e1e" stroke-width="1.5" fill="none"></path></g><g transform="translate(516.3873988560267 97.17347834729736) rotate(0 -170.6566510881696 0.3638853181579975)"><path d="M-312.99 10.62 C-321.54 9.08, -332.48 3.12, -341.31 0.73" stroke="#1e1e1e" stroke-width="1.5" fill="none"></path></g></g><mask></mask></svg>