<svg version="1.1" xmlns="http://www.w3.org/2000/svg" viewBox="0 0 843.8180280412947 185.3522164481027" width="843.8180280412947" height="185.3522164481027">
  <!-- svg-source:excalidraw -->
  
  <defs>
    <style class="style-fonts">
      @font-face {
        font-family: "Virgil";
        src: url("https://excalidraw.com/Virgil.woff2");
      }
      @font-face {
        font-family: "Cascadia";
        src: url("https://excalidraw.com/Cascadia.woff2");
      }
      @font-face {
        font-family: "Assistant";
        src: url("https://excalidraw.com/Assistant-Regular.woff2");
      }
    </style>
    
  </defs>
  <g stroke-linecap="round" transform="translate(10 16.071637834821445) rotate(0 76.41241455078125 79.64028930664062)"><path d="M32 0 C49.18 1.67, 70.53 0.24, 120.82 0 M32 0 C49.5 -1.61, 67.43 -1.36, 120.82 0 M120.82 0 C140.17 0.23, 154.66 12.02, 152.82 32 M120.82 0 C140.6 0.76, 152.71 10.46, 152.82 32 M152.82 32 C152.85 54.42, 151.04 79.79, 152.82 127.28 M152.82 32 C152.25 58.3, 152.91 84.39, 152.82 127.28 M152.82 127.28 C150.95 146.94, 143.05 158.35, 120.82 159.28 M152.82 127.28 C154.93 148.34, 140.54 160.68, 120.82 159.28 M120.82 159.28 C89 159.83, 55.29 159.13, 32 159.28 M120.82 159.28 C90.45 158.7, 60.83 158.92, 32 159.28 M32 159.28 C9.47 158.6, 1.14 150.4, 0 127.28 M32 159.28 C12.29 159.11, 1.77 150.15, 0 127.28 M0 127.28 C-1.14 107.94, -0.54 85.09, 0 32 M0 127.28 C-0.84 104.88, -0.61 82.42, 0 32 M0 32 C-1.66 11.76, 12.57 1.18, 32 0 M0 32 C1.24 11.83, 10.92 -0.79, 32 0" stroke="#1e1e1e" stroke-width="1" fill="none"></path></g><g transform="translate(64.25243377685547 83.21192714146207) rotate(0 22.15998077392578 12.5)"><text x="22.15998077392578" y="0" font-family="Virgil, Segoe UI Emoji" font-size="20px" fill="#1e1e1e" text-anchor="middle" style="white-space: pre;" direction="ltr" dominant-baseline="text-before-edge">server</text></g><g stroke-linecap="round" transform="translate(680.9931989397322 10) rotate(0 76.41241455078125 79.64028930664062)"><path d="M32 0 C56.41 0.83, 83.97 -1.48, 120.82 0 M32 0 C59.93 1, 88.3 -0.56, 120.82 0 M120.82 0 C141.47 -1.54, 153.14 12.54, 152.82 32 M120.82 0 C141.87 -0.66, 151.04 10.5, 152.82 32 M152.82 32 C153.85 67.27, 153.26 102.2, 152.82 127.28 M152.82 32 C152.8 54.49, 152.1 77.88, 152.82 127.28 M152.82 127.28 C152.51 147.24, 142.79 158.36, 120.82 159.28 M152.82 127.28 C154.75 150.86, 140.03 158.31, 120.82 159.28 M120.82 159.28 C89.68 157.35, 59.52 157.56, 32 159.28 M120.82 159.28 C101.79 159.26, 82.43 158.66, 32 159.28 M32 159.28 C12.26 160.81, 1.05 149.29, 0 127.28 M32 159.28 C12.12 159.38, -0.02 149.73, 0 127.28 M0 127.28 C0.87 106.28, -1.1 85.17, 0 32 M0 127.28 C-0.19 100.64, -0.5 74.55, 0 32 M0 32 C1.89 12.45, 11.27 -0.69, 32 0 M0 32 C-1.88 10.51, 9.72 0.13, 32 0" stroke="#1e1e1e" stroke-width="1" fill="none"></path></g><g transform="translate(731.7756391252791 77.14028930664062) rotate(0 25.629974365234375 12.5)"><text x="25.629974365234375" y="0" font-family="Virgil, Segoe UI Emoji" font-size="20px" fill="#1e1e1e" text-anchor="middle" style="white-space: pre;" direction="ltr" dominant-baseline="text-before-edge">client</text></g><g stroke-linecap="round"><g transform="translate(517.2154543394485 95.3742725233634) rotate(0 -107.916277204241 -0.03741763716442392)"><path d="M0 0 C-63.56 0.35, -128.06 -1.85, -215.83 -0.07" stroke="#1e1e1e" stroke-width="1.5" fill="none" stroke-dasharray="8 9"></path></g><g transform="translate(517.2154543394485 95.3742725233634) rotate(0 -107.916277204241 -0.03741763716442392)"><path d="M-187.74 -10.6 C-195.91 -6.4, -205.11 -5.79, -215.83 -0.07" stroke="#1e1e1e" stroke-width="1.5" fill="none"></path></g><g transform="translate(517.2154543394485 95.3742725233634) rotate(0 -107.916277204241 -0.03741763716442392)"><path d="M-187.55 9.92 C-195.68 8.06, -204.94 2.62, -215.83 -0.07" stroke="#1e1e1e" stroke-width="1.5" fill="none"></path></g></g><mask></mask><g stroke-linecap="round" transform="translate(215.43987165178555 54.33629499162953) rotate(0 36.83984375 33.654296875)"><path d="M16.83 0 C30.53 -1.42, 48.55 1.69, 56.85 0 M16.83 0 C25.06 -0.05, 34.37 -0.71, 56.85 0 M56.85 0 C67.11 -0.45, 73.44 4.5, 73.68 16.83 M56.85 0 C69.94 0.7, 73.57 6.47, 73.68 16.83 M73.68 16.83 C75.58 29.02, 73.47 44.89, 73.68 50.48 M73.68 16.83 C73.93 28.5, 73.09 38.31, 73.68 50.48 M73.68 50.48 C73.61 63.07, 66.79 67.56, 56.85 67.31 M73.68 50.48 C71.91 61.27, 65.88 69.34, 56.85 67.31 M56.85 67.31 C48.4 67.77, 38.23 67.46, 16.83 67.31 M56.85 67.31 C49.52 67.71, 41.5 66.87, 16.83 67.31 M16.83 67.31 C4.19 66.52, -1.05 60.29, 0 50.48 M16.83 67.31 C5.96 68.48, -2.29 59.6, 0 50.48 M0 50.48 C-1.62 40.01, -0.93 30.84, 0 16.83 M0 50.48 C-0.73 39.7, 0.5 29.15, 0 16.83 M0 16.83 C1.81 7.54, 4.61 1.93, 16.83 0 M0 16.83 C1.94 5.2, 3.8 -0.6, 16.83 0" stroke="#1e1e1e" stroke-width="1" fill="none"></path></g><g transform="translate(227.16975293840665 62.99059186662953) rotate(0 25.109962463378906 25)"><text x="25.109962463378906" y="0" font-family="Virgil, Segoe UI Emoji" font-size="20px" fill="#1e1e1e" text-anchor="middle" style="white-space: pre;" direction="ltr" dominant-baseline="text-before-edge">istio-</text><text x="25.109962463378906" y="25" font-family="Virgil, Segoe UI Emoji" font-size="20px" fill="#1e1e1e" text-anchor="middle" style="white-space: pre;" direction="ltr" dominant-baseline="text-before-edge">proxy</text></g><g stroke-linecap="round" transform="translate(528.4437779017854 59.07652936662953) rotate(0 36.83984375 33.654296875)"><path d="M16.83 0 C25.13 -1.53, 33.84 -1.79, 56.85 0 M16.83 0 C30.79 -0.92, 45.74 0.39, 56.85 0 M56.85 0 C68.91 -1.56, 74.05 4.94, 73.68 16.83 M56.85 0 C65.98 1.79, 75.61 4.49, 73.68 16.83 M73.68 16.83 C73.91 26.78, 74.36 35.84, 73.68 50.48 M73.68 16.83 C74.03 25, 73.18 35.62, 73.68 50.48 M73.68 50.48 C73.59 59.99, 67.52 66.84, 56.85 67.31 M73.68 50.48 C74.27 59.93, 68.91 66.09, 56.85 67.31 M56.85 67.31 C42.6 65.28, 28.85 67.88, 16.83 67.31 M56.85 67.31 C46.39 66.82, 34.06 67.38, 16.83 67.31 M16.83 67.31 C7.6 66.06, -1.12 63.4, 0 50.48 M16.83 67.31 C6.71 66.93, -0.82 60.79, 0 50.48 M0 50.48 C0.63 42.05, -1.27 37.85, 0 16.83 M0 50.48 C0.53 39.5, 0.01 28.53, 0 16.83 M0 16.83 C0.08 5.83, 4.4 -1.77, 16.83 0 M0 16.83 C-1.73 7.71, 4.41 1.13, 16.83 0" stroke="#e03131" stroke-width="1" fill="none"></path></g><g transform="translate(540.1736591884065 67.73082624162953) rotate(0 25.109962463378906 25)"><text x="25.109962463378906" y="0" font-family="Virgil, Segoe UI Emoji" font-size="20px" fill="#e03131" text-anchor="middle" style="white-space: pre;" direction="ltr" dominant-baseline="text-before-edge">istio-</text><text x="25.109962463378906" y="25" font-family="Virgil, Segoe UI Emoji" font-size="20px" fill="#e03131" text-anchor="middle" style="white-space: pre;" direction="ltr" dominant-baseline="text-before-edge">proxy</text></g><g stroke-linecap="round"><g transform="translate(208.3600551060266 88.26771023119932) rotate(0 -22.09791782924094 1.1369441354302694)"><path d="M0 0 C-12.34 0.63, -25.19 0.68, -44.2 2.27" stroke="#1e1e1e" stroke-width="1.5" fill="none" stroke-dasharray="8 9"></path></g><g transform="translate(208.3600551060266 88.26771023119932) rotate(0 -22.09791782924094 1.1369441354302694)"><path d="M-23.97 -6.71 C-29.23 -4.14, -35 -2.11, -44.2 2.27" stroke="#1e1e1e" stroke-width="1.5" fill="none"></path></g><g transform="translate(208.3600551060266 88.26771023119932) rotate(0 -22.09791782924094 1.1369441354302694)"><path d="M-22.93 8.39 C-28.54 6.51, -34.62 4.08, -44.2 2.27" stroke="#1e1e1e" stroke-width="1.5" fill="none"></path></g></g><mask></mask><g stroke-linecap="round"><g transform="translate(672.1979457310264 90.74869901500733) rotate(0 -30.57252720424094 1.5599650913979985)"><path d="M0 0 C-21 0.81, -43.79 1.15, -61.15 3.12" stroke="#1e1e1e" stroke-width="1.5" fill="none" stroke-dasharray="8 9"></path></g><g transform="translate(672.1979457310264 90.74869901500733) rotate(0 -30.57252720424094 1.5599650913979985)"><path d="M-33.89 -9.41 C-42.55 -5.16, -52.96 -1.38, -61.15 3.12" stroke="#1e1e1e" stroke-width="1.5" fill="none"></path></g><g transform="translate(672.1979457310264 90.74869901500733) rotate(0 -30.57252720424094 1.5599650913979985)"><path d="M-32.21 11.04 C-41.39 7.82, -52.42 4.13, -61.15 3.12" stroke="#1e1e1e" stroke-width="1.5" fill="none"></path></g></g><mask></mask><g stroke-linecap="round"><g transform="translate(657.0219029017854 69.81285749162953) rotate(0 -7.79296875 20.86328125)"><path d="M0 0 C-2.6 6.95, -12.99 34.77, -15.59 41.73 M0 0 C-2.6 6.95, -12.99 34.77, -15.59 41.73" stroke="#e03131" stroke-width="1" fill="none"></path></g></g><mask></mask><g stroke-linecap="round"><g transform="translate(638.8500279017854 74.25816999162953) rotate(0 12.271484375 17.6640625)"><path d="M0 0 C4.09 5.89, 20.45 29.44, 24.54 35.33 M0 0 C4.09 5.89, 20.45 29.44, 24.54 35.33" stroke="#e03131" stroke-width="1" fill="none"></path></g></g><mask></mask></svg>