<svg version="1.1" xmlns="http://www.w3.org/2000/svg" viewBox="0 0 1374.4857788085935 578.7737383161273" width="2748.971557617187" height="1157.5474766322545">
  <!-- svg-source:excalidraw -->
  
  <defs>
    <style class="style-fonts">
      @font-face {
        font-family: "Virgil";
        src: url("https://excalidraw.com/Virgil.woff2");
      }
      @font-face {
        font-family: "Cascadia";
        src: url("https://excalidraw.com/Cascadia.woff2");
      }
    </style>
    
  </defs>
  <g stroke-linecap="round" transform="translate(10 10) rotate(0 76.41241455078125 79.64028930664062)"><path d="M32 0 M32 0 C55.44 1.02, 78.11 -0.41, 120.82 0 M32 0 C58.2 -0.9, 84.42 -0.12, 120.82 0 M120.82 0 C141.42 0.72, 151.81 10.11, 152.82 32 M120.82 0 C141.66 -1.56, 154.96 12.15, 152.82 32 M152.82 32 C152.33 56.43, 151.19 76.99, 152.82 127.28 M152.82 32 C153.25 63.85, 153.33 94.89, 152.82 127.28 M152.82 127.28 C151.68 147.66, 142.16 159.85, 120.82 159.28 M152.82 127.28 C152.62 146.91, 141.64 157.69, 120.82 159.28 M120.82 159.28 C92.98 159.15, 64.24 157.62, 32 159.28 M120.82 159.28 C100.6 160.29, 82.7 159.2, 32 159.28 M32 159.28 C9.34 160.2, 1.03 149.49, 0 127.28 M32 159.28 C8.75 160.59, 1.68 149.67, 0 127.28 M0 127.28 C0.71 94.97, -0.68 62.79, 0 32 M0 127.28 C1.03 101.19, 1.13 73.35, 0 32 M0 32 C1.93 10.1, 11.77 -0.22, 32 0 M0 32 C-0.34 8.9, 10.09 -1.21, 32 0" stroke="#1e1e1e" stroke-width="1" fill="none"></path></g><g transform="translate(64.25243377685547 77.14028930664062) rotate(0 22.15998077392578 12.5)"><text x="22.15998077392578" y="0" font-family="Virgil, Segoe UI Emoji" font-size="20px" fill="#1e1e1e" text-anchor="middle" style="white-space: pre;" direction="ltr" dominant-baseline="text-before-edge">nginx</text></g><g stroke-linecap="round" transform="translate(11.086608886718864 205.61202130998885) rotate(0 76.41241455078125 79.6402893066406)"><path d="M32 0 M32 0 C49.18 1.67, 70.53 0.24, 120.82 0 M32 0 C49.5 -1.61, 67.43 -1.36, 120.82 0 M120.82 0 C140.17 0.23, 154.66 12.02, 152.82 32 M120.82 0 C140.6 0.76, 152.71 10.46, 152.82 32 M152.82 32 C152.85 54.42, 151.04 79.79, 152.82 127.28 M152.82 32 C152.25 58.3, 152.91 84.39, 152.82 127.28 M152.82 127.28 C150.95 146.94, 143.05 158.35, 120.82 159.28 M152.82 127.28 C154.93 148.34, 140.54 160.68, 120.82 159.28 M120.82 159.28 C89 159.83, 55.29 159.13, 32 159.28 M120.82 159.28 C90.45 158.7, 60.83 158.92, 32 159.28 M32 159.28 C9.47 158.6, 1.14 150.4, 0 127.28 M32 159.28 C12.29 159.11, 1.77 150.15, 0 127.28 M0 127.28 C-1.14 107.94, -0.54 85.09, 0 32 M0 127.28 C-0.84 104.88, -0.61 82.42, 0 32 M0 32 C-1.66 11.76, 12.57 1.18, 32 0 M0 32 C1.24 11.83, 10.92 -0.79, 32 0" stroke="#1e1e1e" stroke-width="1" fill="none"></path></g><g transform="translate(65.33904266357433 272.7523106166295) rotate(0 22.15998077392578 12.5)"><text x="22.15998077392578" y="0" font-family="Virgil, Segoe UI Emoji" font-size="20px" fill="#1e1e1e" text-anchor="middle" style="white-space: pre;" direction="ltr" dominant-baseline="text-before-edge">nginx</text></g><g stroke-linecap="round" transform="translate(15.047180175781023 402.39564296177457) rotate(0 76.41241455078125 79.64028930664062)"><path d="M32 0 M32 0 C48.94 -2.53, 66.74 -2.04, 120.82 0 M32 0 C50.48 -1.49, 67.95 -0.86, 120.82 0 M120.82 0 C141.98 -0.9, 151.24 9.54, 152.82 32 M120.82 0 C143.06 -2.14, 151.65 9.76, 152.82 32 M152.82 32 C152.17 58.25, 153.5 84.09, 152.82 127.28 M152.82 32 C151.56 52.56, 151.91 70.58, 152.82 127.28 M152.82 127.28 C154.04 149.81, 143.92 158.51, 120.82 159.28 M152.82 127.28 C153 149.64, 140.34 159.5, 120.82 159.28 M120.82 159.28 C90.1 157.94, 60.89 158.38, 32 159.28 M120.82 159.28 C100.39 160.49, 78.09 160.56, 32 159.28 M32 159.28 C12 157.53, -0.79 146.76, 0 127.28 M32 159.28 C8.92 160.3, -1.06 146.61, 0 127.28 M0 127.28 C-1.04 104.9, -0.59 82.4, 0 32 M0 127.28 C0.07 107.14, -0.01 86.04, 0 32 M0 32 C-0.69 11.52, 10.21 0.76, 32 0 M0 32 C1 11.98, 11.77 1.97, 32 0" stroke="#1e1e1e" stroke-width="1" fill="none"></path></g><g transform="translate(69.29961395263649 469.5359322684152) rotate(0 22.15998077392578 12.5)"><text x="22.15998077392578" y="0" font-family="Virgil, Segoe UI Emoji" font-size="20px" fill="#1e1e1e" text-anchor="middle" style="white-space: pre;" direction="ltr" dominant-baseline="text-before-edge">nginx</text></g><g stroke-linecap="round" transform="translate(1208.295471191406 14.305215018136266) rotate(0 76.41241455078125 79.64028930664062)"><path d="M32 0 M32 0 C57.78 -2, 82.38 -2.05, 120.82 0 M32 0 C58.35 -0.17, 84.33 -0.48, 120.82 0 M120.82 0 C143.15 -1.46, 153.42 10.26, 152.82 32 M120.82 0 C144.06 -2.04, 150.99 9.06, 152.82 32 M152.82 32 C151.69 64.59, 154.4 92.83, 152.82 127.28 M152.82 32 C151.75 52.12, 152.83 72.87, 152.82 127.28 M152.82 127.28 C153.09 149.14, 140.84 160.93, 120.82 159.28 M152.82 127.28 C154.18 147.02, 144.03 158.85, 120.82 159.28 M120.82 159.28 C89.86 160.47, 57.31 159.39, 32 159.28 M120.82 159.28 C89.6 159.91, 58.66 159.56, 32 159.28 M32 159.28 C9.98 158.82, -0.4 148.84, 0 127.28 M32 159.28 C12.93 157.2, -0.21 148.4, 0 127.28 M0 127.28 C0.8 94.32, -0.61 58.08, 0 32 M0 127.28 C-0.88 106.54, -1.44 84.3, 0 32 M0 32 C1 10.33, 11.17 -0.71, 32 0 M0 32 C-2.18 10.88, 9.03 1.22, 32 0" stroke="#e03131" stroke-width="1" fill="none"></path></g><g transform="translate(1259.077911376953 81.44550432477689) rotate(0 25.629974365234375 12.5)"><text x="25.629974365234375" y="0" font-family="Virgil, Segoe UI Emoji" font-size="20px" fill="#e03131" text-anchor="middle" style="white-space: pre;" direction="ltr" dominant-baseline="text-before-edge">client</text></g><g stroke-linecap="round"><g transform="translate(895.2080252511162 92.13478571344899) rotate(0 -207.91372613194164 92.74773383011208)"><path d="M0.56 0.28 C-155.29 69.95, -311.79 139.32, -416.39 185.21" stroke="#1e1e1e" stroke-width="1.5" fill="none" stroke-dasharray="8 9"></path></g><g transform="translate(895.2080252511162 92.13478571344899) rotate(0 -207.91372613194164 92.74773383011208)"><path d="M-393.53 165.06 C-402.14 172.46, -411.66 180.27, -414.45 184.2" stroke="#1e1e1e" stroke-width="1.5" fill="none"></path></g><g transform="translate(895.2080252511162 92.13478571344899) rotate(0 -207.91372613194164 92.74773383011208)"><path d="M-385.26 183.84 C-397.01 184.25, -409.61 185.04, -414.45 184.2" stroke="#1e1e1e" stroke-width="1.5" fill="none"></path></g></g><mask></mask><g stroke-linecap="round" transform="translate(1208.086905343192 214.0262843540737) rotate(0 76.41241455078125 79.64028930664062)"><path d="M32 0 M32 0 C56.41 0.83, 83.97 -1.48, 120.82 0 M32 0 C59.93 1, 88.3 -0.56, 120.82 0 M120.82 0 C141.47 -1.54, 153.14 12.54, 152.82 32 M120.82 0 C141.87 -0.66, 151.04 10.5, 152.82 32 M152.82 32 C153.85 67.27, 153.26 102.2, 152.82 127.28 M152.82 32 C152.8 54.49, 152.1 77.88, 152.82 127.28 M152.82 127.28 C152.51 147.24, 142.79 158.36, 120.82 159.28 M152.82 127.28 C154.75 150.86, 140.03 158.31, 120.82 159.28 M120.82 159.28 C89.68 157.35, 59.52 157.56, 32 159.28 M120.82 159.28 C101.79 159.26, 82.43 158.66, 32 159.28 M32 159.28 C12.26 160.81, 1.05 149.29, 0 127.28 M32 159.28 C12.12 159.38, -0.02 149.73, 0 127.28 M0 127.28 C0.87 106.28, -1.1 85.17, 0 32 M0 127.28 C-0.19 100.64, -0.5 74.55, 0 32 M0 32 C1.89 12.45, 11.27 -0.69, 32 0 M0 32 C-1.88 10.51, 9.72 0.13, 32 0" stroke="#2f9e44" stroke-width="1" fill="none"></path></g><g transform="translate(1258.869345528739 281.16657366071433) rotate(0 25.629974365234375 12.5)"><text x="25.629974365234375" y="0" font-family="Virgil, Segoe UI Emoji" font-size="20px" fill="#2f9e44" text-anchor="middle" style="white-space: pre;" direction="ltr" dominant-baseline="text-before-edge">client</text></g><g stroke-linecap="round" transform="translate(1211.660949707031 409.493159702846) rotate(0 76.41241455078125 79.64028930664062)"><path d="M32 0 M32 0 C66.73 -0.17, 99.88 2.05, 120.82 0 M32 0 C63.8 -0.45, 94.43 1.13, 120.82 0 M120.82 0 C143.33 -1.71, 153.63 12.27, 152.82 32 M120.82 0 C143.5 1.19, 151.18 10.69, 152.82 32 M152.82 32 C151.49 61.6, 151.75 89.77, 152.82 127.28 M152.82 32 C154.51 67.34, 152.74 101.83, 152.82 127.28 M152.82 127.28 C153.7 148.3, 141.33 160.91, 120.82 159.28 M152.82 127.28 C155.12 148.28, 142.27 159.58, 120.82 159.28 M120.82 159.28 C89.01 161.58, 56.47 162.07, 32 159.28 M120.82 159.28 C88.34 159.3, 55.13 160.89, 32 159.28 M32 159.28 C9.87 159.28, -0.67 150.37, 0 127.28 M32 159.28 C11.93 157.91, -0.22 148.9, 0 127.28 M0 127.28 C1.76 105.04, 1.35 85.45, 0 32 M0 127.28 C-1.15 106.56, 0.55 85.58, 0 32 M0 32 C1.64 10.46, 8.69 -1.9, 32 0 M0 32 C2.14 11.37, 9.65 -1.09, 32 0" stroke="#f08c00" stroke-width="1" fill="none"></path></g><g transform="translate(1262.443389892578 476.63344900948664) rotate(0 25.629974365234375 12.5)"><text x="25.629974365234375" y="0" font-family="Virgil, Segoe UI Emoji" font-size="20px" fill="#f08c00" text-anchor="middle" style="white-space: pre;" direction="ltr" dominant-baseline="text-before-edge">client</text></g><g stroke-linecap="round"><g transform="translate(907.997581228133 488.1363190158494) rotate(0 -217.40175795778532 2.8339403788891104)"><path d="M0.2 -0.01 C-119.09 0.44, -236.58 2.76, -435.01 5.68" stroke="#1e1e1e" stroke-width="1.5" fill="none" stroke-dasharray="8 9"></path></g><g transform="translate(907.997581228133 488.1363190158494) rotate(0 -217.40175795778532 2.8339403788891104)"><path d="M-406.58 -5.03 C-416.42 -3.94, -422.69 0.4, -435.23 5.34" stroke="#1e1e1e" stroke-width="1.5" fill="none"></path></g><g transform="translate(907.997581228133 488.1363190158494) rotate(0 -217.40175795778532 2.8339403788891104)"><path d="M-406.26 15.49 C-416.16 11, -422.52 9.77, -435.23 5.34" stroke="#1e1e1e" stroke-width="1.5" fill="none"></path></g></g><mask></mask><g stroke-linecap="round" transform="translate(519.2357352120534 52.85724748883928) rotate(0 9.88311767578125 9.3017578125)"><path d="M9.78 0.86 C13.5 4.79, 16.99 7.91, 19.34 9.15 M10.14 -0.36 C12.81 3.05, 16.7 6.79, 20.17 9.54 M19.93 9.1 C16.01 11.93, 15.63 15.45, 9.67 19.29 M19.77 10.41 C17 12.25, 13.16 14.91, 9.75 18.14 M11.2 19.39 C7.23 16.57, 1.66 12.37, 1.31 11.03 M10.4 19.07 C7.15 15.71, 3.43 12.85, -0.58 9.48 M-0.54 9.05 C0.77 9.12, 3.76 6.48, 9.56 -0.69 M-0.42 10.42 C2.7 7.36, 4.88 4.78, 10.21 0.31" stroke="#e03131" stroke-width="1" fill="none"></path></g><g stroke-linecap="round" transform="translate(511.187399727957 146.1107991794961) rotate(0 10.023338939552389 9.433730766637524)"><path d="M11.17 -1.29 C12.72 3.93, 15.77 4.54, 19.25 9.04 M11.2 -0.23 C14.26 3.77, 17.66 7.66, 19.81 10.21 M19.29 10.11 C18.8 11.32, 17.4 13.67, 10.27 18.87 M19.87 9.8 C17.56 13.3, 13.93 15.4, 11.58 19.1 M9.97 19.66 C7.02 13.96, 1.34 11.17, -0.47 9.1 M10.32 18.53 C7.42 17.1, 5.35 14.29, -0.11 10.08 M0.73 9.8 C2.66 6.32, 5.76 5.08, 9.75 1.17 M0.09 10.2 C3.88 5.78, 7.87 2.82, 10.75 0.37" stroke="#2f9e44" stroke-width="1" fill="none"></path></g><g stroke-linecap="round" transform="translate(372.8675885881696 35.01614815848211) rotate(0 40.404532296316916 55)"><path d="M0.91 -1.4 C20.04 -1.64, 39.32 -0.59, 79.34 2 M-0.28 -0.07 C29.22 0.18, 57.14 -1.23, 81.43 0.43 M79.2 -0.66 C81.27 22.87, 82.3 44.88, 80.33 109.94 M81.51 -0.57 C81.92 30.03, 82.05 60.89, 80.71 109.35 M81.35 108.87 C65.42 108.46, 46.54 109.24, -1.25 110.68 M81.78 110.17 C60.38 111.55, 41.17 111.39, -0.59 109.28 M0.99 110.77 C0.73 81.72, -1.21 51.81, -0.89 -0.92 M0.18 110.04 C-0.33 77.96, -0.62 47.86, -0.24 0.33" stroke="#1e1e1e" stroke-width="1" fill="none"></path></g><g transform="translate(388.1621584211076 65.01614815848211) rotate(0 25.109962463378906 25)"><text x="25.109962463378906" y="0" font-family="Virgil, Segoe UI Emoji" font-size="20px" fill="#1e1e1e" text-anchor="middle" style="white-space: pre;" direction="ltr" dominant-baseline="text-before-edge">istio-</text><text x="25.109962463378906" y="25" font-family="Virgil, Segoe UI Emoji" font-size="20px" fill="#1e1e1e" text-anchor="middle" style="white-space: pre;" direction="ltr" dominant-baseline="text-before-edge">proxy</text></g><g stroke-linecap="round" transform="translate(380.8355974469864 228.38127790178567) rotate(0 40.404532296316916 55)"><path d="M-0.96 -0.79 C21.61 -1.57, 38.97 -0.05, 82.36 -1.88 M-0.82 -0.78 C31.75 0.49, 63.38 1.07, 80.55 -0.78 M79.91 -1.58 C80.44 37.42, 81.4 73.47, 82.05 108.76 M79.91 0.67 C80.7 29.88, 81.02 58.61, 80.8 109.69 M80.31 110.86 C51.08 110.07, 19.55 110.53, 0.77 111.96 M81.42 109.99 C58.39 108.95, 34.19 110.54, -0.15 110.86 M-0.69 108.45 C1.6 71.35, -0.92 29.5, -1.49 0.78 M-0.15 109.2 C0.18 78.57, 0.58 47.34, -0.3 0.8" stroke="#1e1e1e" stroke-width="1" fill="none"></path></g><g transform="translate(396.1301672799244 258.38127790178567) rotate(0 25.109962463378906 25)"><text x="25.109962463378906" y="0" font-family="Virgil, Segoe UI Emoji" font-size="20px" fill="#1e1e1e" text-anchor="middle" style="white-space: pre;" direction="ltr" dominant-baseline="text-before-edge">istio-</text><text x="25.109962463378906" y="25" font-family="Virgil, Segoe UI Emoji" font-size="20px" fill="#1e1e1e" text-anchor="middle" style="white-space: pre;" direction="ltr" dominant-baseline="text-before-edge">proxy</text></g><g stroke-linecap="round" transform="translate(381.97172328403985 435.5812901088169) rotate(0 40.404532296316916 55)"><path d="M-0.51 -0.56 C28.68 0.88, 58.01 -0.1, 82.27 0.65 M0.25 0.37 C23.82 1.05, 47.7 0.22, 79.82 -0.08 M80.1 0.38 C82.9 38.27, 80.53 77.37, 79.07 108.26 M80.77 0.41 C79.82 27.58, 80.83 57.42, 80.67 110.45 M80.44 110.82 C56.99 108.34, 29.56 111.8, 1.21 109.24 M81.36 109.63 C60.32 111.31, 37.76 111.32, -0.02 110.31 M-0.39 108.27 C1.38 72.75, -0.53 32.44, 0.96 1.97 M0.07 110.35 C0.1 76.66, 0.32 40.74, -0.45 -0.04" stroke="#1e1e1e" stroke-width="1" fill="none"></path></g><g transform="translate(397.26629311697786 465.5812901088169) rotate(0 25.109962463378906 25)"><text x="25.109962463378906" y="0" font-family="Virgil, Segoe UI Emoji" font-size="20px" fill="#1e1e1e" text-anchor="middle" style="white-space: pre;" direction="ltr" dominant-baseline="text-before-edge">istio-</text><text x="25.109962463378906" y="25" font-family="Virgil, Segoe UI Emoji" font-size="20px" fill="#1e1e1e" text-anchor="middle" style="white-space: pre;" direction="ltr" dominant-baseline="text-before-edge">proxy</text></g><g stroke-linecap="round" transform="translate(901.2864728655134 41.804609026227695) rotate(0 40.404532296316916 55)"><path d="M0.69 -1.25 C24.09 0.82, 48.45 0.01, 82.73 1.53 M-0.27 0.23 C19.5 0.89, 39.51 0.43, 81.19 -0.55 M80 1.5 C78.15 37.46, 80.47 77.25, 82.8 108.17 M79.92 -0.15 C80.44 36.54, 79.6 71.96, 81.78 109.77 M79.68 108.67 C50.43 111.43, 23.05 112.11, -1.33 109.07 M80.47 110.88 C60.89 109.39, 41.13 110.46, -0.31 110.69 M0.4 111.54 C2.36 68.53, -0.52 21.68, -0.7 -0.74 M-0.63 109.52 C-1.58 69.87, -1 29.96, 0.09 0.1" stroke="#1e1e1e" stroke-width="1" fill="none"></path></g><g transform="translate(916.5810426984513 71.8046090262277) rotate(0 25.109962463378906 25)"><text x="25.109962463378906" y="0" font-family="Virgil, Segoe UI Emoji" font-size="20px" fill="#1e1e1e" text-anchor="middle" style="white-space: pre;" direction="ltr" dominant-baseline="text-before-edge">istio-</text><text x="25.109962463378906" y="25" font-family="Virgil, Segoe UI Emoji" font-size="20px" fill="#1e1e1e" text-anchor="middle" style="white-space: pre;" direction="ltr" dominant-baseline="text-before-edge">proxy</text></g><g stroke-linecap="round" transform="translate(910.4801112583705 246.2769165039062) rotate(0 40.404532296316916 55)"><path d="M-1.34 -0.54 C20.58 0.17, 39.16 1.1, 82.7 0.4 M0.88 -0.41 C26.15 0.58, 49.45 -0.4, 81.24 -0.24 M82.28 0.6 C80.99 31.75, 79.98 61.46, 82.75 111.26 M80.53 0.53 C82.14 32.35, 81.3 64.34, 79.84 110.95 M81.99 111.71 C63.87 112.48, 43.86 110.55, 1.13 108.81 M80.48 110.36 C58.05 111, 36.29 110.11, -0.09 110.87 M0.13 110.01 C1.78 70.93, -1.3 33.78, -1.22 1.83 M0.07 109.05 C1.92 66.8, 1.01 23.97, -0.49 -0.39" stroke="#1e1e1e" stroke-width="1" fill="none"></path></g><g transform="translate(925.7746810913084 276.2769165039062) rotate(0 25.109962463378906 25)"><text x="25.109962463378906" y="0" font-family="Virgil, Segoe UI Emoji" font-size="20px" fill="#1e1e1e" text-anchor="middle" style="white-space: pre;" direction="ltr" dominant-baseline="text-before-edge">istio-</text><text x="25.109962463378906" y="25" font-family="Virgil, Segoe UI Emoji" font-size="20px" fill="#1e1e1e" text-anchor="middle" style="white-space: pre;" direction="ltr" dominant-baseline="text-before-edge">proxy</text></g><g stroke-linecap="round" transform="translate(913.6239449637278 435.56873430524536) rotate(0 40.404532296316916 55)"><path d="M0.62 -0.53 C24.08 -2.13, 46.76 -1.26, 81.68 -0.19 M0.16 0.16 C16.95 -0.29, 33.87 0.49, 80.63 0.88 M80.48 1 C80 36.5, 79.91 76.51, 80 109.49 M80.47 -0.95 C81.32 22.22, 81.28 45.18, 79.95 109.03 M80.76 109.66 C63.54 112.22, 43.13 109.66, 1.88 111.97 M79.91 109.3 C56.37 110.47, 32.15 110.33, 0.41 109.58 M1.52 111.81 C-1.38 82.22, 1.48 50.64, -1.21 0.4 M-0.24 110.49 C-1.23 73.87, -0.5 38.59, -0.35 0.63" stroke="#1e1e1e" stroke-width="1" fill="none"></path></g><g transform="translate(928.9185147966657 465.56873430524536) rotate(0 25.109962463378906 25)"><text x="25.109962463378906" y="0" font-family="Virgil, Segoe UI Emoji" font-size="20px" fill="#1e1e1e" text-anchor="middle" style="white-space: pre;" direction="ltr" dominant-baseline="text-before-edge">istio-</text><text x="25.109962463378906" y="25" font-family="Virgil, Segoe UI Emoji" font-size="20px" fill="#1e1e1e" text-anchor="middle" style="white-space: pre;" direction="ltr" dominant-baseline="text-before-edge">proxy</text></g><g stroke-linecap="round"><g transform="translate(902.5907455236825 295.7276254053789) rotate(0 -211.1772993734731 -3.4940378327398776)"><path d="M-0.57 0.48 C-159.27 -2.82, -320.01 -6.19, -421.79 -7.47" stroke="#1e1e1e" stroke-width="1.5" fill="none" stroke-dasharray="8 9"></path></g><g transform="translate(902.5907455236825 295.7276254053789) rotate(0 -211.1772993734731 -3.4940378327398776)"><path d="M-394.51 -16.38 C-402.25 -11.97, -413.89 -9.44, -420.96 -7.98" stroke="#1e1e1e" stroke-width="1.5" fill="none"></path></g><g transform="translate(902.5907455236825 295.7276254053789) rotate(0 -211.1772993734731 -3.4940378327398776)"><path d="M-394.83 4.14 C-402.48 0.76, -414 -4.5, -420.96 -7.98" stroke="#1e1e1e" stroke-width="1.5" fill="none"></path></g></g><mask></mask><g stroke-linecap="round"><g transform="translate(890.8982892102424 90.9076786547331) rotate(0 -214.34596386326575 0.2923076089263503)"><path d="M-1 0.9 C-120.53 -1.13, -238.84 0, -427.7 -0.07" stroke="#1e1e1e" stroke-width="1.5" fill="none" stroke-dasharray="8 9"></path></g><g transform="translate(890.8982892102424 90.9076786547331) rotate(0 -214.34596386326575 0.2923076089263503)"><path d="M-401.42 -8.63 C-408.62 -7.62, -413.46 -2.79, -429.65 -0.98" stroke="#1e1e1e" stroke-width="1.5" fill="none"></path></g><g transform="translate(890.8982892102424 90.9076786547331) rotate(0 -214.34596386326575 0.2923076089263503)"><path d="M-401.4 11.89 C-408.57 7.13, -413.42 6.2, -429.65 -0.98" stroke="#1e1e1e" stroke-width="1.5" fill="none"></path></g></g><mask></mask><g stroke-linecap="round"><g transform="translate(902.7639109812717 298.98023247848164) rotate(0 -219.20834251737045 -99.07079058664044)"><path d="M0.7 0.3 C-160.04 -71.32, -317.98 -143.11, -439.12 -198.44" stroke="#1e1e1e" stroke-width="1.5" fill="none" stroke-dasharray="8 9"></path></g><g transform="translate(902.7639109812717 298.98023247848164) rotate(0 -219.20834251737045 -99.07079058664044)"><path d="M-407.58 -195.39 C-421.71 -197.24, -431.27 -199.22, -438.03 -200.01" stroke="#1e1e1e" stroke-width="1.5" fill="none"></path></g><g transform="translate(902.7639109812717 298.98023247848164) rotate(0 -219.20834251737045 -99.07079058664044)"><path d="M-416.09 -176.71 C-427.34 -185.3, -433.83 -194.02, -438.03 -200.01" stroke="#1e1e1e" stroke-width="1.5" fill="none"></path></g></g><mask></mask><g stroke-linecap="round" transform="translate(594.2983834402901 50.80594308035711) rotate(0 9.88311767578125 9.3017578125)"><path d="M11.37 0.42 C12.21 3.18, 13.47 5.62, 19.94 9.21 M9.32 0.64 C13.46 4.25, 17.79 7.96, 20.05 9.6 M20.45 11.09 C17.52 12.95, 14.93 13.61, 10.21 18.76 M20.18 10.6 C16.29 12.36, 14.13 15.79, 9.44 18.34 M10.73 19.43 C6.91 16.74, 3.97 14.52, 0.97 9.43 M10.38 18.8 C6.56 15.88, 1.88 11.62, 0.1 9.6 M-1.22 11.39 C0.73 7.67, 4.1 4.85, 9.49 0.86 M-0.06 9.81 C3.35 6.49, 7.73 2.89, 9.75 -0.29" stroke="#e03131" stroke-width="1" fill="none"></path></g><g stroke-linecap="round" transform="translate(739.7684413364955 117.40811593191955) rotate(0 9.88311767578125 9.3017578125)"><path d="M9.28 -0.22 C12.66 3.08, 15.35 4.92, 20.27 10.93 M9.75 0.46 C12.54 2.66, 16.47 6.53, 20.08 9.43 M20.44 10.05 C18.05 13.25, 12.97 15.88, 11.16 19.53 M20.15 9.69 C17.25 12.76, 13.54 14.76, 10.47 18.23 M10.47 17.86 C6.63 14.78, 3.11 12.44, -0.98 10.33 M10.62 18.3 C6.79 16.03, 4.29 14.28, 0.38 9.39 M0.95 9.3 C3.2 6.45, 5.69 5.24, 10.51 1.05 M-0.45 9.99 C4.43 5.74, 8.19 2.21, 10.29 0.71" stroke="#e03131" stroke-width="1" fill="none"></path></g><g stroke-linecap="round" transform="translate(683.6017979213168 142.13616071428567) rotate(0 9.88311767578125 9.3017578125)"><path d="M8.69 -0.27 C13 1.8, 15.62 4.38, 18.98 10 M10.69 -0.16 C11.8 2.25, 13.65 4.48, 20.3 9.52 M20.51 10.7 C16.74 12.03, 15 14.59, 9.1 18.24 M20.28 9.38 C16.91 12.28, 12.83 15.87, 10.13 18.66 M10.78 17.37 C6.48 17.09, 3.53 14, -0.59 11.13 M10.18 19.11 C6.6 15.33, 3.22 13.17, -0.17 9.92 M-1.38 8.96 C3.06 7.3, 5.69 4.28, 10.83 -1.35 M0.02 9.76 C2.97 8.04, 5.4 4.59, 9.35 -0.31" stroke="#e03131" stroke-width="1" fill="none"></path></g><g stroke-linecap="round" transform="translate(584.110118789242 181.54699084329553) rotate(0 10.023338939552389 9.433730766637524)"><path d="M12.16 -0.58 C12.52 1.86, 15.33 7.16, 20.11 10.21 M11.14 -0.09 C12.51 2.35, 14.87 3.76, 20.24 9.9 M19.39 10.35 C16.52 13.61, 15.34 14.34, 10.96 18.73 M20.24 10.13 C17.06 13.55, 13.73 16.35, 10.98 18.65 M11.4 19.14 C7.54 16.85, 4.39 15.2, 0.62 10.22 M10.62 18.49 C8.27 17.41, 6.04 14.74, -0.22 9.63 M1.25 10.38 C3.22 6.89, 3.65 7.51, 11 0.21 M-0.31 10.28 C2.06 7.92, 4.67 5.69, 10.47 -0.47" stroke="#2f9e44" stroke-width="1" fill="none"></path></g><g stroke-linecap="round"><g transform="translate(904.5107106814328 304.00528242536814) rotate(0 -215.8419835832466 95.81770090979916)"><path d="M-0.47 0.6 C-128.14 58.6, -256.07 115.53, -431.22 191.04" stroke="#1e1e1e" stroke-width="1.5" fill="none" stroke-dasharray="8 9"></path></g><g transform="translate(904.5107106814328 304.00528242536814) rotate(0 -215.8419835832466 95.81770090979916)"><path d="M-410.49 171.74 C-415.32 177.1, -420.88 183.25, -429.4 189.73" stroke="#1e1e1e" stroke-width="1.5" fill="none"></path></g><g transform="translate(904.5107106814328 304.00528242536814) rotate(0 -215.8419835832466 95.81770090979916)"><path d="M-402.32 190.56 C-409.55 190.4, -417.54 190.95, -429.4 189.73" stroke="#1e1e1e" stroke-width="1.5" fill="none"></path></g></g><mask></mask><g stroke-linecap="round" transform="translate(611.4619777457153 310.2498193868223) rotate(0 10.023338939552389 9.433730766637524)"><path d="M11.05 0.38 C13.59 4.42, 17.9 6.7, 20.72 10.15 M10.41 -0.32 C13.75 3.44, 16.2 6.13, 20.42 10.14 M19.62 10.03 C16.99 11.63, 15.14 13.42, 10.34 19.82 M20.14 9.88 C16.82 12.66, 13.09 16.9, 11.48 19.22 M11.02 18.6 C6.23 15.04, 1.94 13.07, 0.6 8.74 M11.4 18.29 C7.8 16.11, 5.11 14.83, 0.4 9.77 M0.47 10.96 C1.56 6.92, 6.01 4.71, 11.57 -0.69 M0.17 9.79 C1.85 7.46, 5.05 5.8, 11.65 -0.09" stroke="#2f9e44" stroke-width="1" fill="none"></path></g><g stroke-linecap="round" transform="translate(678.5364755135724 311.706292601108) rotate(0 10.023338939552389 9.433730766637524)"><path d="M10.57 -0.87 C12.6 2.48, 15.74 5.55, 19.07 9.35 M10.69 -0.66 C14.8 3.46, 17.49 6.82, 19.8 9.52 M19.89 10.45 C15.85 13.82, 12.15 17.51, 11.77 18.07 M20.38 9.69 C17.39 11.98, 14.75 15.52, 10.96 18.69 M11.25 19.97 C6.69 14.77, 3.65 13.17, -0.71 10.6 M10.63 18.4 C7.59 16.01, 3.65 12.76, -0.41 10.2 M0.82 9.23 C4.87 5.74, 7.51 2.34, 12.02 1.44 M-0.36 9.42 C4.21 7.07, 8.51 2.79, 11.29 0.62" stroke="#2f9e44" stroke-width="1" fill="none"></path></g><g stroke-linecap="round" transform="translate(869.6201983093315 340.652825804233) rotate(0 10.023338939552332 9.433730766637552)"><path d="M11.63 -0.12 C13.67 3.2, 16.65 5.24, 19.15 9.98 M11.1 0.3 C13.61 1.97, 16.31 4.82, 20.57 10.33 M19.31 9.45 C18.42 12.78, 13.95 15.72, 11.6 18.43 M19.75 10.55 C16.51 13.65, 13.33 15.87, 10.87 18.88 M10.85 19.56 C8.12 17.75, 5.7 13.5, -0.27 9.28 M11.63 19.54 C8.97 17.02, 5.9 14.95, 0.07 10.07 M-0.62 10.59 C3.56 9.01, 3.7 4.38, 12.13 1.04 M-0.23 10.74 C3.3 7.72, 4.89 5.49, 11.22 -0.66" stroke="#2f9e44" stroke-width="1" fill="none"></path></g><g stroke-linecap="round" transform="translate(815.2843480024121 362.09212198168836) rotate(0 10.023338939552332 9.433730766637552)"><path d="M9.75 -0.41 C14.44 3.88, 16.27 7.11, 21.03 10 M11.27 0.18 C14.47 3.51, 17.78 7.44, 20.42 9.51 M20.88 10.3 C16.81 14.22, 13.61 15.7, 11.52 19.56 M20.22 10.11 C16.94 12.57, 14.53 15.8, 11.22 18.62 M10.76 18.2 C6.1 15.69, 3.22 12.29, -1.02 10.35 M11.39 18.89 C7.05 15.41, 1.85 11.62, 0.53 10.34 M1.29 9.42 C2.97 7.84, 3.88 3.82, 12.08 -1.09 M-0.43 9.62 C3.39 7.55, 6.96 3.72, 10.78 0.73" stroke="#2f9e44" stroke-width="1" fill="none"></path></g><g stroke-linecap="round" transform="translate(561.6408107535278 515.7728906758847) rotate(0 10.023338939552389 9.433730766637552)"><path d="M10.03 0.33 C15.18 2.55, 16.03 6.97, 20.09 10.76 M11.5 0.32 C13.46 3.84, 16.14 6.97, 19.79 10.16 M20.97 9.07 C16.96 11.9, 13.86 14.75, 10.35 19.15 M19.86 10.63 C17.41 12.81, 13.85 16.79, 11.06 19.16 M12.03 19.77 C7.86 16.32, 4.87 14.41, 0.71 10.94 M11.19 19.04 C8.17 16.59, 5.35 14.63, 0.65 9.67 M0.1 8.64 C2.63 7.61, 6.55 1.56, 10.26 -1.26 M-0.53 9.65 C2.92 7.8, 4.97 6.66, 10.43 0.54" stroke="#f08c00" stroke-width="1" fill="none"></path></g><g stroke-linecap="round" transform="translate(668.6761588283048 518.0762702796794) rotate(0 10.023338939552389 9.433730766637552)"><path d="M9.7 -0.62 C14.35 2.78, 16.53 6.48, 18.88 11.3 M10.92 -0.28 C13.55 1.61, 15.42 4.93, 20.64 10.28 M18.86 11.2 C17.47 11.01, 15.88 14.64, 11.28 18.54 M20.57 10.54 C17.14 12.39, 14.87 15.38, 11.52 19.44 M10.25 18.61 C5.48 15.52, 2.42 11.58, -0.48 10.95 M10.9 19.24 C7.6 15.78, 5.2 14.35, -0.55 10.16 M-1.4 11.2 C5 7, 7.84 1.26, 10.45 -1.01 M0.19 9.98 C3.49 7.55, 5.02 4.16, 10.7 0.58" stroke="#f08c00" stroke-width="1" fill="none"></path></g><g stroke-linecap="round"><g transform="translate(1199.9405168805802 94.11920331099702) rotate(0 -107.96161177438637 0.34400387919519915)"><path d="M-1.48 -0.68 C-74.31 2.18, -146.45 0.57, -216.07 0.98 M0.23 -0.57 C-79.33 -0.16, -158.65 0.56, -216.15 1.37" stroke="#e03131" stroke-width="1" fill="none"></path></g><g transform="translate(1199.9405168805802 94.11920331099702) rotate(0 -107.96161177438637 0.34400387919519915)"><path d="M-189.78 -10.02 C-199.08 -4.71, -207.6 -3.78, -216.33 0.1 M-187.83 -9.88 C-198.7 -5.93, -209.29 -2.11, -216.42 0.55" stroke="#e03131" stroke-width="1" fill="none"></path></g><g transform="translate(1199.9405168805802 94.11920331099702) rotate(0 -107.96161177438637 0.34400387919519915)"><path d="M-189.53 10.5 C-198.97 8.88, -207.57 2.87, -216.33 0.1 M-187.58 10.64 C-198.54 7.07, -209.22 3.39, -216.42 0.55" stroke="#e03131" stroke-width="1" fill="none"></path></g></g><mask></mask><g stroke-linecap="round" transform="translate(1025.628252301897 62.11863490513389) rotate(0 9.88311767578125 9.3017578125)"><path d="M9.52 -0.71 C13.77 5.02, 16.62 6.43, 20.19 9.74 M9.61 -0.23 C12.52 2.9, 15.41 5.91, 19.16 9.81 M20.8 9.08 C17.19 12.69, 14 16.54, 10.17 17.37 M19.67 9.56 C16.92 12.46, 14.84 13.77, 10.18 19.21 M8.88 18.92 C6.98 16.05, 3.75 13.74, 0.14 10.51 M9.36 18.16 C7.27 17.06, 5.2 15.05, 0.33 10.18 M-0.98 9.53 C2.44 7.84, 3.7 5.12, 9.85 -0.9 M-0.62 10.15 C2.38 7.58, 3.51 6.11, 9.63 0.69" stroke="#e03131" stroke-width="1" fill="none"></path></g><g stroke-linecap="round" transform="translate(1059.5426112583702 62.54300362723211) rotate(0 9.88311767578125 9.3017578125)"><path d="M11.26 -0.01 C12.72 4.68, 16.61 6.56, 20.73 10.35 M10.6 0.22 C13.1 3.33, 17.11 7.84, 19.75 10.07 M18.64 8.81 C17.82 13.58, 14.47 14.35, 9.67 18.4 M19.55 9.75 C16.27 12.8, 13.68 15.4, 9.7 18.55 M10.49 18.7 C7.93 15.61, 2.61 13.28, -0.69 10.23 M9.92 19.11 C7.92 16.34, 4.61 14.74, 0.65 10.39 M1.25 10.34 C0.99 6.68, 4.66 6.56, 9.22 0.69 M-0.09 10.34 C3.43 6.41, 5.97 3.1, 9.96 -0.15" stroke="#e03131" stroke-width="1" fill="none"></path></g><g stroke-linecap="round" transform="translate(1096.5436924525668 61.03996930803572) rotate(0 9.88311767578125 9.3017578125)"><path d="M10.22 -0.11 C13.85 3.24, 16.95 6.82, 20.67 11.2 M9.6 0.28 C13.12 3.44, 16.23 6.04, 20.31 9.39 M20.03 9.45 C17.45 11.68, 16.11 14.7, 8.92 18.16 M20.02 9.84 C16.87 12.2, 14.84 14.18, 10.14 18.85 M9.26 19.02 C6.15 16.17, 2.97 13.37, -0.32 9.85 M9.39 18.88 C6.84 15.73, 1.79 11.71, -0.51 10.58 M0.53 10.56 C2.54 7.55, 6.73 4.23, 10.11 -0.19 M-0.23 9.35 C3.39 6.43, 7.35 3.69, 9.55 0.12" stroke="#e03131" stroke-width="1" fill="none"></path></g><g stroke-linecap="round" transform="translate(1131.4852730887274 61.01516287667408) rotate(0 9.88311767578125 9.3017578125)"><path d="M11.14 0.93 C13.82 4.09, 16.2 4.44, 18.93 9.19 M9.86 -0.64 C13.85 2.78, 15.99 7.25, 20.35 10.14 M20.13 11.02 C16.15 11.76, 14.22 13.7, 10.11 19.11 M19.99 9.67 C17.19 12.6, 14.41 15.33, 9.93 18.24 M9.2 18.67 C6.4 15.61, 4.43 13.54, -0.37 8.79 M9.37 18.23 C5.99 16.31, 3.25 12.28, -0.63 10.25 M0.17 10.62 C3.57 6.36, 7.53 3.86, 9.08 -0.46 M0.45 10.58 C1.63 8.07, 3.93 5.8, 10.4 -0.28" stroke="#e03131" stroke-width="1" fill="none"></path></g><g stroke-linecap="round"><g transform="translate(1196.5209786551336 297.85624476841514) rotate(0 -99.86424499610507 -0.5329557293264031)"><path d="M1.03 1.74 C-72.34 -1.86, -145.29 -4.78, -199.12 -1.13 M-0.86 0.75 C-45.47 -1.37, -90 -1.86, -200.76 -1.65" stroke="#2f9e44" stroke-width="1" fill="none"></path></g><g transform="translate(1196.5209786551336 297.85624476841514) rotate(0 -99.86424499610507 -0.5329557293264031)"><path d="M-171.42 -9.97 C-182.3 -7.72, -192.62 -6.23, -198.88 -0.12 M-173.53 -11.07 C-179.7 -10.18, -185.87 -7.82, -200.71 -0.7" stroke="#2f9e44" stroke-width="1" fill="none"></path></g><g transform="translate(1196.5209786551336 297.85624476841514) rotate(0 -99.86424499610507 -0.5329557293264031)"><path d="M-171.42 10.55 C-182.17 5.36, -192.49 -0.6, -198.88 -0.12 M-173.53 9.45 C-179.85 5.78, -186.03 3.58, -200.71 -0.7" stroke="#2f9e44" stroke-width="1" fill="none"></path></g></g><mask></mask><g stroke-linecap="round" transform="translate(1012.911213934331 263.9316343979831) rotate(0 10.023338939552332 9.433730766637524)"><path d="M11.6 -1.26 C14.25 3.1, 14.7 4.58, 18.75 8.81 M11.23 -0.24 C14.16 3.49, 17.45 7.33, 19.5 9.9 M19.59 10.5 C17.4 13.65, 14.55 16.87, 11.63 19.38 M20.57 9.96 C16.12 13.53, 13.59 17.08, 11.46 18.74 M12.29 17.87 C7.21 15.84, 3.15 13.23, -1.28 9.71 M10.56 18.77 C7.52 15.72, 4.48 13.98, 0.66 9.77 M-0.65 9.04 C3.37 7.56, 6.27 2.92, 10.83 -0.86 M-0.3 10.05 C2.91 7.71, 5.77 4.16, 10.44 -0.4" stroke="#2f9e44" stroke-width="1" fill="none"></path></g><g stroke-linecap="round" transform="translate(1044.2871207423673 262.67692597164364) rotate(0 10.023338939552332 9.433730766637524)"><path d="M10.09 -0.46 C12.96 1.52, 14.96 5.49, 19.1 9.46 M10.73 -0.3 C13.25 2.66, 15.93 6.02, 20.61 9.37 M19.69 9.48 C17.35 11.85, 15.04 13.81, 10.08 19.81 M20.16 10.4 C17.59 12.13, 14.27 15.55, 10.47 18.79 M12.35 17.63 C8.47 17.43, 5.25 15.09, -0.28 9.88 M11.44 18.69 C7.78 15.76, 3.3 13.07, -0.23 10.19 M-0.3 9.57 C2.47 6.89, 8.48 3.13, 9.8 0.43 M-0.24 10.41 C2.97 8.47, 5.1 5.39, 11.09 -0.66" stroke="#2f9e44" stroke-width="1" fill="none"></path></g><g stroke-linecap="round" transform="translate(1075.3079773271888 263.0420905921793) rotate(0 10.023338939552332 9.433730766637524)"><path d="M10.05 -0.77 C14.7 2.01, 16.65 6.15, 20.73 9.29 M11.56 0.3 C15.15 3.78, 18.02 8.24, 19.7 9.38 M20.28 10.08 C17.79 12.88, 13.82 17.24, 12.04 19.53 M20.27 10.3 C17.64 11.88, 15.14 14.43, 11.09 18.28 M12.27 18.99 C7.76 16.74, 3.8 13.21, -0.07 10.4 M10.98 18.83 C7.55 16.09, 2.93 13.27, 0.67 9.38 M1.11 8.6 C2.21 6.62, 6.29 4.91, 10.48 -1.26 M0.3 10.66 C2.58 8.08, 5.78 5.25, 11.61 -0.54" stroke="#2f9e44" stroke-width="1" fill="none"></path></g><g stroke-linecap="round" transform="translate(1108.480584749064 262.6520759437419) rotate(0 10.023338939552332 9.433730766637524)"><path d="M11.63 0.32 C12.27 3.07, 14.86 5.57, 18.8 9.56 M11.06 -0.12 C14.37 2.88, 17.03 7, 20.24 10.31 M19.98 10.52 C18.53 11.12, 16.86 15.36, 9.88 18.16 M19.45 9.84 C16.1 13.93, 12.91 16.71, 10.46 18.52 M12.25 18.77 C7.78 16.48, 2.97 13.45, -1.02 9.38 M10.43 19.22 C7.92 16.45, 5.53 14.92, -0.08 10.31 M-1.08 8.94 C3.49 8.69, 6.31 4.65, 12.36 -0.87 M-0.3 10.5 C3.68 5.74, 8.23 2.73, 10.85 0.71" stroke="#2f9e44" stroke-width="1" fill="none"></path></g><g stroke-linecap="round" transform="translate(1141.9543570704918 263.75785858883125) rotate(0 10.023338939552332 9.433730766637524)"><path d="M12 -1.27 C12.94 1.58, 16.42 4.69, 19.58 8.86 M11.27 0.6 C13.25 2.93, 15.93 5.04, 20.6 9.51 M20.56 8.98 C18.32 11.46, 14.75 14.18, 11.44 18.73 M19.97 9.54 C16.45 13.23, 14.31 16.29, 10.88 19.45 M12.03 18.29 C9.25 16.28, 4.51 15.31, -0.05 9.71 M11.2 18.8 C6.02 15.67, 1.59 11.31, -0.48 9.66 M-0.67 10.56 C4.05 5.61, 6.08 3.13, 12.03 1.35 M-0.49 9.39 C3.11 7.1, 4.79 5.66, 11.22 -0.38" stroke="#2f9e44" stroke-width="1" fill="none"></path></g><g stroke-linecap="round" transform="translate(1176.8959377066526 260.4683252461973) rotate(0 10.023338939552332 9.433730766637524)"><path d="M10.83 0.23 C12.1 2.97, 15.42 5.63, 19.94 9.51 M10.64 0.66 C12.72 2.42, 15.33 5.08, 20.03 9.64 M21 9.57 C16.21 13.24, 14.26 16.72, 11.25 19.49 M19.67 10.41 C18.79 11.28, 17.04 12.99, 10.98 18.57 M10.02 19.9 C9.1 16.94, 6.4 14.32, 0.16 11.1 M11.61 19.27 C6.89 15.83, 2.38 12.73, -0.65 9.57 M-1.38 10.32 C3.72 5.58, 6.22 5.03, 11.95 -1.22 M0.61 10.72 C2.37 7.97, 5.46 5.68, 10.6 0.26" stroke="#2f9e44" stroke-width="1" fill="none"></path></g><g stroke-linecap="round"><g transform="translate(1204.5985456194194 484.5371529715402) rotate(0 -102.16171872141081 1.99669878079078)"><path d="M1.28 0.52 C-80.77 4.38, -160.89 4.63, -203.83 3.33 M0.7 -0.04 C-70.68 0.87, -142.91 2.9, -205.61 2.7" stroke="#f08c00" stroke-width="1" fill="none"></path></g><g transform="translate(1204.5985456194194 484.5371529715402) rotate(0 -102.16171872141081 1.99669878079078)"><path d="M-176.04 -7.13 C-188.58 -1.43, -198.9 1.4, -204.33 2.5 M-176.69 -7.77 C-186.24 -4.87, -196.8 -0.33, -206.32 1.8" stroke="#f08c00" stroke-width="1" fill="none"></path></g><g transform="translate(1204.5985456194194 484.5371529715402) rotate(0 -102.16171872141081 1.99669878079078)"><path d="M-175.92 13.39 C-188.37 11, -198.74 5.74, -204.33 2.5 M-176.58 12.75 C-186.3 8.49, -196.91 5.86, -206.32 1.8" stroke="#f08c00" stroke-width="1" fill="none"></path></g></g><mask></mask><g stroke-linecap="round" transform="translate(1035.5963248439296 452.09386584329525) rotate(0 10.023338939552332 9.433730766637552)"><path d="M11.02 1.24 C12.81 2.7, 15.87 4.51, 19.67 10.41 M11.5 0.16 C13.94 3.13, 15.96 5.46, 20.19 10.59 M20.34 8.99 C15.75 12.69, 13.96 16.67, 12.25 19.34 M19.54 10.61 C16.74 12.76, 13.51 17.08, 10.82 19.08 M12.32 18.03 C9.1 17.94, 4.63 13.53, -0.87 10.27 M11.08 18.17 C6.6 14.97, 3 12.34, -0.62 9.38 M-0.93 9.73 C0.78 8.51, 4.04 6.99, 10.27 0.06 M0.6 10.06 C1.97 8.36, 4 5.9, 10.32 -0.08" stroke="#f08c00" stroke-width="1" fill="none"></path></g><g stroke-linecap="round" transform="translate(1128.5199960213847 447.3205678522239) rotate(0 10.023338939552332 9.433730766637552)"><path d="M9.84 0.73 C13.31 4.76, 17.71 6.75, 20.82 8.82 M10.81 0.14 C13.54 3.17, 16.26 6.6, 19.52 10.08 M19.37 9.61 C18.73 12.81, 14.8 13.66, 10.71 18.18 M20.65 9.38 C16.01 13.15, 13.44 17.34, 11.23 19.4 M10.44 19.2 C8.25 15.34, 5.48 14.2, 0.3 10.66 M11.29 18.33 C6.87 15.3, 3.72 13.49, 0.22 10.09 M-0.13 11.23 C3.97 7.54, 5.41 2.78, 9.93 0.12 M-0.03 9.28 C3.22 7.78, 4.44 5.73, 10.67 0.58" stroke="#f08c00" stroke-width="1" fill="none"></path></g><g stroke-linecap="round"><g transform="translate(360.97392926897305 95.209015400538) rotate(0 -94.03623768208274 2.823667670321754)"><path d="M0.37 1.8 C-60.96 -1.02, -117.01 2.48, -188.45 4.89" stroke="#1e1e1e" stroke-width="1.5" fill="none" stroke-dasharray="8 9"></path></g><g transform="translate(360.97392926897305 95.209015400538) rotate(0 -94.03623768208274 2.823667670321754)"><path d="M-160.28 -4.61 C-171.08 -4.08, -176.58 1.56, -189.28 5.23" stroke="#1e1e1e" stroke-width="1.5" fill="none"></path></g><g transform="translate(360.97392926897305 95.209015400538) rotate(0 -94.03623768208274 2.823667670321754)"><path d="M-159.52 15.9 C-170.5 9.94, -176.23 9.09, -189.28 5.23" stroke="#1e1e1e" stroke-width="1.5" fill="none"></path></g></g><mask></mask><g stroke-linecap="round"><g transform="translate(369.6379832875514 277.1063696412583) rotate(0 -95.00956384677971 1.5661132420221406)"><path d="M0.17 1.19 C-56.71 -0.81, -110.72 -0.02, -190.19 3.04" stroke="#1e1e1e" stroke-width="1.5" fill="none" stroke-dasharray="8 9"></path></g><g transform="translate(369.6379832875514 277.1063696412583) rotate(0 -95.00956384677971 1.5661132420221406)"><path d="M-162.18 -6.94 C-171.36 -6.23, -177.64 -3.3, -190.83 2.15" stroke="#1e1e1e" stroke-width="1.5" fill="none"></path></g><g transform="translate(369.6379832875514 277.1063696412583) rotate(0 -95.00956384677971 1.5661132420221406)"><path d="M-161.51 13.57 C-170.79 8.22, -177.27 5.1, -190.83 2.15" stroke="#1e1e1e" stroke-width="1.5" fill="none"></path></g></g><mask></mask><g stroke-linecap="round"><g transform="translate(362.4919871938015 483.62238314848776) rotate(0 -94.09876053620661 0.9141539019851734)"><path d="M-1.51 0.36 C-67.89 2.36, -136.05 1.1, -186.69 0.88" stroke="#1e1e1e" stroke-width="1.5" fill="none" stroke-dasharray="8 9"></path></g><g transform="translate(362.4919871938015 483.62238314848776) rotate(0 -94.09876053620661 0.9141539019851734)"><path d="M-159.93 -8.82 C-168.54 -4.64, -178.94 -2.17, -187.27 1.89" stroke="#1e1e1e" stroke-width="1.5" fill="none"></path></g><g transform="translate(362.4919871938015 483.62238314848776) rotate(0 -94.09876053620661 0.9141539019851734)"><path d="M-160.08 11.7 C-168.66 8.37, -179.01 3.33, -187.27 1.89" stroke="#1e1e1e" stroke-width="1.5" fill="none"></path></g></g><mask></mask><g stroke-linecap="round" transform="translate(215.1710117885042 51.65053885323658) rotate(0 9.88311767578125 9.3017578125)"><path d="M9.94 0.29 C11.68 2.74, 16.01 6.16, 20.91 10.96 M10.67 0.11 C13.24 3.55, 16.54 6.99, 19.34 10.61 M19.16 10.17 C17.28 12.36, 14.05 15.42, 9.98 19.76 M20.26 10.54 C16.99 12.3, 14.57 15.16, 10.37 18.02 M10.07 18.24 C7.43 14.5, 2.34 13.26, -0.93 11.13 M9.53 18.05 C6.47 16.42, 3.53 12.9, 0.34 9.45 M0.7 8.76 C3.72 7.64, 4.51 3.78, 9.06 -0.88 M-0.34 9.43 C3.26 6.77, 6.22 4.98, 10.12 0.25" stroke="#e03131" stroke-width="1" fill="none"></path></g><g stroke-linecap="round" transform="translate(251.23850188075983 52.801045321532115) rotate(0 10.023338939552389 9.433730766637524)"><path d="M12.33 0.99 C14.93 3.17, 16.41 7.2, 19.54 10.91 M11.03 -0.22 C13.9 4.1, 17.11 7, 20.23 9.71 M19.8 10.39 C16.52 12.26, 12.97 17.21, 10.55 18.51 M19.7 9.54 C17.52 12.3, 15.52 14.09, 11.54 18.6 M10.98 19.13 C8.18 15.44, 6.16 13.93, 0.05 9.99 M11.38 19.42 C7.72 16.28, 5.38 14.54, 0.13 10.16 M0.17 10.82 C4.27 5.99, 7.26 4.04, 12.28 -0.83 M0.7 10.68 C2.82 6.87, 5.42 4.15, 10.54 0.04" stroke="#2f9e44" stroke-width="1" fill="none"></path></g><g stroke-linecap="round" transform="translate(290.3957955496651 52.89378138950889) rotate(0 9.88311767578125 9.3017578125)"><path d="M10.26 -0.26 C11.2 2.88, 14.28 5.2, 19.76 9.13 M10.55 -0.66 C12.33 2.41, 15.48 5.79, 19.92 9.78 M20.48 11.21 C14.93 14.44, 11.96 17.5, 9.27 18.34 M20.36 9.83 C16.12 12.6, 12.67 15.89, 10.04 19.04 M9.67 19.77 C6.72 16.74, 5.27 15.05, -0.69 10.61 M10.03 18.5 C8.01 17.3, 6.41 14.59, 0.66 9.53 M-1.25 10.43 C4.83 4.99, 8.44 2.82, 9.72 -0.13 M0.29 9.47 C2.2 7.8, 3.79 6.46, 10.35 -0.39" stroke="#e03131" stroke-width="1" fill="none"></path></g><g stroke-linecap="round" transform="translate(326.3407793640191 53.093926878451725) rotate(0 12.203427527721999 10.596450493200024)"><path d="M12.02 -0.7 C16.45 4.4, 20.61 8.5, 25.83 12.33 M12.63 0.06 C17.17 4.51, 20.35 7.89, 24.07 11.26 M24.47 12.23 C20.97 14.36, 19.34 14.71, 13.64 21.58 M24.04 10.5 C19.56 14.4, 15.05 19.23, 13.76 21.68 M13.87 22.17 C8.1 17.36, 6.73 14.59, 1.46 11.02 M13.58 20.57 C7.68 17.77, 3.63 12.83, -0.32 11.14 M-1.4 11.54 C4.65 8.31, 6.77 2.53, 13.83 -0.14 M-0.35 10.72 C3.3 8.15, 5.75 6.34, 12.69 0.26" stroke="#2f9e44" stroke-width="1" fill="none"></path></g><g stroke-linecap="round" transform="translate(225.9947972211619 238.08298414686692) rotate(0 10.023338939552389 9.433730766637524)"><path d="M11.81 -0.86 C13.62 5.04, 16.73 7.55, 21.2 9.67 M11.15 0.12 C14.28 3.48, 17.25 7.04, 20.12 10.08 M19.86 9.12 C18.02 13.49, 14.07 15.65, 12.09 17.85 M19.44 10.18 C18.37 11.6, 15.75 14.82, 10.81 18.64 M10.81 18.66 C7.93 17.26, 5.48 13.79, -1.16 8.59 M10.46 18.8 C8.25 16.96, 4.93 13.72, -0.57 9.87 M0.02 9.27 C4.62 6.6, 6.93 4.05, 10.44 0.78 M0.36 9.32 C3.57 6.53, 6.4 4.08, 11.29 0.59" stroke="#2f9e44" stroke-width="1" fill="none"></path></g><g stroke-linecap="round" transform="translate(259.6185416408043 238.3663180614875) rotate(0 10.023338939552389 9.433730766637524)"><path d="M10.97 -0.57 C13.48 3.8, 15.51 6.8, 19.09 9.67 M11.39 0.39 C14.32 2.27, 16.09 5.93, 20.05 9.34 M20.19 10.3 C18.75 11.66, 16.35 13.8, 11.06 18.18 M19.56 9.69 C17.11 12.84, 13.85 15.86, 10.56 19.08 M10.52 19.35 C6.84 16.41, 2.37 12.15, -0.81 11.32 M11.18 18.23 C8.16 16.78, 4.56 14.61, -0.17 9.63 M1.45 11.29 C1.52 8.93, 3.58 6.58, 10.86 -1.03 M0 9.83 C2.94 7.09, 7.04 4.27, 10.39 0.49" stroke="#2f9e44" stroke-width="1" fill="none"></path></g><g stroke-linecap="round" transform="translate(295.35620989118274 238.13739885602678) rotate(0 9.88311767578125 9.3017578125)"><path d="M10.69 0.53 C11.5 3.68, 15.14 5.04, 21 9.95 M9.71 -0.45 C13.77 4, 16.59 6.47, 19.67 9.39 M18.63 10.64 C15.78 12.03, 14.13 15.34, 10.1 19.78 M19.53 10 C15.68 12.72, 12.39 16.59, 10.46 19.07 M10.63 18.82 C7.49 16.31, 3.22 13.81, -1.21 8.98 M9.89 19.09 C7.21 15.79, 4.06 13.63, 0.57 10.4 M-0.49 8.96 C3.24 5.79, 7.52 2.5, 9.52 0.51 M-0.57 9.43 C3.63 5.99, 8.12 3.35, 10.42 -0.42" stroke="#e03131" stroke-width="1" fill="none"></path></g><g stroke-linecap="round" transform="translate(328.4047415597097 238.73937988281244) rotate(0 9.88311767578125 9.3017578125)"><path d="M9.68 -1.2 C13.87 4.29, 18.52 7.17, 18.74 10.76 M10.31 0.24 C13.26 4.17, 17.52 6.6, 19.21 10.57 M19.9 9.28 C15.85 13.31, 12.8 15.12, 8.96 18.1 M20.25 10.45 C16.52 12.51, 13.29 16.55, 9.83 18.46 M10.37 19.83 C6.94 15.08, 2.58 12.28, 1.08 9.77 M10.42 18.94 C7.95 16.13, 4.42 14.04, -0.08 10.41 M0.69 10.42 C2.16 6.1, 5.78 3.42, 9.58 0.97 M0.48 9.98 C2.81 6.87, 6.7 4.45, 10.53 -0.49" stroke="#e03131" stroke-width="1" fill="none"></path></g><g stroke-linecap="round" transform="translate(227.91269621669733 447.7457213120455) rotate(0 10.023338939552389 9.433730766637552)"><path d="M10.25 0.86 C14.44 2.56, 16.97 6.62, 19.29 8.93 M10.34 0.45 C14.29 2.56, 16.37 6.13, 19.85 10.07 M18.87 10.1 C17.16 12.52, 16.02 13.94, 9.79 20.08 M19.75 9.91 C17.25 13.4, 13.92 16.02, 10.51 19.05 M10.4 20.04 C7.51 16.78, 4.16 12.55, 0.23 11.07 M11.61 18.92 C6.24 14.9, 2.9 11.64, -0.11 10.42 M-1.02 8.83 C3.22 7.78, 7.44 3.04, 10.99 -1.01 M-0.59 10.42 C1.75 7.45, 4.61 5.21, 10.85 -0.38" stroke="#f08c00" stroke-width="1" fill="none"></path></g><g stroke-linecap="round" transform="translate(258.14454261736705 451.35403255646474) rotate(0 10.023338939552389 9.433730766637552)"><path d="M12.22 -0.83 C15.07 2.42, 17.71 8.16, 19.86 9.39 M11.44 0.14 C14.14 2.97, 16.7 6.5, 19.65 10.27 M19.53 8.88 C17.66 12.05, 15.7 14.8, 11.59 19.98 M20.49 9.88 C18.06 12.31, 15.31 14.62, 10.45 19.39 M10.61 19.68 C8.81 15.46, 3.54 14.42, 0.17 9.3 M10.89 19.21 C7.23 15.92, 4.43 13.94, -0.68 9.31 M0.8 8.89 C3.99 8.48, 4.28 4.08, 9.9 -1.44 M-0.36 9.73 C4.12 6.01, 9.12 2.49, 10.97 -0.57" stroke="#f08c00" stroke-width="1" fill="none"></path></g><g stroke-linecap="round" transform="translate(291.8374311497332 450.0668011111526) rotate(0 10.023338939552389 9.433730766637552)"><path d="M11.93 -1.29 C12.98 2.39, 16.32 6.86, 20.18 8.79 M11.19 0.62 C13.96 2.29, 15.77 5.05, 20.33 9.63 M18.99 10.8 C16.85 12.25, 14.2 15.96, 11.87 18.47 M20.27 9.97 C16.83 13.48, 13.63 16.46, 11.29 18.53 M11.97 20.19 C8.46 18.19, 6.98 15.03, 1.19 9.67 M11.59 18.42 C7.44 15.8, 4.82 13.87, -0.28 9.73 M0.62 9.88 C2.75 6.28, 6.08 3.16, 12.45 -1.01 M0.68 9.96 C4.22 6.69, 7.08 3.93, 11.55 0.22" stroke="#2f9e44" stroke-width="1" fill="none"></path></g><g stroke-linecap="round" transform="translate(323.94358000576005 449.4733650062419) rotate(0 10.023338939552389 9.433730766637552)"><path d="M9.93 -0.97 C14.77 4.28, 18.53 6.97, 20.89 10.47 M11.48 0.03 C12.96 2.37, 16.03 5.39, 20.01 10.65 M18.78 11.14 C16.23 14.32, 14.12 15.64, 9.92 18.03 M20.19 10.18 C17.47 13.35, 13.29 15.85, 11.62 18.44 M11.48 20.26 C6.82 16.27, 1.32 12.44, -0.37 8.65 M10.84 18.22 C7.55 15.55, 2.62 12.46, 0.27 9.52 M0.89 10.02 C3.79 6.05, 7.27 5.19, 9.76 1.18 M-0.18 9.83 C2.94 8.35, 4.36 5.56, 10.33 0.09" stroke="#2f9e44" stroke-width="1" fill="none"></path></g></svg>