<svg version="1.1" xmlns="http://www.w3.org/2000/svg" viewBox="0 0 775.7224121093752 984.3101719447545" width="1551.4448242187505" height="1968.620343889509">
  <!-- svg-source:excalidraw -->
  
  <defs>
    <style class="style-fonts">
      @font-face {
        font-family: "Virgil";
        src: url("https://excalidraw.com/Virgil.woff2");
      }
      @font-face {
        font-family: "Cascadia";
        src: url("https://excalidraw.com/Cascadia.woff2");
      }
    </style>
    
  </defs>
  <g stroke-linecap="round" transform="translate(60.1823817661832 56.43465750558033) rotate(0 76.41241455078125 79.64028930664062)"><path d="M32 0 M32 0 C55.44 1.02, 78.11 -0.41, 120.82 0 M32 0 C58.2 -0.9, 84.42 -0.12, 120.82 0 M120.82 0 C141.42 0.72, 151.81 10.11, 152.82 32 M120.82 0 C141.66 -1.56, 154.96 12.15, 152.82 32 M152.82 32 C152.33 56.43, 151.19 76.99, 152.82 127.28 M152.82 32 C153.25 63.85, 153.33 94.89, 152.82 127.28 M152.82 127.28 C151.68 147.66, 142.16 159.85, 120.82 159.28 M152.82 127.28 C152.62 146.91, 141.64 157.69, 120.82 159.28 M120.82 159.28 C92.98 159.15, 64.24 157.62, 32 159.28 M120.82 159.28 C100.6 160.29, 82.7 159.2, 32 159.28 M32 159.28 C9.34 160.2, 1.03 149.49, 0 127.28 M32 159.28 C8.75 160.59, 1.68 149.67, 0 127.28 M0 127.28 C0.71 94.97, -0.68 62.79, 0 32 M0 127.28 C1.03 101.19, 1.13 73.35, 0 32 M0 32 C1.93 10.1, 11.77 -0.22, 32 0 M0 32 C-0.34 8.9, 10.09 -1.21, 32 0" stroke="#1e1e1e" stroke-width="1" fill="none"></path></g><g transform="translate(102.38482775006992 123.57494681222096) rotate(0 34.20996856689453 12.5)"><text x="34.20996856689453" y="0" font-family="Virgil, Segoe UI Emoji" font-size="20px" fill="#1e1e1e" text-anchor="middle" style="white-space: pre;" direction="ltr" dominant-baseline="text-before-edge">nginx-v1</text></g><g stroke-linecap="round" transform="translate(61.26899065290206 252.04667881556918) rotate(0 76.41241455078125 79.64028930664062)"><path d="M32 0 M32 0 C49.18 1.67, 70.53 0.24, 120.82 0 M32 0 C49.5 -1.61, 67.43 -1.36, 120.82 0 M120.82 0 C140.17 0.23, 154.66 12.02, 152.82 32 M120.82 0 C140.6 0.76, 152.71 10.46, 152.82 32 M152.82 32 C152.85 54.42, 151.04 79.79, 152.82 127.28 M152.82 32 C152.25 58.3, 152.91 84.39, 152.82 127.28 M152.82 127.28 C150.95 146.94, 143.05 158.35, 120.82 159.28 M152.82 127.28 C154.93 148.34, 140.54 160.68, 120.82 159.28 M120.82 159.28 C89 159.83, 55.29 159.13, 32 159.28 M120.82 159.28 C90.45 158.7, 60.83 158.92, 32 159.28 M32 159.28 C9.47 158.6, 1.14 150.4, 0 127.28 M32 159.28 C12.29 159.11, 1.77 150.15, 0 127.28 M0 127.28 C-1.14 107.94, -0.54 85.09, 0 32 M0 127.28 C-0.84 104.88, -0.61 82.42, 0 32 M0 32 C-1.66 11.76, 12.57 1.18, 32 0 M0 32 C1.24 11.83, 10.92 -0.79, 32 0" stroke="#1e1e1e" stroke-width="1" fill="none"></path></g><g transform="translate(103.47143663678878 319.1869681222098) rotate(0 34.20996856689453 12.5)"><text x="34.20996856689453" y="0" font-family="Virgil, Segoe UI Emoji" font-size="20px" fill="#1e1e1e" text-anchor="middle" style="white-space: pre;" direction="ltr" dominant-baseline="text-before-edge">nginx-v1</text></g><g stroke-linecap="round" transform="translate(65.22956194196422 448.83030046735485) rotate(0 76.41241455078125 79.64028930664062)"><path d="M32 0 M32 0 C48.94 -2.53, 66.74 -2.04, 120.82 0 M32 0 C50.48 -1.49, 67.95 -0.86, 120.82 0 M120.82 0 C141.98 -0.9, 151.24 9.54, 152.82 32 M120.82 0 C143.06 -2.14, 151.65 9.76, 152.82 32 M152.82 32 C152.17 58.25, 153.5 84.09, 152.82 127.28 M152.82 32 C151.56 52.56, 151.91 70.58, 152.82 127.28 M152.82 127.28 C154.04 149.81, 143.92 158.51, 120.82 159.28 M152.82 127.28 C153 149.64, 140.34 159.5, 120.82 159.28 M120.82 159.28 C90.1 157.94, 60.89 158.38, 32 159.28 M120.82 159.28 C100.39 160.49, 78.09 160.56, 32 159.28 M32 159.28 C12 157.53, -0.79 146.76, 0 127.28 M32 159.28 C8.92 160.3, -1.06 146.61, 0 127.28 M0 127.28 C-1.04 104.9, -0.59 82.4, 0 32 M0 127.28 C0.07 107.14, -0.01 86.04, 0 32 M0 32 C-0.69 11.52, 10.21 0.76, 32 0 M0 32 C1 11.98, 11.77 1.97, 32 0" stroke="#1e1e1e" stroke-width="1" fill="none"></path></g><g transform="translate(107.43200792585094 515.9705897739955) rotate(0 34.20996856689453 12.5)"><text x="34.20996856689453" y="0" font-family="Virgil, Segoe UI Emoji" font-size="20px" fill="#1e1e1e" text-anchor="middle" style="white-space: pre;" direction="ltr" dominant-baseline="text-before-edge">nginx-v1</text></g><g stroke-linecap="round" transform="translate(590.6497453962054 43.427555629185406) rotate(0 76.41241455078125 79.64028930664062)"><path d="M32 0 M32 0 C57.78 -2, 82.38 -2.05, 120.82 0 M32 0 C58.35 -0.17, 84.33 -0.48, 120.82 0 M120.82 0 C143.15 -1.46, 153.42 10.26, 152.82 32 M120.82 0 C144.06 -2.04, 150.99 9.06, 152.82 32 M152.82 32 C151.69 64.59, 154.4 92.83, 152.82 127.28 M152.82 32 C151.75 52.12, 152.83 72.87, 152.82 127.28 M152.82 127.28 C153.09 149.14, 140.84 160.93, 120.82 159.28 M152.82 127.28 C154.18 147.02, 144.03 158.85, 120.82 159.28 M120.82 159.28 C89.86 160.47, 57.31 159.39, 32 159.28 M120.82 159.28 C89.6 159.91, 58.66 159.56, 32 159.28 M32 159.28 C9.98 158.82, -0.4 148.84, 0 127.28 M32 159.28 C12.93 157.2, -0.21 148.4, 0 127.28 M0 127.28 C0.8 94.32, -0.61 58.08, 0 32 M0 127.28 C-0.88 106.54, -1.44 84.3, 0 32 M0 32 C1 10.33, 11.17 -0.71, 32 0 M0 32 C-2.18 10.88, 9.03 1.22, 32 0" stroke="#1e1e1e" stroke-width="1" fill="none"></path></g><g transform="translate(641.4321855817523 110.56784493582603) rotate(0 25.629974365234375 12.5)"><text x="25.629974365234375" y="0" font-family="Virgil, Segoe UI Emoji" font-size="20px" fill="#1e1e1e" text-anchor="middle" style="white-space: pre;" direction="ltr" dominant-baseline="text-before-edge">client</text></g><g stroke-linecap="round" transform="translate(594.9535958426343 237.08050973074774) rotate(0 76.41241455078125 79.64028930664062)"><path d="M32 0 M32 0 C56.41 0.83, 83.97 -1.48, 120.82 0 M32 0 C59.93 1, 88.3 -0.56, 120.82 0 M120.82 0 C141.47 -1.54, 153.14 12.54, 152.82 32 M120.82 0 C141.87 -0.66, 151.04 10.5, 152.82 32 M152.82 32 C153.85 67.27, 153.26 102.2, 152.82 127.28 M152.82 32 C152.8 54.49, 152.1 77.88, 152.82 127.28 M152.82 127.28 C152.51 147.24, 142.79 158.36, 120.82 159.28 M152.82 127.28 C154.75 150.86, 140.03 158.31, 120.82 159.28 M120.82 159.28 C89.68 157.35, 59.52 157.56, 32 159.28 M120.82 159.28 C101.79 159.26, 82.43 158.66, 32 159.28 M32 159.28 C12.26 160.81, 1.05 149.29, 0 127.28 M32 159.28 C12.12 159.38, -0.02 149.73, 0 127.28 M0 127.28 C0.87 106.28, -1.1 85.17, 0 32 M0 127.28 C-0.19 100.64, -0.5 74.55, 0 32 M0 32 C1.89 12.45, 11.27 -0.69, 32 0 M0 32 C-1.88 10.51, 9.72 0.13, 32 0" stroke="#1e1e1e" stroke-width="1" fill="none"></path></g><g transform="translate(645.7360360281812 304.22079903738836) rotate(0 25.629974365234375 12.5)"><text x="25.629974365234375" y="0" font-family="Virgil, Segoe UI Emoji" font-size="20px" fill="#1e1e1e" text-anchor="middle" style="white-space: pre;" direction="ltr" dominant-baseline="text-before-edge">client</text></g><g stroke-linecap="round" transform="translate(603.6331438337054 436.7805219377791) rotate(0 76.41241455078125 79.64028930664062)"><path d="M32 0 M32 0 C66.73 -0.17, 99.88 2.05, 120.82 0 M32 0 C63.8 -0.45, 94.43 1.13, 120.82 0 M120.82 0 C143.33 -1.71, 153.63 12.27, 152.82 32 M120.82 0 C143.5 1.19, 151.18 10.69, 152.82 32 M152.82 32 C151.49 61.6, 151.75 89.77, 152.82 127.28 M152.82 32 C154.51 67.34, 152.74 101.83, 152.82 127.28 M152.82 127.28 C153.7 148.3, 141.33 160.91, 120.82 159.28 M152.82 127.28 C155.12 148.28, 142.27 159.58, 120.82 159.28 M120.82 159.28 C89.01 161.58, 56.47 162.07, 32 159.28 M120.82 159.28 C88.34 159.3, 55.13 160.89, 32 159.28 M32 159.28 C9.87 159.28, -0.67 150.37, 0 127.28 M32 159.28 C11.93 157.91, -0.22 148.9, 0 127.28 M0 127.28 C1.76 105.04, 1.35 85.45, 0 32 M0 127.28 C-1.15 106.56, 0.55 85.58, 0 32 M0 32 C1.64 10.46, 8.69 -1.9, 32 0 M0 32 C2.14 11.37, 9.65 -1.09, 32 0" stroke="#1e1e1e" stroke-width="1" fill="none"></path></g><g transform="translate(654.4155840192523 503.9208112444197) rotate(0 25.629974365234375 12.5)"><text x="25.629974365234375" y="0" font-family="Virgil, Segoe UI Emoji" font-size="20px" fill="#1e1e1e" text-anchor="middle" style="white-space: pre;" direction="ltr" dominant-baseline="text-before-edge">client</text></g><g stroke-linecap="round"><g transform="translate(571.322762625558 134.88998821655477) rotate(0 -173.60517744408196 1.2040935722464354)"><path d="M0.25 1.18 C-110.78 -1.66, -218.35 0.45, -347.46 2.6" stroke="#1e1e1e" stroke-width="1.5" fill="none" stroke-dasharray="8 9"></path></g><g transform="translate(571.322762625558 134.88998821655477) rotate(0 -173.60517744408196 1.2040935722464354)"><path d="M-319.06 -6.31 C-329.93 -5.97, -335.5 -0.52, -348.28 2.94" stroke="#1e1e1e" stroke-width="1.5" fill="none"></path></g><g transform="translate(571.322762625558 134.88998821655477) rotate(0 -173.60517744408196 1.2040935722464354)"><path d="M-318.73 14.21 C-329.64 8.06, -335.31 7.02, -348.28 2.94" stroke="#1e1e1e" stroke-width="1.5" fill="none"></path></g></g><mask></mask><g stroke-linecap="round"><g transform="translate(577.4024137423505 322.0351647668154) rotate(0 -174.44528909268854 -0.07132671258480627)"><path d="M0.11 0.78 C-103.38 -1.4, -205.01 -1.39, -349 0.28" stroke="#1e1e1e" stroke-width="1.5" fill="none" stroke-dasharray="8 9"></path></g><g transform="translate(577.4024137423505 322.0351647668154) rotate(0 -174.44528909268854 -0.07132671258480627)"><path d="M-320.73 -9.04 C-329.98 -8.53, -336.34 -5.8, -349.65 -0.61" stroke="#1e1e1e" stroke-width="1.5" fill="none"></path></g><g transform="translate(577.4024137423505 322.0351647668154) rotate(0 -174.44528909268854 -0.07132671258480627)"><path d="M-320.55 11.48 C-329.76 5.94, -336.17 2.61, -349.65 -0.61" stroke="#1e1e1e" stroke-width="1.5" fill="none"></path></g></g><mask></mask><g stroke-linecap="round"><g transform="translate(591.7375665046275 529.4816346510263) rotate(0 -182.225174213292 -0.8965739955293088)"><path d="M-0.95 0.22 C-132.76 1.48, -265.68 -0.39, -363.5 -2.42" stroke="#1e1e1e" stroke-width="1.5" fill="none" stroke-dasharray="8 9"></path></g><g transform="translate(591.7375665046275 529.4816346510263) rotate(0 -182.225174213292 -0.8965739955293088)"><path d="M-336.64 -11.83 C-345.29 -7.76, -355.72 -5.39, -364.08 -1.42" stroke="#1e1e1e" stroke-width="1.5" fill="none"></path></g><g transform="translate(591.7375665046275 529.4816346510263) rotate(0 -182.225174213292 -0.8965739955293088)"><path d="M-337.01 8.69 C-345.55 5.25, -355.85 0.1, -364.08 -1.42" stroke="#1e1e1e" stroke-width="1.5" fill="none"></path></g></g><mask></mask><g stroke-linecap="round" transform="translate(57.094011579241396 737.7858581542971) rotate(0 76.41241455078125 79.64028930664062)"><path d="M32 0 M32 0 C57.8 1.35, 77.88 -1.58, 120.82 0 M32 0 C63.57 1.65, 94.16 -0.01, 120.82 0 M120.82 0 C143.75 1.07, 153.31 10.06, 152.82 32 M120.82 0 C141.48 -1.59, 152.18 8.99, 152.82 32 M152.82 32 C154.68 62.9, 152.05 88.86, 152.82 127.28 M152.82 32 C152.94 55.75, 152.81 80.55, 152.82 127.28 M152.82 127.28 C154.28 150.46, 141.94 160.17, 120.82 159.28 M152.82 127.28 C153.45 147.04, 142.7 159.9, 120.82 159.28 M120.82 159.28 C87.43 158.5, 55.15 159.48, 32 159.28 M120.82 159.28 C97.48 159.9, 74.51 160.23, 32 159.28 M32 159.28 C11.65 159.91, -0.88 149.1, 0 127.28 M32 159.28 C11.97 157.29, 1.8 149.65, 0 127.28 M0 127.28 C-1.24 105.83, -1.29 85.62, 0 32 M0 127.28 C-0.6 105.82, -1.74 82.02, 0 32 M0 32 C-0.95 12.6, 10.54 -0.95, 32 0 M0 32 C0.53 12.12, 9.83 1.07, 32 0" stroke="#1e1e1e" stroke-width="1" fill="none"></path></g><g transform="translate(94.88646153041327 804.9261474609377) rotate(0 38.619964599609375 12.5)"><text x="38.619964599609375" y="0" font-family="Virgil, Segoe UI Emoji" font-size="20px" fill="#1e1e1e" text-anchor="middle" style="white-space: pre;" direction="ltr" dominant-baseline="text-before-edge">nginx-v2</text></g><g stroke-linecap="round" transform="translate(11.110534667968864 10) rotate(0 134.7922624860492 315.13711111886164)"><path d="M-1.4 0.23 C90.97 1.23, 182.63 2.03, 268.28 0.18 M270.31 0.79 C269.59 210.62, 268.97 419.66, 269.72 629.72 M270.78 631.29 C207.9 628.74, 146.94 629.81, -0.88 631.49 M0.07 629.99 C-1.54 411.09, -2.1 189.83, -0.7 0.11" stroke="#1971c2" stroke-width="1.5" fill="none" stroke-dasharray="8 9"></path></g><g stroke-linecap="round" transform="translate(10 680.9823608398438) rotate(0 134.79226248604914 146.6639055524554)"><path d="M-1.28 0.22 C78.14 1.9, 153 3.14, 269.89 -0.32 M270.08 0.68 C269.06 106.09, 268.11 213.6, 268.6 292.93 M268.37 294.78 C185.64 291.33, 100.65 291, -0.22 294.48 M-0.42 294.34 C1.53 202.12, 0.81 110.25, 0.42 1.46" stroke="#2f9e44" stroke-width="1.5" fill="none" stroke-dasharray="8 9"></path></g><g stroke-linecap="round" transform="translate(612.8975830078127 751.7896772112168) rotate(0 76.41241455078125 79.64028930664057)"><path d="M32 0 M32 0 C53.76 -0.38, 72.66 0.95, 120.82 0 M32 0 C51.34 -0.79, 70.95 -1.4, 120.82 0 M120.82 0 C141.03 -0.53, 150.83 11.18, 152.82 32 M120.82 0 C140 1.73, 151.18 10.57, 152.82 32 M152.82 32 C152.67 61.18, 153.35 90.62, 152.82 127.28 M152.82 32 C154.39 57.9, 152.9 83.39, 152.82 127.28 M152.82 127.28 C153.57 149.17, 140.83 160.82, 120.82 159.28 M152.82 127.28 C153.86 149.39, 143.11 160.07, 120.82 159.28 M120.82 159.28 C95.38 158.64, 69.75 158.77, 32 159.28 M120.82 159.28 C87.98 158.86, 54.84 159.51, 32 159.28 M32 159.28 C12.65 157.85, -0.13 147.85, 0 127.28 M32 159.28 C9.02 161.03, -0.41 150.07, 0 127.28 M0 127.28 C0.3 102.79, -2.6 79.89, 0 32 M0 127.28 C0.81 96.09, 1.47 66.21, 0 32 M0 32 C-0.8 9.75, 10.79 -1.89, 32 0 M0 32 C-1.25 8.46, 10.03 -0.15, 32 0" stroke="#1e1e1e" stroke-width="1" fill="none"></path></g><g transform="translate(663.6800231933596 818.9299665178575) rotate(0 25.629974365234375 12.5)"><text x="25.629974365234375" y="0" font-family="Virgil, Segoe UI Emoji" font-size="20px" fill="#1e1e1e" text-anchor="middle" style="white-space: pre;" direction="ltr" dominant-baseline="text-before-edge">client</text></g><g stroke-linecap="round"><g transform="translate(600.2226252515836 818.4476496030833) rotate(0 -186.29750588736522 -1.7857064700654064)"><path d="M0.69 0.77 C-134.29 -1.41, -268.96 -3.79, -373.28 -4.35" stroke="#1e1e1e" stroke-width="1.5" fill="none" stroke-dasharray="8 9"></path></g><g transform="translate(600.2226252515836 818.4476496030833) rotate(0 -186.29750588736522 -1.7857064700654064)"><path d="M-343.88 -13.08 C-355.67 -10.16, -366.9 -7.89, -374.78 -4.35" stroke="#1e1e1e" stroke-width="1.5" fill="none"></path></g><g transform="translate(600.2226252515836 818.4476496030833) rotate(0 -186.29750588736522 -1.7857064700654064)"><path d="M-344.07 7.44 C-355.73 2.97, -366.89 -2.14, -374.78 -4.35" stroke="#1e1e1e" stroke-width="1.5" fill="none"></path></g></g><mask></mask><g stroke-linecap="round" transform="translate(347.25738525390625 92.10126604352715) rotate(0 13.22592599051336 13.080575125558028)"><path d="M14.04 0.29 C17.5 4.47, 23.17 7.34, 27 12.66 M14.91 0.38 C16.32 2.8, 19.73 7.42, 26.79 13.15 M26.75 13.18 C22.86 18.89, 18.36 23.42, 14.87 27.61 M26.3 14.58 C22.95 18.34, 18.99 21.61, 13.86 26.67 M15.44 24.42 C10.43 21.46, 7.54 21.58, 1.3 13.6 M13.52 25.98 C9.71 22.81, 4.32 18.89, 0.28 13.49 M-1.2 13.57 C3.86 11.02, 10.55 4.74, 12.18 1.64 M0.82 14.42 C5.89 8.78, 11.5 4.01, 13.61 0.57" stroke="#1e1e1e" stroke-width="1" fill="none"></path></g><g stroke-linecap="round" transform="translate(396.8232073102679 91.66586739676373) rotate(0 13.22592599051336 13.080575125558028)"><path d="M12.31 1.52 C16.67 4.96, 24.28 9.69, 26.44 13.5 M14.71 -0.51 C17.61 3.41, 21 7.83, 27.22 14.15 M26.07 13.71 C25.15 15.65, 21.82 21.02, 12.62 27.24 M26.87 14.43 C22.2 18.08, 17.63 22.98, 14.42 25.47 M14.97 27.86 C7.55 20.17, 2.61 17.59, -1.06 14.3 M14.83 27.03 C8.67 20.82, 3.39 16.92, 0.93 14.17 M0.47 13.52 C6.36 8.83, 10.53 5.3, 14.91 -1.23 M-0.9 14.67 C5.58 8.46, 10.33 3.41, 14.5 0.27" stroke="#1e1e1e" stroke-width="1" fill="none"></path></g><g stroke-linecap="round" transform="translate(441.12653459821445 90.86826869419684) rotate(0 13.22592599051336 13.080575125558028)"><path d="M14.9 -1.48 C18.21 5.09, 21.1 7.89, 28.17 12.64 M13.46 0.15 C17.11 3.52, 18.88 6.64, 27.33 13.88 M28.19 14.32 C24.4 15.87, 20.63 19.42, 13.58 27.62 M26.85 13.46 C23.84 16.88, 20.58 19.85, 14.59 26.31 M14.94 26.66 C9.76 21.92, 5.66 19.2, -1.29 12.78 M14.05 26.01 C11.51 23.68, 8.88 20.85, -0.7 13.44 M-0.27 13.91 C3.32 11.48, 9 4.33, 15.05 -1.15 M0.04 14.45 C2.55 11.36, 6.86 6.9, 13.94 0.22" stroke="#1e1e1e" stroke-width="1" fill="none"></path></g><g stroke-linecap="round" transform="translate(311.42977033342663 769.6631731305807) rotate(0 13.22592599051336 13.080575125558028)"><path d="M14.77 0.97 C17.89 3.09, 21.32 6.4, 27.56 13.4 M13.36 0.07 C18.37 6.04, 22.58 9.89, 26.55 13.33 M25.45 13.57 C23.18 17.65, 20.42 20.94, 12.52 25.21 M27.15 14.77 C23.06 16.96, 20.47 19.88, 14.61 26.34 M15.66 25.98 C8.97 23.57, 2.49 17.34, -1.28 13.69 M14.69 25.85 C9.79 22.58, 6.24 20.44, 0.31 13.5 M1.69 13.17 C3.65 10.05, 7.88 4.88, 12.6 0.84 M-0.03 14.09 C2.8 10.92, 7.13 6.32, 14.55 -0.71" stroke="#1e1e1e" stroke-width="1" fill="none"></path></g><g stroke-linecap="round" transform="translate(360.99559238978804 769.2277744838174) rotate(0 13.22592599051336 13.080575125558028)"><path d="M14.47 -0.49 C19.61 4.6, 25.03 10.44, 27.65 14.59 M13.79 0.86 C16.22 2.79, 19.69 5.71, 25.64 14.28 M25.8 14.96 C20.9 20.24, 15.48 22.22, 12.53 27.32 M25.66 14.26 C21.24 19.16, 17.95 23.29, 14.44 25.76 M13.83 27.8 C7.55 21.82, 3.41 17.85, -0.73 13.97 M13.44 25.68 C8.54 22.4, 4.41 17.09, 0.28 13.95 M-0.97 14.72 C3.24 9.5, 7.94 5.45, 13.4 1.66 M-0.86 14.62 C3.23 10.26, 7.6 6.22, 13.57 -0.66" stroke="#1e1e1e" stroke-width="1" fill="none"></path></g><g stroke-linecap="round" transform="translate(405.2989196777346 769.5928955078128) rotate(0 13.22592599051336 13.080575125558028)"><path d="M14.61 -0.88 C19.52 4.36, 23.99 10.46, 25.11 12.71 M13.47 -0.4 C17.9 3.53, 20.81 8.78, 27.19 13.46 M25.69 15.67 C21.5 16.47, 18.07 21.93, 15.22 27.56 M25.75 14.55 C22.12 18.94, 17.12 23.07, 14.25 26.94 M12.26 25.83 C8.66 22.44, 5.16 19.19, 0.93 15.37 M13.54 26.71 C10.65 22.34, 6.88 19.54, 0.35 14.79 M-1.37 14.17 C2.28 11.18, 6.69 8.38, 13.05 -0.05 M-0.3 13.8 C5 8.87, 8.34 4.6, 14.95 0.35" stroke="#1e1e1e" stroke-width="1" fill="none"></path></g><g stroke-linecap="round" transform="translate(450.264086042132 770.8973911830361) rotate(0 13.22592599051336 13.080575125558028)"><path d="M12.65 -1.29 C17.57 3.29, 22.48 6.41, 25.66 14.2 M14.73 -0.54 C16.5 2.82, 20.1 5.96, 27.35 13.21 M27.67 15.4 C24.82 15.48, 20.75 18.65, 15.11 27.38 M26.7 14.78 C22.44 17.76, 19.29 20.93, 13.84 25.56 M14.93 27.53 C9.47 21.59, 5.17 18.35, 1.1 14.62 M14.35 26.95 C10.13 22.71, 7.42 19.53, 0.08 13.34 M-0.95 13.95 C5.02 7.37, 10.88 3.68, 13.6 1.09 M0.95 14.35 C4.08 11.34, 6.95 8.65, 14.03 0.08" stroke="#1e1e1e" stroke-width="1" fill="none"></path></g><g stroke-linecap="round" transform="translate(496.05104718889515 773.0780465262279) rotate(0 13.22592599051336 13.080575125558028)"><path d="M14.14 -0.42 C19.74 3.67, 21.35 9.56, 25.12 12.37 M13.77 -0.35 C18.74 4.28, 23.22 8.51, 25.94 13.21 M27.98 12.41 C22.49 17.16, 18.51 24.24, 14.36 27.05 M26.37 13.92 C24.1 16.38, 20.02 19.67, 13.85 25.82 M13.39 25.03 C8.81 21.72, 6.69 19.63, -1 14.55 M13.61 25.71 C10.17 22.06, 5.79 18.47, 0.4 13.72 M0.18 12.28 C6.68 8.02, 10.41 4.35, 12.58 -0.87 M0.82 14.44 C3.63 11.63, 6.44 7.49, 13.61 0.39" stroke="#1e1e1e" stroke-width="1" fill="none"></path></g><g stroke-linecap="round" transform="translate(540.3543744768417 771.4084298270094) rotate(0 13.22592599051336 13.080575125558028)"><path d="M15.71 -1.06 C16.1 3.47, 18.44 4.87, 27.01 15.47 M14.52 -0.41 C17.88 2.65, 19.49 6.04, 27.08 14.65 M26.97 12.6 C22.93 19.73, 17.45 24.02, 13.19 26.65 M27.22 13.18 C21.43 18.13, 16.59 23.13, 13.98 26.6 M13.05 25.24 C9.9 22.15, 2.57 17.53, -0.1 14.7 M14.34 25.52 C8.74 20.75, 3.66 16.44, 0.78 13.55 M1.24 13.39 C3.75 11.05, 6.89 4.93, 12.69 1.9 M0.5 14.95 C4.62 9.32, 8.9 4.92, 14.98 0.42" stroke="#1e1e1e" stroke-width="1" fill="none"></path></g><g stroke-linecap="round" transform="translate(390.25442940848234 267.3202078683038) rotate(0 13.22592599051336 13.080575125558028)"><path d="M13.3 -0.5 C16.11 3.05, 22.4 8.56, 25.62 13.01 M13.13 -0.69 C18.56 5.38, 23.25 10.48, 27.35 14.05 M24.82 13.22 C21.83 17.25, 17.98 22.64, 14.75 27.49 M26.17 14.5 C23.43 17.08, 19.6 21.34, 13.8 25.54 M12.96 27.2 C9.57 21.78, 6.74 20.74, 0.43 13.77 M13.39 26.96 C9.66 22.01, 4.22 19.09, -0.49 14.28 M0.6 14.76 C5.8 8.11, 7.22 4.3, 12.07 0.23 M-0.27 13.91 C3.11 12.03, 6.78 8.22, 13.14 -0.19" stroke="#1e1e1e" stroke-width="1" fill="none"></path></g><g stroke-linecap="round" transform="translate(439.8468889508931 478.77367292131726) rotate(0 13.22592599051336 13.080575125558028)"><path d="M14.41 -0.8 C16.77 6.05, 21.96 10.63, 26.59 12.9 M14.67 -0.72 C17.66 4.31, 21.75 9.75, 25.6 14.08 M26.81 15.7 C24.21 17.91, 17.14 21.24, 15.72 26.44 M27.27 14.79 C23.76 16.44, 19.96 20.42, 14.47 26.01 M14.77 27.29 C9.36 21.9, 3.16 17.57, 1.46 13.15 M14.38 25.49 C10.86 23.87, 8.73 20.84, -0.1 13.55 M1.89 13.98 C5.39 8.54, 7.7 7.58, 13.05 0.82 M-0.7 14.13 C4.83 9.02, 10.56 3.65, 13.97 0.53" stroke="#1e1e1e" stroke-width="1" fill="none"></path></g><g stroke-linecap="round" transform="translate(359.34613909040195 479.62084089006737) rotate(0 13.22592599051336 13.080575125558028)"><path d="M13.01 0.57 C17.22 2.43, 21.14 7.7, 27.17 15.33 M13.08 0.11 C15.82 3.27, 19.56 6.06, 26.37 14.19 M24.93 13.67 C23.34 19.12, 15.64 23.77, 12.73 27.8 M25.95 14.64 C22.11 18.54, 17.49 22.85, 13.78 26.52 M13.81 26.93 C10.36 20.95, 2.24 17.65, 1.65 14.75 M14.72 25.91 C10.74 22.98, 7.51 20.87, 0.74 14.88 M-0.24 15.66 C3.14 10.73, 10.18 4.16, 12.32 -1.4 M-0.63 14.61 C4.48 10.08, 9.13 6.08, 14.12 0.78" stroke="#1e1e1e" stroke-width="1" fill="none"></path></g></svg>